<svg width="723" height="192" viewBox="0 0 723 192" fill="none" xmlns="http://www.w3.org/2000/svg">
<g clip-path="url(#clip0)">
<path d="M70.7071 12.7664L70.7046 147.786M722.48 147.803L70.2412 147.791" stroke="#EBEBEB" stroke-width="1.14428"/>
<path d="M39.2764 141.573C40.1346 141.573 40.843 142.024 41.4018 142.927C41.965 143.826 42.2466 144.968 42.2466 146.353C42.2466 147.775 41.965 148.93 41.4018 149.82C40.843 150.709 40.1167 151.154 39.2227 151.154C38.3153 151.154 37.5868 150.718 37.037 149.846C36.4872 148.975 36.2123 147.819 36.2123 146.38C36.2123 144.959 36.4961 143.803 37.0638 142.914C37.6315 142.02 38.369 141.573 39.2764 141.573ZM39.2898 142.847H39.2227C38.7087 142.847 38.2997 143.164 37.9957 143.799C37.6963 144.429 37.5465 145.285 37.5465 146.367C37.5465 147.475 37.694 148.345 37.989 148.975C38.284 149.605 38.6908 149.92 39.2093 149.92C39.7278 149.92 40.1368 149.605 40.4363 148.975C40.7358 148.345 40.8855 147.489 40.8855 146.407C40.8855 145.321 40.7402 144.456 40.4497 143.812C40.1636 143.169 39.777 142.847 39.2898 142.847ZM49.8363 141.559H50.8622L44.7005 151.167H43.668L49.8363 141.559ZM49.5011 146.984C50.0733 146.984 50.5649 147.189 50.9762 147.6C51.3874 148.007 51.593 148.497 51.593 149.069C51.593 149.641 51.3874 150.128 50.9762 150.53C50.5694 150.928 50.0777 151.127 49.5011 151.127C48.92 151.127 48.4239 150.928 48.0127 150.53C47.6059 150.128 47.4025 149.641 47.4025 149.069C47.4025 148.492 47.6081 148 48.0194 147.594C48.4306 147.187 48.9245 146.984 49.5011 146.984ZM49.4877 147.996C49.1927 147.996 48.9401 148.101 48.7301 148.311C48.5245 148.521 48.4216 148.774 48.4216 149.069C48.4216 149.368 48.5245 149.625 48.7301 149.84C48.9401 150.05 49.1927 150.155 49.4877 150.155C49.7917 150.155 50.0487 150.05 50.2587 149.84C50.4688 149.63 50.5739 149.373 50.5739 149.069C50.5739 148.769 50.4688 148.517 50.2587 148.311C50.0487 148.101 49.7917 147.996 49.4877 147.996ZM45.0827 141.586C45.6593 141.586 46.151 141.792 46.5577 142.203C46.9645 142.614 47.1679 143.108 47.1679 143.685C47.1679 144.257 46.9622 144.749 46.551 145.16C46.1443 145.571 45.6548 145.777 45.0827 145.777C44.5105 145.777 44.0189 145.571 43.6076 145.16C43.2009 144.749 42.9975 144.257 42.9975 143.685C42.9975 143.108 43.2009 142.614 43.6076 142.203C44.0144 141.792 44.5061 141.586 45.0827 141.586ZM45.0693 142.599C44.7698 142.599 44.5128 142.706 44.2982 142.92C44.0881 143.131 43.9831 143.385 43.9831 143.685C43.9831 143.98 44.0904 144.232 44.3049 144.442C44.5195 144.653 44.7743 144.758 45.0693 144.758C45.3687 144.758 45.6235 144.653 45.8336 144.442C46.0482 144.232 46.1554 143.98 46.1554 143.685C46.1554 143.381 46.0504 143.124 45.8403 142.914C45.6302 142.704 45.3732 142.599 45.0693 142.599Z" fill="#979797"/>
<path d="M31.7536 82.2535H35.3205V83.5475H29.3935V83.4536L29.9567 82.7898C30.8373 81.6992 31.5368 80.774 32.0553 80.0141C32.5783 79.2542 32.918 78.6798 33.0744 78.291C33.2354 77.9021 33.3158 77.5177 33.3158 77.1377C33.3158 76.6103 33.1661 76.1879 32.8666 75.8705C32.5671 75.5487 32.1693 75.3878 31.6732 75.3878C31.2977 75.3878 30.9267 75.4995 30.5602 75.723C30.1981 75.9421 29.8718 76.2527 29.5813 76.655V74.952C30.3099 74.3575 31.0608 74.0603 31.8341 74.0603C32.652 74.0603 33.3248 74.3329 33.8522 74.8782C34.3841 75.4236 34.6501 76.1164 34.6501 76.9567C34.6501 77.3322 34.583 77.7345 34.4489 78.1636C34.3193 78.5882 34.0869 79.0799 33.7516 79.6386C33.4164 80.1929 32.8465 80.9505 32.0419 81.9115L31.7536 82.2535ZM39.2764 74.0603C40.1346 74.0603 40.843 74.5117 41.4018 75.4146C41.965 76.3131 42.2466 77.4551 42.2466 78.8407C42.2466 80.2622 41.965 81.4176 41.4018 82.3071C40.843 83.1966 40.1167 83.6414 39.2227 83.6414C38.3153 83.6414 37.5868 83.2055 37.037 82.3339C36.4872 81.4623 36.2123 80.3069 36.2123 78.8676C36.2123 77.4462 36.4961 76.2907 37.0638 75.4012C37.6315 74.5072 38.369 74.0603 39.2764 74.0603ZM39.2898 75.3342H39.2227C38.7087 75.3342 38.2997 75.6515 37.9957 76.2862C37.6963 76.9165 37.5465 77.7725 37.5465 78.8542C37.5465 79.9627 37.694 80.8321 37.989 81.4623C38.284 82.0926 38.6908 82.4077 39.2093 82.4077C39.7278 82.4077 40.1368 82.0926 40.4363 81.4623C40.7358 80.8321 40.8855 79.9761 40.8855 78.8944C40.8855 77.8082 40.7402 76.9433 40.4497 76.2996C40.1636 75.656 39.777 75.3342 39.2898 75.3342ZM49.8363 74.0468H50.8622L44.7005 83.6548H43.668L49.8363 74.0468ZM49.5011 79.471C50.0732 79.471 50.5649 79.6766 50.9762 80.0878C51.3874 80.4946 51.593 80.984 51.593 81.5562C51.593 82.1283 51.3874 82.6155 50.9762 83.0178C50.5694 83.4156 50.0777 83.6145 49.5011 83.6145C48.92 83.6145 48.4239 83.4156 48.0127 83.0178C47.6059 82.6155 47.4025 82.1283 47.4025 81.5562C47.4025 80.9796 47.6081 80.4879 48.0194 80.0811C48.4306 79.6744 48.9245 79.471 49.5011 79.471ZM49.4877 80.4834C49.1927 80.4834 48.9401 80.5885 48.7301 80.7985C48.5244 81.0086 48.4216 81.2612 48.4216 81.5562C48.4216 81.8557 48.5244 82.1127 48.7301 82.3272C48.9401 82.5373 49.1927 82.6423 49.4877 82.6423C49.7916 82.6423 50.0487 82.5373 50.2587 82.3272C50.4688 82.1171 50.5739 81.8601 50.5739 81.5562C50.5739 81.2567 50.4688 81.0041 50.2587 80.7985C50.0487 80.5885 49.7916 80.4834 49.4877 80.4834ZM45.0827 74.0737C45.6593 74.0737 46.151 74.2793 46.5577 74.6905C46.9645 75.1017 47.1679 75.5956 47.1679 76.1723C47.1679 76.7444 46.9622 77.2361 46.551 77.6473C46.1443 78.0585 45.6548 78.2641 45.0827 78.2641C44.5105 78.2641 44.0188 78.0585 43.6076 77.6473C43.2009 77.2361 42.9975 76.7444 42.9975 76.1723C42.9975 75.5956 43.2009 75.1017 43.6076 74.6905C44.0144 74.2793 44.5061 74.0737 45.0827 74.0737ZM45.0693 75.0861C44.7698 75.0861 44.5128 75.1934 44.2982 75.4079C44.0881 75.618 43.9831 75.8728 43.9831 76.1723C43.9831 76.4673 44.0904 76.7198 44.3049 76.9299C44.5195 77.14 44.7743 77.245 45.0693 77.245C45.3687 77.245 45.6235 77.14 45.8336 76.9299C46.0482 76.7198 46.1554 76.4673 46.1554 76.1723C46.1554 75.8683 46.0504 75.6113 45.8403 75.4012C45.6302 75.1911 45.3732 75.0861 45.0693 75.0861Z" fill="#979797"/>
<path d="M33.7986 7.69209H34.3484V12.9486H35.3943V14.0884H34.3484V17.1793H33.0409V14.0884H29.0784V13.5118L33.7986 7.69209ZM33.0409 12.9486V10.2332L30.8753 12.9486H33.0409ZM39.2764 7.69209C40.1346 7.69209 40.843 8.14354 41.4018 9.04645C41.965 9.94489 42.2466 11.0869 42.2466 12.4726C42.2466 13.894 41.965 15.0494 41.4018 15.9389C40.843 16.8284 40.1167 17.2732 39.2227 17.2732C38.3153 17.2732 37.5868 16.8374 37.037 15.9658C36.4872 15.0941 36.2123 13.9387 36.2123 12.4994C36.2123 11.078 36.4961 9.92254 37.0638 9.03304C37.6315 8.13907 38.369 7.69209 39.2764 7.69209ZM39.2898 8.96599H39.2227C38.7087 8.96599 38.2997 9.28335 37.9957 9.91807C37.6963 10.5483 37.5465 11.4043 37.5465 12.486C37.5465 13.5945 37.694 14.4639 37.989 15.0941C38.284 15.7244 38.6908 16.0395 39.2093 16.0395C39.7278 16.0395 40.1368 15.7244 40.4363 15.0941C40.7358 14.4639 40.8855 13.6079 40.8855 12.5262C40.8855 11.44 40.7402 10.5751 40.4497 9.93148C40.1636 9.28782 39.777 8.96599 39.2898 8.96599ZM49.8363 7.67868H50.8622L44.7005 17.2866H43.668L49.8363 7.67868ZM49.5011 13.1028C50.0732 13.1028 50.5649 13.3084 50.9762 13.7197C51.3874 14.1264 51.593 14.6159 51.593 15.188C51.593 15.7601 51.3874 16.2474 50.9762 16.6496C50.5694 17.0475 50.0777 17.2464 49.5011 17.2464C48.92 17.2464 48.4239 17.0475 48.0127 16.6496C47.6059 16.2474 47.4025 15.7601 47.4025 15.188C47.4025 14.6114 47.6081 14.1197 48.0194 13.713C48.4306 13.3062 48.9245 13.1028 49.5011 13.1028ZM49.4877 14.1152C49.1927 14.1152 48.9401 14.2203 48.7301 14.4304C48.5244 14.6405 48.4216 14.893 48.4216 15.188C48.4216 15.4875 48.5244 15.7445 48.7301 15.9591C48.9401 16.1691 49.1927 16.2742 49.4877 16.2742C49.7916 16.2742 50.0487 16.1691 50.2587 15.9591C50.4688 15.749 50.5739 15.492 50.5739 15.188C50.5739 14.8885 50.4688 14.636 50.2587 14.4304C50.0487 14.2203 49.7916 14.1152 49.4877 14.1152ZM45.0827 7.7055C45.6593 7.7055 46.151 7.91111 46.5577 8.32233C46.9645 8.73356 47.1679 9.22748 47.1679 9.80409C47.1679 10.3762 46.9622 10.8679 46.551 11.2791C46.1443 11.6904 45.6548 11.896 45.0827 11.896C44.5105 11.896 44.0188 11.6904 43.6076 11.2791C43.2009 10.8679 42.9975 10.3762 42.9975 9.80409C42.9975 9.22748 43.2009 8.73356 43.6076 8.32233C44.0144 7.91111 44.5061 7.7055 45.0827 7.7055ZM45.0693 8.71792C44.7698 8.71792 44.5128 8.82519 44.2982 9.03974C44.0881 9.24983 43.9831 9.50461 43.9831 9.80409C43.9831 10.0991 44.0904 10.3516 44.3049 10.5617C44.5195 10.7718 44.7743 10.8768 45.0693 10.8768C45.3687 10.8768 45.6235 10.7718 45.8336 10.5617C46.0482 10.3516 46.1554 10.0991 46.1554 9.80409C46.1554 9.50014 46.0504 9.24312 45.8403 9.03304C45.6302 8.82296 45.3732 8.71792 45.0693 8.71792Z" fill="#979797"/>
<path d="M57.6567 12.7664H722.409" stroke="#EFF3F9" stroke-width="1.14428"/>
<path d="M60.2324 79.9386H717.147" stroke="#EFF3F9" stroke-width="1.14428"/>
<path d="M97.7258 169.588V168.462L104.236 165.713V166.913L99.0734 169.032L104.236 171.171V172.371L97.7258 169.588ZM111.591 164.519H112.932V173.886H111.591V164.519ZM116.338 167.034C116.338 166.301 116.613 165.679 117.163 165.17C117.713 164.656 118.385 164.399 119.181 164.399C119.963 164.399 120.623 164.654 121.159 165.163C121.7 165.668 121.97 166.292 121.97 167.034C121.97 167.87 121.581 168.56 120.804 169.105C121.671 169.606 122.104 170.344 122.104 171.318C122.104 172.091 121.823 172.731 121.259 173.236C120.696 173.741 119.986 173.993 119.127 173.993C118.278 173.993 117.565 173.736 116.989 173.222C116.412 172.704 116.124 172.065 116.124 171.305C116.124 170.353 116.566 169.62 117.451 169.105C117.053 168.784 116.767 168.464 116.593 168.147C116.423 167.825 116.338 167.454 116.338 167.034ZM120.636 167.074C120.636 166.667 120.495 166.332 120.214 166.068C119.936 165.805 119.583 165.673 119.154 165.673C118.721 165.673 118.365 165.802 118.088 166.062C117.811 166.321 117.672 166.654 117.672 167.061C117.672 167.449 117.818 167.782 118.108 168.06C118.403 168.337 118.756 168.475 119.168 168.475C119.574 168.475 119.921 168.339 120.207 168.066C120.493 167.789 120.636 167.458 120.636 167.074ZM120.75 171.372V171.238C120.75 170.809 120.596 170.46 120.287 170.192C119.983 169.919 119.588 169.783 119.101 169.783C118.622 169.783 118.231 169.919 117.927 170.192C117.628 170.464 117.478 170.817 117.478 171.251C117.478 171.685 117.632 172.038 117.941 172.31C118.249 172.583 118.649 172.719 119.141 172.719C119.61 172.719 119.995 172.594 120.294 172.344C120.598 172.094 120.75 171.77 120.75 171.372Z" fill="#979797"/>
<rect x="87.0386" y="144.972" width="24.6331" height="1.87088" fill="#2091F9"/>
<rect x="111.672" y="144.972" width="24.6331" height="1.87088" fill="#7F7FD5"/>
<path d="M180.386 165.897H181.727V175.264H180.386V165.897ZM185.133 168.412C185.133 167.678 185.408 167.057 185.958 166.548C186.507 166.034 187.18 165.777 187.976 165.777C188.758 165.777 189.417 166.031 189.954 166.541C190.495 167.046 190.765 167.67 190.765 168.412C190.765 169.247 190.376 169.938 189.598 170.483C190.465 170.984 190.899 171.721 190.899 172.696C190.899 173.469 190.617 174.108 190.054 174.613C189.491 175.119 188.78 175.371 187.922 175.371C187.073 175.371 186.36 175.114 185.783 174.6C185.207 174.082 184.918 173.442 184.918 172.682C184.918 171.73 185.361 170.997 186.246 170.483C185.848 170.161 185.562 169.842 185.388 169.525C185.218 169.203 185.133 168.832 185.133 168.412ZM189.431 168.452C189.431 168.045 189.29 167.71 189.008 167.446C188.731 167.182 188.378 167.05 187.949 167.05C187.515 167.05 187.16 167.18 186.883 167.439C186.606 167.699 186.467 168.032 186.467 168.438C186.467 168.827 186.612 169.16 186.903 169.437C187.198 169.714 187.551 169.853 187.962 169.853C188.369 169.853 188.716 169.717 189.002 169.444C189.288 169.167 189.431 168.836 189.431 168.452ZM189.545 172.75V172.615C189.545 172.186 189.39 171.838 189.082 171.569C188.778 171.297 188.383 171.16 187.895 171.16C187.417 171.16 187.026 171.297 186.722 171.569C186.422 171.842 186.273 172.195 186.273 172.629C186.273 173.062 186.427 173.416 186.735 173.688C187.044 173.961 187.444 174.097 187.936 174.097C188.405 174.097 188.789 173.972 189.089 173.722C189.393 173.471 189.545 173.147 189.545 172.75ZM191.891 171.569H195.23V172.877H191.891V171.569ZM198.61 173.97H202.176V175.264H196.249V175.17L196.813 174.506C197.693 173.416 198.393 172.49 198.911 171.73C199.434 170.971 199.774 170.396 199.93 170.007C200.091 169.618 200.172 169.234 200.172 168.854C200.172 168.327 200.022 167.904 199.723 167.587C199.423 167.265 199.025 167.104 198.529 167.104C198.154 167.104 197.783 167.216 197.416 167.439C197.054 167.658 196.728 167.969 196.437 168.371V166.668C197.166 166.074 197.917 165.777 198.69 165.777C199.508 165.777 200.181 166.049 200.708 166.595C201.24 167.14 201.506 167.833 201.506 168.673C201.506 169.048 201.439 169.451 201.305 169.88C201.175 170.305 200.943 170.796 200.608 171.355C200.272 171.909 199.702 172.667 198.898 173.628L198.61 173.97ZM205.422 165.897H206.763V175.264H205.422V165.897Z" fill="#979797"/>
<rect x="168.928" y="146.2" width="24.6331" height="1.87088" fill="#2091F9"/>
<path d="M193.561 86.6154C193.561 83.4556 196.123 80.894 199.282 80.894H212.473C215.633 80.894 218.194 83.4556 218.194 86.6154V148.071H193.561V86.6154Z" fill="#7F7FD5"/>
<path d="M260.038 172.676H263.605V173.97H257.678V173.876L258.241 173.212C259.122 172.122 259.821 171.196 260.34 170.436C260.863 169.677 261.203 169.102 261.359 168.713C261.52 168.324 261.6 167.94 261.6 167.56C261.6 167.033 261.451 166.61 261.151 166.293C260.852 165.971 260.454 165.81 259.958 165.81C259.582 165.81 259.211 165.922 258.845 166.145C258.483 166.364 258.156 166.675 257.866 167.077V165.374C258.594 164.78 259.345 164.483 260.119 164.483C260.937 164.483 261.609 164.755 262.137 165.301C262.669 165.846 262.935 166.539 262.935 167.379C262.935 167.755 262.868 168.157 262.734 168.586C262.604 169.011 262.372 169.502 262.036 170.061C261.701 170.615 261.131 171.373 260.327 172.334L260.038 172.676ZM266.85 164.603H268.191V173.97H266.85V164.603ZM271.49 170.276H274.829V171.583H271.49V170.276ZM278.208 172.676H281.775V173.97H275.848V173.876L276.411 173.212C277.292 172.122 277.991 171.196 278.51 170.436C279.033 169.677 279.373 169.102 279.529 168.713C279.69 168.324 279.77 167.94 279.77 167.56C279.77 167.033 279.621 166.61 279.321 166.293C279.022 165.971 278.624 165.81 278.128 165.81C277.752 165.81 277.381 165.922 277.015 166.145C276.653 166.364 276.326 166.675 276.036 167.077V165.374C276.764 164.78 277.515 164.483 278.289 164.483C279.107 164.483 279.779 164.755 280.307 165.301C280.839 165.846 281.105 166.539 281.105 167.379C281.105 167.755 281.038 168.157 280.903 168.586C280.774 169.011 280.541 169.502 280.206 170.061C279.871 170.615 279.301 171.373 278.496 172.334L278.208 172.676ZM287.119 164.483H287.669V169.739H288.715V170.879H287.669V173.97H286.361V170.879H282.399V170.302L287.119 164.483ZM286.361 169.739V167.024L284.195 169.739H286.361Z" fill="#979797"/>
<rect x="248.526" y="144.543" width="24.6331" height="1.87088" fill="#2091F9"/>
<path d="M273.16 85.4713C273.16 82.3114 275.721 79.7499 278.881 79.7499H292.071C295.231 79.7499 297.793 82.3114 297.793 85.4713V146.414H273.16V85.4713Z" fill="#7F7FD5"/>
<path d="M341.927 173.364H345.494V174.658H339.567V174.564L340.131 173.9C341.011 172.809 341.711 171.884 342.229 171.124C342.752 170.364 343.092 169.79 343.248 169.401C343.409 169.012 343.49 168.628 343.49 168.248C343.49 167.721 343.34 167.298 343.04 166.981C342.741 166.659 342.343 166.498 341.847 166.498C341.471 166.498 341.1 166.61 340.734 166.833C340.372 167.052 340.046 167.363 339.755 167.765V166.062C340.484 165.468 341.235 165.17 342.008 165.17C342.826 165.17 343.499 165.443 344.026 165.988C344.558 166.534 344.824 167.227 344.824 168.067C344.824 168.442 344.757 168.845 344.623 169.274C344.493 169.698 344.261 170.19 343.925 170.749C343.59 171.303 343.02 172.061 342.216 173.022L341.927 173.364ZM350.838 165.17H351.388V170.427H352.434V171.567H351.388V174.658H350.08V171.567H346.118V170.99L350.838 165.17ZM350.08 170.427V167.712L347.915 170.427H350.08ZM353.379 170.963H356.718V172.271H353.379V170.963ZM360.097 173.364H363.664V174.658H357.737V174.564L358.3 173.9C359.181 172.809 359.881 171.884 360.399 171.124C360.922 170.364 361.262 169.79 361.418 169.401C361.579 169.012 361.66 168.628 361.66 168.248C361.66 167.721 361.51 167.298 361.21 166.981C360.911 166.659 360.513 166.498 360.017 166.498C359.641 166.498 359.27 166.61 358.904 166.833C358.542 167.052 358.216 167.363 357.925 167.765V166.062C358.654 165.468 359.404 165.17 360.178 165.17C360.996 165.17 361.668 165.443 362.196 165.988C362.728 166.534 362.994 167.227 362.994 168.067C362.994 168.442 362.927 168.845 362.793 169.274C362.663 169.698 362.431 170.19 362.095 170.749C361.76 171.303 361.19 172.061 360.386 173.022L360.097 173.364ZM364.804 165.291H370.865L366.621 174.765L365.428 174.262L368.86 166.572H364.804V165.291Z" fill="#979797"/>
<path d="M330.416 38.5571C330.416 35.3973 332.978 32.8357 336.137 32.8357H349.328C352.488 32.8357 355.049 35.3972 355.049 38.5571V147.465H330.416V38.5571Z" fill="#2091F9"/>
<path d="M355.053 85.4712C355.053 82.3113 357.614 79.7498 360.774 79.7498H374.513C377.673 79.7498 380.235 82.3113 380.235 85.4712V147.26H355.053V85.4712Z" fill="#7F7FD5"/>
<path d="M421.526 172.676H425.092V173.97H419.165V173.876L419.729 173.212C420.609 172.122 421.309 171.196 421.827 170.436C422.35 169.677 422.69 169.102 422.846 168.713C423.007 168.324 423.088 167.94 423.088 167.56C423.088 167.033 422.938 166.61 422.639 166.293C422.339 165.971 421.941 165.81 421.445 165.81C421.07 165.81 420.699 165.922 420.332 166.145C419.97 166.364 419.644 166.675 419.353 167.077V165.374C420.082 164.78 420.833 164.483 421.606 164.483C422.424 164.483 423.097 164.755 423.624 165.301C424.156 165.846 424.422 166.539 424.422 167.379C424.422 167.755 424.355 168.157 424.221 168.586C424.091 169.011 423.859 169.502 423.524 170.061C423.188 170.615 422.618 171.373 421.814 172.334L421.526 172.676ZM426.232 164.603H432.293L428.049 174.077L426.856 173.574L430.289 165.884H426.232V164.603ZM432.977 170.276H436.316V171.583H432.977V170.276ZM439.34 168.519H439.421C440.006 168.519 440.451 168.398 440.755 168.157C441.063 167.915 441.217 167.565 441.217 167.104C441.217 166.688 441.068 166.351 440.768 166.092C440.473 165.833 440.084 165.703 439.602 165.703C439.114 165.703 438.574 165.855 437.979 166.159V164.878C438.524 164.606 439.119 164.469 439.762 164.469C440.625 164.469 441.305 164.695 441.801 165.146C442.301 165.598 442.552 166.215 442.552 166.997C442.552 167.471 442.456 167.871 442.263 168.197C442.071 168.519 441.765 168.796 441.345 169.028C441.711 169.171 441.98 169.348 442.149 169.558C442.319 169.764 442.451 170.014 442.545 170.309C442.639 170.604 442.686 170.917 442.686 171.248C442.686 172.066 442.413 172.743 441.868 173.279C441.322 173.811 440.634 174.077 439.803 174.077C439.092 174.077 438.406 173.905 437.744 173.561V172.099C438.451 172.542 439.137 172.763 439.803 172.763C440.254 172.763 440.616 172.629 440.889 172.361C441.166 172.093 441.305 171.737 441.305 171.295C441.305 170.924 441.191 170.6 440.963 170.322C440.829 170.166 440.679 170.052 440.513 169.981C440.353 169.905 440.002 169.833 439.461 169.766L439.34 169.753V168.519ZM447.218 164.483C448.076 164.483 448.785 164.934 449.344 165.837C449.907 166.735 450.188 167.877 450.188 169.263C450.188 170.685 449.907 171.84 449.344 172.729C448.785 173.619 448.059 174.064 447.165 174.064C446.257 174.064 445.529 173.628 444.979 172.756C444.429 171.885 444.154 170.729 444.154 169.29C444.154 167.869 444.438 166.713 445.006 165.824C445.573 164.93 446.311 164.483 447.218 164.483ZM447.232 165.757H447.165C446.651 165.757 446.242 166.074 445.938 166.709C445.638 167.339 445.488 168.195 445.488 169.277C445.488 170.385 445.636 171.254 445.931 171.885C446.226 172.515 446.633 172.83 447.151 172.83C447.67 172.83 448.079 172.515 448.378 171.885C448.678 171.254 448.827 170.398 448.827 169.317C448.827 168.231 448.682 167.366 448.392 166.722C448.105 166.078 447.719 165.757 447.232 165.757Z" fill="#979797"/>
<path d="M410.014 85.4711C410.014 82.3113 412.575 79.7498 415.735 79.7498H428.925C432.085 79.7498 434.647 82.3113 434.647 85.4712V146.927H410.014V85.4711Z" fill="#2091F9"/>
<rect x="434.647" y="144.121" width="24.6331" height="1.87088" fill="#7F7FD5"/>
<path d="M501.914 168.435H501.995C502.58 168.435 503.025 168.314 503.329 168.073C503.637 167.832 503.792 167.481 503.792 167.02C503.792 166.605 503.642 166.267 503.342 166.008C503.047 165.749 502.659 165.619 502.176 165.619C501.689 165.619 501.148 165.771 500.553 166.075V164.794C501.099 164.522 501.693 164.385 502.337 164.385C503.199 164.385 503.879 164.611 504.375 165.063C504.876 165.514 505.126 166.131 505.126 166.913C505.126 167.387 505.03 167.787 504.838 168.113C504.645 168.435 504.339 168.712 503.919 168.945C504.286 169.088 504.554 169.264 504.724 169.474C504.893 169.68 505.025 169.93 505.119 170.225C505.213 170.52 505.26 170.833 505.26 171.164C505.26 171.982 504.987 172.659 504.442 173.195C503.897 173.727 503.208 173.993 502.377 173.993C501.666 173.993 500.98 173.821 500.319 173.477V172.015C501.025 172.458 501.711 172.679 502.377 172.679C502.828 172.679 503.19 172.545 503.463 172.277C503.74 172.009 503.879 171.653 503.879 171.211C503.879 170.84 503.765 170.516 503.537 170.239C503.403 170.082 503.253 169.968 503.088 169.897C502.927 169.821 502.576 169.749 502.035 169.682L501.914 169.669V168.435ZM509.792 164.399C510.651 164.399 511.359 164.85 511.918 165.753C512.481 166.652 512.763 167.794 512.763 169.179C512.763 170.601 512.481 171.756 511.918 172.646C511.359 173.535 510.633 173.98 509.739 173.98C508.831 173.98 508.103 173.544 507.553 172.672C507.003 171.801 506.728 170.645 506.728 169.206C506.728 167.785 507.012 166.629 507.58 165.74C508.148 164.846 508.885 164.399 509.792 164.399ZM509.806 165.673H509.739C509.225 165.673 508.816 165.99 508.512 166.625C508.212 167.255 508.063 168.111 508.063 169.193C508.063 170.301 508.21 171.171 508.505 171.801C508.8 172.431 509.207 172.746 509.725 172.746C510.244 172.746 510.653 172.431 510.952 171.801C511.252 171.171 511.402 170.315 511.402 169.233C511.402 168.147 511.256 167.282 510.966 166.638C510.68 165.994 510.293 165.673 509.806 165.673ZM513.721 170.192H517.06V171.499H513.721V170.192ZM520.084 168.435H520.165C520.75 168.435 521.195 168.314 521.499 168.073C521.807 167.832 521.962 167.481 521.962 167.02C521.962 166.605 521.812 166.267 521.512 166.008C521.217 165.749 520.828 165.619 520.346 165.619C519.859 165.619 519.318 165.771 518.723 166.075V164.794C519.268 164.522 519.863 164.385 520.507 164.385C521.369 164.385 522.049 164.611 522.545 165.063C523.046 165.514 523.296 166.131 523.296 166.913C523.296 167.387 523.2 167.787 523.008 168.113C522.815 168.435 522.509 168.712 522.089 168.945C522.455 169.088 522.724 169.264 522.894 169.474C523.063 169.68 523.195 169.93 523.289 170.225C523.383 170.52 523.43 170.833 523.43 171.164C523.43 171.982 523.157 172.659 522.612 173.195C522.067 173.727 521.378 173.993 520.547 173.993C519.836 173.993 519.15 173.821 518.489 173.477V172.015C519.195 172.458 519.881 172.679 520.547 172.679C520.998 172.679 521.36 172.545 521.633 172.277C521.91 172.009 522.049 171.653 522.049 171.211C522.049 170.84 521.935 170.516 521.707 170.239C521.573 170.082 521.423 169.968 521.258 169.897C521.097 169.821 520.746 169.749 520.205 169.682L520.084 169.669V168.435ZM525.864 164.519H530.021V165.713H527.084V168.08C527.178 168.071 527.274 168.066 527.372 168.066C528.28 168.066 529.026 168.343 529.612 168.898C530.197 169.447 530.49 170.149 530.49 171.003C530.49 171.883 530.199 172.601 529.618 173.155C529.042 173.705 528.293 173.98 527.372 173.98C526.612 173.98 525.875 173.797 525.16 173.43V172.049C525.835 172.487 526.494 172.706 527.138 172.706C527.701 172.706 528.172 172.543 528.552 172.217C528.937 171.886 529.129 171.481 529.129 171.003C529.129 170.507 528.921 170.093 528.505 169.763C528.09 169.427 527.571 169.26 526.95 169.26C526.418 169.26 526.056 169.304 525.864 169.394V164.519Z" fill="#979797"/>
<rect x="490.758" y="144.972" width="24.6331" height="1.87088" fill="#2091F9"/>
<rect x="515.391" y="144.972" width="24.6331" height="1.87088" fill="#7F7FD5"/>
<path d="M585.47 168.708H585.55C586.136 168.708 586.581 168.588 586.885 168.346C587.193 168.105 587.347 167.754 587.347 167.294C587.347 166.878 587.198 166.54 586.898 166.281C586.603 166.022 586.214 165.892 585.731 165.892C585.244 165.892 584.703 166.044 584.109 166.348V165.068C584.654 164.795 585.249 164.659 585.892 164.659C586.755 164.659 587.435 164.884 587.931 165.336C588.431 165.787 588.682 166.404 588.682 167.186C588.682 167.66 588.585 168.06 588.393 168.386C588.201 168.708 587.895 168.985 587.475 169.218C587.841 169.361 588.109 169.537 588.279 169.747C588.449 169.953 588.581 170.203 588.675 170.498C588.769 170.793 588.816 171.106 588.816 171.437C588.816 172.255 588.543 172.932 587.998 173.469C587.452 174.001 586.764 174.266 585.933 174.266C585.222 174.266 584.536 174.094 583.874 173.75V172.289C584.581 172.731 585.267 172.952 585.933 172.952C586.384 172.952 586.746 172.818 587.019 172.55C587.296 172.282 587.435 171.926 587.435 171.484C587.435 171.113 587.321 170.789 587.093 170.512C586.958 170.355 586.809 170.241 586.643 170.17C586.482 170.094 586.132 170.022 585.591 169.955L585.47 169.942V168.708ZM591.25 164.793H595.406V165.986H592.47V168.353C592.564 168.344 592.66 168.339 592.758 168.339C593.665 168.339 594.412 168.617 594.997 169.171C595.583 169.721 595.876 170.422 595.876 171.276C595.876 172.157 595.585 172.874 595.004 173.428C594.428 173.978 593.679 174.253 592.758 174.253C591.998 174.253 591.261 174.07 590.546 173.703V172.322C591.22 172.76 591.88 172.979 592.523 172.979C593.087 172.979 593.558 172.816 593.938 172.49C594.323 172.159 594.515 171.754 594.515 171.276C594.515 170.78 594.307 170.367 593.891 170.036C593.475 169.701 592.957 169.533 592.336 169.533C591.804 169.533 591.442 169.578 591.25 169.667V164.793ZM597.277 170.465H600.616V171.772H597.277V170.465ZM606.04 164.672H606.59V169.928H607.636V171.068H606.59V174.159H605.283V171.068H601.32V170.492L606.04 164.672ZM605.283 169.928V167.213L603.117 169.928H605.283ZM611.518 164.672C612.376 164.672 613.085 165.123 613.643 166.026C614.207 166.925 614.488 168.067 614.488 169.452C614.488 170.874 614.207 172.029 613.643 172.919C613.085 173.808 612.358 174.253 611.464 174.253C610.557 174.253 609.828 173.817 609.279 172.946C608.729 172.074 608.454 170.919 608.454 169.479C608.454 168.058 608.738 166.902 609.305 166.013C609.873 165.119 610.611 164.672 611.518 164.672ZM611.531 165.946H611.464C610.95 165.946 610.541 166.263 610.237 166.898C609.938 167.528 609.788 168.384 609.788 169.466C609.788 170.574 609.936 171.444 610.231 172.074C610.526 172.704 610.932 173.019 611.451 173.019C611.969 173.019 612.378 172.704 612.678 172.074C612.977 171.444 613.127 170.588 613.127 169.506C613.127 168.42 612.982 167.555 612.691 166.911C612.405 166.268 612.019 165.946 611.531 165.946Z" fill="#979797"/>
<path d="M570.356 118.654C570.356 115.494 572.918 112.933 576.078 112.933H589.268C592.428 112.933 594.99 115.494 594.99 118.654V147.116H570.356V118.654Z" fill="#2091F9"/>
<rect x="597.279" y="145.246" width="24.6331" height="1.87088" fill="#7F7FD5"/>
<path d="M675.311 170.1L668.801 172.883V171.682L673.957 169.544L668.801 167.425V166.225L675.311 168.974V170.1ZM680.943 164.911H681.493V170.167H682.539V171.307H681.493V174.398H680.185V171.307H676.223V170.73L680.943 164.911ZM680.185 170.167V167.452L678.02 170.167H680.185ZM686.421 164.911C687.279 164.911 687.987 165.362 688.546 166.265C689.109 167.163 689.391 168.305 689.391 169.691C689.391 171.112 689.109 172.268 688.546 173.157C687.987 174.047 687.261 174.492 686.367 174.492C685.46 174.492 684.731 174.056 684.181 173.184C683.632 172.313 683.357 171.157 683.357 169.718C683.357 168.296 683.641 167.141 684.208 166.252C684.776 165.358 685.513 164.911 686.421 164.911ZM686.434 166.184H686.367C685.853 166.184 685.444 166.502 685.14 167.137C684.841 167.767 684.691 168.623 684.691 169.704C684.691 170.813 684.838 171.682 685.133 172.313C685.428 172.943 685.835 173.258 686.354 173.258C686.872 173.258 687.281 172.943 687.581 172.313C687.88 171.682 688.03 170.826 688.03 169.745C688.03 168.659 687.885 167.794 687.594 167.15C687.308 166.506 686.921 166.184 686.434 166.184Z" fill="#979797"/>
<rect x="656.203" y="145.485" width="24.6331" height="1.87088" fill="#2091F9"/>
<path d="M680.836 126.664C680.836 123.504 683.397 120.943 686.557 120.943H699.748C702.907 120.943 705.469 123.504 705.469 126.664V147.356H680.836V126.664Z" fill="#7F7FD5"/>
<path d="M53.4155 13.2928H59.8392" stroke="#979797" stroke-width="1.14428"/>
<path d="M53.4155 80.4678H59.8392" stroke="#979797" stroke-width="1.14428"/>
<path d="M53.4155 148.112H59.8392" stroke="#979797" stroke-width="1.14428"/>
<path d="M153.671 12.7664L153.671 147.791" stroke="#EFF3F9" stroke-width="1.14428"/>
<path d="M234.854 12.7664L234.854 147.791" stroke="#EFF3F9" stroke-width="1.14428"/>
<path d="M316.038 12.7664L316.038 147.791" stroke="#EFF3F9" stroke-width="1.14428"/>
<path d="M397.222 12.7664L397.222 147.791" stroke="#EFF3F9" stroke-width="1.14428"/>
<path d="M478.406 12.7664L478.406 147.791" stroke="#EFF3F9" stroke-width="1.14428"/>
<path d="M559.589 12.7664L559.589 147.791" stroke="#EFF3F9" stroke-width="1.14428"/>
<path d="M640.772 12.7664L640.772 147.791" stroke="#EFF3F9" stroke-width="1.14428"/>
<path d="M721.957 12.7664L721.957 147.791" stroke="#EFF3F9" stroke-width="1.14428"/>
</g>
<defs>
<clipPath id="clip0">
<rect width="722.04" height="191.095" fill="white" transform="translate(0.442383 0.179321)"/>
</clipPath>
</defs>
</svg>
