<svg width="73" height="25" viewBox="0 0 73 25" fill="none" xmlns="http://www.w3.org/2000/svg">
<path d="M0 21.8968H40.9634V24.3192H0V21.8968ZM41.3681 0H72.9859V2.43415H41.3681V0ZM18.9198 5.67366L14.0477 18.6532H17.1686L18.0682 16.2694H22.2486L23.2198 18.6532H26.3022L21.3842 5.67366H18.9198ZM21.4953 13.9175H18.8166L20.1678 10.0432L21.4953 13.9175ZM42.2437 5.67366L37.3709 18.6532H40.4924L41.3927 16.2694H45.5732L46.5432 18.6532H49.626L44.7084 5.67366H42.2437ZM44.8189 13.9175H42.14L43.4921 10.0663L44.8189 13.9175ZM30.0072 18.6532V14.1842H31.1052L33.3905 18.6532H36.7067L34.0345 13.8532C34.0345 13.8532 36.821 12.8885 36.821 9.93935C36.821 5.66677 32.637 5.68076 31.3031 5.68076H27.1712V18.6532H30.0072ZM30.0072 8.30935H32.4377C32.6983 8.30935 33.927 8.61917 33.927 9.93124C33.927 11.2431 32.6912 11.5545 32.4377 11.5545H30.0072V8.30935ZM66.4927 15.9362V13.377H72.5714V10.9511H66.4927V8.39107H72.9938V5.67812H63.6694V18.6532H72.994V15.9362H66.4927ZM56.365 13.3776H59.6331C59.3532 14.3973 58.465 16.067 56.1062 16.0416C54.0324 16.0193 52.1968 14.4396 52.1968 12.1675C52.1968 9.79458 54.0227 8.18587 56.2179 8.18587C58.0856 8.18587 59.231 9.63764 59.231 9.63764L61.4109 7.92553C61.4109 7.92553 59.7255 5.37135 56.1168 5.37135C52.1836 5.37135 49.2716 8.42574 49.2716 12.2624C49.2716 15.9285 52.2775 18.9093 55.9712 18.9093C58.2206 18.9093 59.3926 18.1498 60.058 17.5135V18.6575H62.4472V10.9507H56.365V13.3776ZM7.29656 13.3776H10.5649C10.2851 14.3973 9.39656 16.067 7.03804 16.0416C4.9642 16.0193 3.12881 14.4396 3.12881 12.1675C3.12881 9.79458 4.95427 8.18587 7.14976 8.18587C9.0174 8.18587 10.1628 9.63764 10.1628 9.63764L12.3427 7.92553C12.3427 7.92553 10.6575 5.37135 7.04858 5.37135C3.11542 5.37135 0.203369 8.42574 0.203369 12.2624C0.203369 15.9285 3.20951 18.9093 6.903 18.9093C9.15243 18.9093 10.3244 18.1498 10.9899 17.5135V18.6575H13.379V10.9507H7.29656V13.3776Z" fill="#515151"/>
</svg>
