<svg width="806" height="268" viewBox="0 0 806 268" fill="none" xmlns="http://www.w3.org/2000/svg">
<path fill-rule="evenodd" clip-rule="evenodd" d="M0 0.674697C0 1.04578 0.303614 1.34939 0.674697 1.34939C1.04578 1.34939 1.34939 1.04578 1.34939 0.674697C1.34939 0.303614 1.04578 0 0.674697 0C0.303614 0 0 0.303614 0 0.674697ZM4.72288 0.674697C4.72288 1.04578 5.02649 1.34939 5.39757 1.34939C5.76866 1.34939 6.07227 1.04578 6.07227 0.674697C6.07227 0.303614 5.76866 0 5.39757 0C5.02649 0 4.72288 0.303614 4.72288 0.674697ZM6.80296 0.242222C7.60922 0.93716 10.7951 1.29273 10.7951 0.687524C10.7951 0.309694 9.8337 0 8.65838 0C7.48373 0 6.64846 0.109307 6.80296 0.242222ZM14.1686 0.674697C14.1686 1.04578 14.4722 1.34939 14.8433 1.34939C15.2144 1.34939 15.518 1.04578 15.518 0.674697C15.518 0.303614 15.2144 0 14.8433 0C14.4722 0 14.1686 0.303614 14.1686 0.674697ZM18.8915 0.674697C18.8915 1.04578 19.1951 1.34939 19.5662 1.34939C19.9373 1.34939 20.2409 1.04578 20.2409 0.674697C20.2409 0.303614 19.9373 0 19.5662 0C19.1951 0 18.8915 0.303614 18.8915 0.674697ZM23.6144 8.43371V16.8674H49.2529H74.8913V18.5542C74.8913 19.4819 75.2125 20.2409 75.6045 20.2409C76.6375 20.2409 76.1024 14.5262 75.06 14.4216C74.5965 14.3751 65.5637 14.2995 54.9878 14.253L35.7589 14.1686V8.77106V3.37348H79.2769H122.795V8.93973L122.795 14.506L104.915 14.3704L87.0359 14.2354V16.5631C87.0359 17.8437 87.0129 19.1115 86.9853 19.3807C86.9576 19.6499 87.2612 19.9785 87.66 20.1114C88.0587 20.2443 88.3853 19.5689 88.3853 18.6102V16.8674H95.7644H103.143L103.355 19.0602C103.517 20.7409 103.92 21.3036 105.084 21.4689C106.415 21.6578 106.602 21.3872 106.602 19.2761V16.8674H121.108H135.614V8.29876C135.614 1.63411 135.434 -0.0897429 134.804 0.539749C133.755 1.58958 130.891 1.58958 130.891 0.539749C130.891 -0.0897429 130.711 -0.0897429 130.082 0.539749C129.021 1.60037 126.388 1.57947 125.887 0.506023C125.573 -0.168674 125.415 -0.168674 125.1 0.506023C124.884 0.970214 123.998 1.34939 123.132 1.34939C122.267 1.34939 121.381 0.970214 121.164 0.506023C120.85 -0.168674 120.692 -0.168674 120.377 0.506023C119.876 1.57947 117.243 1.60037 116.183 0.539749C115.553 -0.0897429 115.373 -0.0897429 115.373 0.539749C115.373 0.985049 114.675 1.34939 113.821 1.34939C112.968 1.34939 111.905 0.985049 111.46 0.539749C110.83 -0.0897429 110.65 -0.0897429 110.65 0.539749C110.65 1.54977 107.804 1.60645 106.813 0.615994C106.285 0.0877068 105.953 0.0877068 105.626 0.615994C105.01 1.6132 101.879 1.54977 101.879 0.539749C101.879 -0.0897429 101.699 -0.0897429 101.07 0.539749C100.624 0.985049 99.5616 1.34939 98.7081 1.34939C97.8546 1.34939 97.1563 0.985049 97.1563 0.539749C97.1563 -0.0897429 96.9762 -0.0897429 96.3467 0.539749C95.2861 1.60037 92.6534 1.57947 92.1521 0.506023C91.8377 -0.168674 91.6798 -0.168674 91.3654 0.506023C91.1488 0.970214 90.2629 1.34939 89.3973 1.34939C88.5317 1.34939 87.6458 0.970214 87.4292 0.506023C87.1148 -0.168674 86.9569 -0.168674 86.6425 0.506023C86.1412 1.57947 83.5086 1.60037 82.4479 0.539749C81.8185 -0.0897429 81.6383 -0.0897429 81.6383 0.539749C81.6383 1.58958 78.7749 1.58958 77.7251 0.539749C77.0956 -0.0897429 76.9154 -0.0897429 76.9154 0.539749C76.9154 1.54977 74.0689 1.60645 73.0784 0.615994C72.5501 0.0877068 72.2182 0.0877068 71.8916 0.615994C71.2749 1.6132 68.1444 1.54977 68.1444 0.539749C68.1444 -0.0897429 67.9642 -0.0897429 67.3347 0.539749C66.8894 0.985049 65.8268 1.34939 64.9733 1.34939C64.1198 1.34939 63.4215 0.985049 63.4215 0.539749C63.4215 -0.0897429 63.2413 -0.0897429 62.6119 0.539749C62.1666 0.985049 61.1039 1.34939 60.2504 1.34939C59.3969 1.34939 58.6986 0.985049 58.6986 0.539749C58.6986 -0.0897429 58.5185 -0.0897429 57.889 0.539749C56.8284 1.60037 54.1957 1.57947 53.6944 0.506023C53.38 -0.168674 53.2221 -0.168674 52.9077 0.506023C52.4064 1.57947 49.7737 1.60037 48.7131 0.539749C48.0836 -0.0897429 47.9035 -0.0897429 47.9035 0.539749C47.9035 1.50794 44.785 1.63276 44.2014 0.688183C43.9437 0.27257 43.3047 0.332616 42.4748 0.850783C41.5033 1.45734 40.8448 1.47962 39.9724 0.934462C39.1128 0.398078 38.4651 0.398067 37.613 0.9358C36.7366 1.48905 36.072 1.44857 34.9958 0.776577C33.8259 0.0452053 33.4528 0.0391413 33.0183 0.74285C32.5865 1.44049 32.1223 1.44587 30.6393 0.770503C29.4498 0.228721 28.6496 0.168678 28.3818 0.602508C27.9365 1.32308 25.9799 1.24078 25.208 0.469599C23.9166 -0.822446 23.6144 0.687516 23.6144 8.43371ZM139.325 0.674697C139.095 1.04578 139.23 1.34939 139.622 1.34939C140.015 1.34939 140.337 1.04578 140.337 0.674697C140.337 0.303614 140.203 0 140.039 0C139.875 0 139.554 0.303614 139.325 0.674697ZM144.385 0.674697C144.385 1.04578 144.707 1.34939 145.1 1.34939C145.492 1.34939 145.627 1.04578 145.397 0.674697C145.168 0.303614 144.847 0 144.683 0C144.519 0 144.385 0.303614 144.385 0.674697ZM149.108 0.674697C149.108 1.04578 149.43 1.34939 149.822 1.34939C150.215 1.34939 150.349 1.04578 150.12 0.674697C149.891 0.303614 149.569 0 149.406 0C149.242 0 149.108 0.303614 149.108 0.674697ZM153.831 0.674697C153.831 1.04578 154.153 1.34939 154.545 1.34939C154.938 1.34939 155.072 1.04578 154.843 0.674697C154.613 0.303614 154.292 0 154.128 0C153.964 0 153.831 0.303614 153.831 0.674697ZM187.566 0.674697C187.566 1.04578 187.887 1.34939 188.28 1.34939C188.673 1.34939 188.807 1.04578 188.578 0.674697C188.348 0.303614 188.027 0 187.863 0C187.699 0 187.566 0.303614 187.566 0.674697ZM202.409 0.674697C202.409 1.04578 202.731 1.34939 203.124 1.34939C203.516 1.34939 203.65 1.04578 203.421 0.674697C203.192 0.303614 202.87 0 202.707 0C202.543 0 202.409 0.303614 202.409 0.674697ZM206.52 1.23199C206.069 2.07536 206.146 3.29387 206.766 5.09801C207.573 7.4446 207.698 7.54986 207.908 6.05878C208.038 5.1385 208.574 4.38553 209.1 4.38553C209.626 4.38553 210.134 3.99826 210.23 3.52529C210.326 3.05233 210.249 2.9781 210.06 3.36066C209.492 4.50832 208.481 3.41127 208.481 1.64694C208.481 -0.294836 207.454 -0.512777 206.52 1.23199ZM209.156 0.674697C209.156 1.04578 209.46 1.34939 209.831 1.34939C210.202 1.34939 210.505 1.04578 210.505 0.674697C210.505 0.303614 210.202 0 209.831 0C209.46 0 209.156 0.303614 209.156 0.674697ZM252.337 0.674697C252.337 1.04578 252.64 1.34939 253.011 1.34939C253.382 1.34939 253.686 1.04578 253.686 0.674697C253.686 0.303614 253.382 0 253.011 0C252.64 0 252.337 0.303614 252.337 0.674697ZM276.626 0.674697C276.626 1.04578 276.947 1.34939 277.34 1.34939C277.733 1.34939 277.867 1.04578 277.638 0.674697C277.408 0.303614 277.087 0 276.923 0C276.759 0 276.626 0.303614 276.626 0.674697ZM297.541 1.59094C297.541 3.40047 296.539 4.52451 295.962 3.36066C295.774 2.9781 295.697 3.05233 295.792 3.52529C295.888 3.99826 296.397 4.38553 296.923 4.38553C297.448 4.38553 297.976 5.06832 298.094 5.9036C298.495 8.72113 299.228 7.44731 299.228 3.93551C299.228 1.7468 298.914 0.345445 298.385 0.168674C297.858 -0.00674696 297.541 0.528289 297.541 1.59094ZM302.601 0.674697C302.372 1.04578 302.506 1.34939 302.899 1.34939C303.292 1.34939 303.613 1.04578 303.613 0.674697C303.613 0.303614 303.48 0 303.316 0C303.152 0 302.831 0.303614 302.601 0.674697ZM447.661 0.674697C447.432 1.04578 447.566 1.34939 447.959 1.34939C448.351 1.34939 448.673 1.04578 448.673 0.674697C448.673 0.303614 448.54 0 448.376 0C448.212 0 447.891 0.303614 447.661 0.674697ZM803.199 0.719892C802.473 1.89454 803.299 2.1435 804.225 1.02823C804.757 0.387267 804.809 0 804.361 0C803.967 0 803.443 0.323845 803.199 0.719892ZM299.565 2.69879C299.565 3.06987 299.869 3.37348 300.24 3.37348C300.611 3.37348 300.915 3.06987 300.915 2.69879C300.915 2.3277 300.611 2.02409 300.24 2.02409C299.869 2.02409 299.565 2.3277 299.565 2.69879ZM228.321 3.59748C228.542 4.2769 228.753 5.49136 228.791 6.29627C228.835 7.2206 229.064 6.89202 229.414 5.40229C229.719 4.1062 229.839 2.91671 229.682 2.75951C229.526 2.6023 229.392 2.9039 229.387 3.42949C229.378 4.22023 229.25 4.21078 228.648 3.37348C228.043 2.53146 227.987 2.56925 228.321 3.59748ZM252.816 4.72288C253.322 7.79477 253.463 7.89867 253.82 5.46437C253.983 4.35382 253.894 3.58263 253.621 3.75063C253.349 3.91863 252.969 3.67508 252.777 3.20887C252.585 2.74265 252.603 3.42409 252.816 4.72288ZM276.399 3.93483C276.524 4.42871 276.626 5.46638 276.626 6.23959C276.626 8.26907 277.165 7.42909 277.614 4.70264C277.86 3.20818 277.78 2.69407 277.394 3.28105C277.061 3.78708 276.65 3.93888 276.481 3.6184C276.311 3.29792 276.274 3.44028 276.399 3.93483ZM202.859 4.4982C202.611 4.74514 202.418 5.4286 202.429 6.01627C202.446 6.89337 202.578 6.86436 203.166 5.85299C203.893 4.60345 203.682 3.67507 202.859 4.4982ZM302.695 5.06023C302.908 5.61685 303.203 6.07227 303.348 6.07227C303.494 6.07227 303.613 5.61685 303.613 5.06023C303.613 4.5036 303.319 4.04818 302.96 4.04818C302.601 4.04818 302.481 4.5036 302.695 5.06023ZM77.2251 5.44277C76.9802 5.83814 76.9789 6.36104 77.2217 6.60393C77.4646 6.84682 77.9167 6.63563 78.2264 6.13501C78.8626 5.10475 80.2889 5.70727 80.2889 7.00673C80.2889 7.47632 79.5299 8.57405 78.6022 9.44575C76.3271 11.5832 76.4755 12.1445 79.3167 12.1445C80.7457 12.1445 81.5492 11.8713 81.3009 11.4698C81.0716 11.0988 80.2187 10.7857 79.4057 10.7749C78.084 10.756 78.0516 10.6818 79.1001 10.0712C80.9764 8.97819 81.8724 6.82996 80.9278 5.69174C79.9839 4.55488 77.862 4.41183 77.2251 5.44277ZM83.8311 6.9622C81.9676 9.69877 81.9453 10.1205 83.6624 10.1205C84.412 10.1205 85.0118 10.5705 85.0118 11.1325C85.0118 12.5278 86.2107 12.411 86.4847 10.9901C86.8078 9.31149 86.2944 4.72219 85.7843 4.72759C85.5448 4.73029 84.6663 5.7356 83.8311 6.9622ZM153.831 6.44942C153.831 7.02763 154.134 7.31371 154.506 7.08432C154.877 6.85492 155.18 6.38196 155.18 6.03247C155.18 5.68298 154.877 5.39757 154.506 5.39757C154.134 5.39757 153.831 5.8712 153.831 6.44942ZM177.876 6.40962C177.642 7.02022 177.872 7.42166 178.457 7.42166C179.042 7.42166 179.273 7.02022 179.039 6.40962C178.825 5.85299 178.563 5.39757 178.457 5.39757C178.351 5.39757 178.09 5.85299 177.876 6.40962ZM327.281 6.46562C327.314 7.25165 327.473 7.41154 327.689 6.8738C327.884 6.38667 327.859 5.80441 327.635 5.58041C327.411 5.35641 327.252 5.75449 327.281 6.46562ZM351.57 6.46562C351.603 7.25165 351.763 7.41154 351.978 6.8738C352.173 6.38667 352.148 5.80441 351.924 5.58041C351.701 5.35641 351.541 5.75449 351.57 6.46562ZM368.047 6.07227C368.276 6.44335 368.598 6.74697 368.762 6.74697C368.926 6.74697 369.059 6.44335 369.059 6.07227C369.059 5.70119 368.737 5.39757 368.345 5.39757C367.952 5.39757 367.818 5.70119 368.047 6.07227ZM373.107 6.11207C373.107 6.50475 373.411 6.63902 373.782 6.40962C374.153 6.18022 374.457 5.85907 374.457 5.69512C374.457 5.53117 374.153 5.39757 373.782 5.39757C373.411 5.39757 373.107 5.7194 373.107 6.11207ZM375.525 5.98186C375.234 6.45212 375.179 7.01887 375.401 7.24152C376.005 7.84538 376.664 6.95747 376.337 5.97916C376.109 5.29367 375.95 5.29367 375.525 5.98186ZM399.474 6.46562C399.506 7.25165 399.666 7.41154 399.881 6.8738C400.076 6.38667 400.052 5.80441 399.828 5.58041C399.604 5.35641 399.445 5.75449 399.474 6.46562ZM423.763 6.46562C423.795 7.25165 423.955 7.41154 424.17 6.8738C424.365 6.38667 424.341 5.80441 424.117 5.58041C423.893 5.35641 423.734 5.75449 423.763 6.46562ZM447.324 6.03247C447.324 6.38196 447.628 6.85492 447.999 7.08432C448.37 7.31371 448.673 7.02763 448.673 6.44942C448.673 5.8712 448.37 5.39757 447.999 5.39757C447.628 5.39757 447.324 5.68298 447.324 6.03247ZM471.666 6.46562C471.699 7.25165 471.859 7.41154 472.074 6.8738C472.269 6.38667 472.245 5.80441 472.021 5.58041C471.797 5.35641 471.637 5.75449 471.666 6.46562ZM495.955 6.46562C495.988 7.25165 496.148 7.41154 496.363 6.8738C496.558 6.38667 496.534 5.80441 496.31 5.58041C496.086 5.35641 495.926 5.75449 495.955 6.46562ZM520.244 6.46562C520.277 7.25165 520.437 7.41154 520.652 6.8738C520.847 6.38667 520.823 5.80441 520.599 5.58041C520.375 5.35641 520.215 5.75449 520.244 6.46562ZM568.095 6.40962C568.095 6.96624 568.389 7.42166 568.748 7.42166C569.107 7.42166 569.227 6.96624 569.014 6.40962C568.8 5.85299 568.505 5.39757 568.36 5.39757C568.214 5.39757 568.095 5.85299 568.095 6.40962ZM592.437 6.46562C592.469 7.25165 592.629 7.41154 592.844 6.8738C593.039 6.38667 593.015 5.80441 592.791 5.58041C592.567 5.35641 592.408 5.75449 592.437 6.46562ZM616.051 6.46562C616.084 7.25165 616.244 7.41154 616.459 6.8738C616.654 6.38667 616.63 5.80441 616.406 5.58041C616.182 5.35641 616.022 5.75449 616.051 6.46562ZM640.34 6.46562C640.373 7.25165 640.533 7.41154 640.748 6.8738C640.943 6.38667 640.919 5.80441 640.695 5.58041C640.471 5.35641 640.311 5.75449 640.34 6.46562ZM664.63 6.46562C664.662 7.25165 664.822 7.41154 665.037 6.8738C665.232 6.38667 665.208 5.80441 664.984 5.58041C664.76 5.35641 664.601 5.75449 664.63 6.46562ZM712.533 6.46562C712.565 7.25165 712.725 7.41154 712.94 6.8738C713.135 6.38667 713.111 5.80441 712.887 5.58041C712.663 5.35641 712.504 5.75449 712.533 6.46562ZM736.822 6.46562C736.854 7.25165 737.014 7.41154 737.23 6.8738C737.425 6.38667 737.4 5.80441 737.176 5.58041C736.952 5.35641 736.793 5.75449 736.822 6.46562ZM760.776 5.98186C760.486 6.45212 760.43 7.01887 760.653 7.24152C761.257 7.84538 761.915 6.95747 761.589 5.97916C761.361 5.29367 761.202 5.29367 760.776 5.98186ZM784.726 6.46562C784.758 7.25165 784.918 7.41154 785.133 6.8738C785.328 6.38667 785.304 5.80441 785.08 5.58041C784.856 5.35641 784.697 5.75449 784.726 6.46562ZM173.397 6.74697C173.397 7.11805 173.719 7.42166 174.112 7.42166C174.504 7.42166 174.638 7.11805 174.409 6.74697C174.18 6.37588 173.859 6.07227 173.695 6.07227C173.531 6.07227 173.397 6.37588 173.397 6.74697ZM182.843 6.74697C182.843 7.11805 183.165 7.42166 183.557 7.42166C183.95 7.42166 184.084 7.11805 183.855 6.74697C183.625 6.37588 183.304 6.07227 183.14 6.07227C182.976 6.07227 182.843 6.37588 182.843 6.74697ZM360.963 6.74697C360.963 7.11805 361.285 7.42166 361.677 7.42166C362.07 7.42166 362.204 7.11805 361.975 6.74697C361.745 6.37588 361.424 6.07227 361.26 6.07227C361.096 6.07227 360.963 6.37588 360.963 6.74697ZM370.408 6.74697C370.408 7.11805 370.73 7.42166 371.123 7.42166C371.516 7.42166 371.65 7.11805 371.421 6.74697C371.191 6.37588 370.87 6.07227 370.706 6.07227C370.542 6.07227 370.408 6.37588 370.408 6.74697ZM486.456 6.74697C486.456 7.11805 486.778 7.42166 487.171 7.42166C487.564 7.42166 487.698 7.11805 487.468 6.74697C487.239 6.37588 486.918 6.07227 486.754 6.07227C486.59 6.07227 486.456 6.37588 486.456 6.74697ZM490.842 6.74697C490.612 7.11805 490.747 7.42166 491.139 7.42166C491.532 7.42166 491.854 7.11805 491.854 6.74697C491.854 6.37588 491.72 6.07227 491.556 6.07227C491.392 6.07227 491.071 6.37588 490.842 6.74697ZM543.806 6.78677C543.806 7.17944 544.109 7.31371 544.48 7.08432C544.851 6.85492 545.155 6.53377 545.155 6.36982C545.155 6.20587 544.851 6.07227 544.48 6.07227C544.109 6.07227 543.806 6.39409 543.806 6.78677ZM688.191 6.78677C688.191 7.17944 688.494 7.31371 688.865 7.08432C689.236 6.85492 689.54 6.53377 689.54 6.36982C689.54 6.20587 689.236 6.07227 688.865 6.07227C688.494 6.07227 688.191 6.39409 688.191 6.78677ZM84.7446 9.26291C84.0591 9.94908 83.493 8.91612 84.0557 8.00595C84.4808 7.31776 84.64 7.31776 84.8681 8.00325C85.0246 8.47217 84.9686 9.03891 84.7446 9.26291ZM17.5421 18.5542C17.5421 20.6235 17.7513 20.9156 19.2289 20.9156C20.7064 20.9156 20.9156 20.6235 20.9156 18.5542C20.9156 16.4849 20.7064 16.1927 19.2289 16.1927C17.7513 16.1927 17.5421 16.4849 17.5421 18.5542ZM201.86 19.0602C202.022 20.7409 202.426 21.3036 203.59 21.4689C204.921 21.6578 205.108 21.3872 205.108 19.2761C205.108 17.1407 204.911 16.8674 203.379 16.8674C201.833 16.8674 201.672 17.1015 201.86 19.0602ZM300.915 19.5662C300.915 21.815 301.139 22.265 302.264 22.265C303.389 22.265 303.613 21.815 303.613 19.5662C303.613 17.3174 303.389 16.8674 302.264 16.8674C301.139 16.8674 300.915 17.3174 300.915 19.5662ZM399.893 17.2938C399.634 17.5543 399.42 18.627 399.42 19.6789C399.42 21.2806 399.7 21.5903 401.15 21.5903C402.694 21.5903 402.857 21.3555 402.668 19.4029C402.467 17.3174 400.992 16.1961 399.893 17.2938ZM498.601 19.2289C498.601 21.1403 498.858 21.5903 499.95 21.5903C501.043 21.5903 501.3 21.1403 501.3 19.2289C501.3 17.3174 501.043 16.8674 499.95 16.8674C498.858 16.8674 498.601 17.3174 498.601 19.2289ZM597.107 19.2289C597.107 21.1403 597.364 21.5903 598.456 21.5903C599.548 21.5903 599.805 21.1403 599.805 19.2289C599.805 17.3174 599.548 16.8674 598.456 16.8674C597.364 16.8674 597.107 17.3174 597.107 19.2289ZM696.22 17.2048C695.705 19.7781 696.153 21.2732 697.499 21.4689C698.794 21.6564 698.986 21.3737 698.986 19.2761C698.986 17.3174 698.733 16.8674 697.636 16.8674C696.894 16.8674 696.257 17.0192 696.22 17.2048ZM781.299 19.2289C781.299 21.2982 781.508 21.5903 782.985 21.5903C784.463 21.5903 784.672 21.2982 784.672 19.2289C784.672 17.1596 784.463 16.8674 782.985 16.8674C781.508 16.8674 781.299 17.1596 781.299 19.2289ZM0 19.5662C0 19.9373 0.303614 20.2409 0.674697 20.2409C1.04578 20.2409 1.34939 19.9373 1.34939 19.5662C1.34939 19.1951 1.04578 18.8915 0.674697 18.8915C0.303614 18.8915 0 19.1951 0 19.5662ZM5.39757 19.5662C5.39757 19.9373 5.85299 20.2409 6.40962 20.2409C6.96624 20.2409 7.42166 19.9373 7.42166 19.5662C7.42166 19.1951 6.96624 18.8915 6.40962 18.8915C5.85299 18.8915 5.39757 19.1951 5.39757 19.5662ZM797.491 19.5662C797.491 19.9373 797.777 20.2409 798.126 20.2409C798.476 20.2409 798.949 19.9373 799.178 19.5662C799.408 19.1951 799.122 18.8915 798.543 18.8915C797.965 18.8915 797.491 19.1951 797.491 19.5662ZM0.337348 24.2891C0.107951 24.6602 0.242212 24.9638 0.634886 24.9638C1.02756 24.9638 1.34939 24.6602 1.34939 24.2891C1.34939 23.918 1.21581 23.6144 1.05186 23.6144C0.887905 23.6144 0.566745 23.918 0.337348 24.2891ZM614.024 27.9399C613.483 28.591 613.458 29.0302 613.941 29.3291C614.33 29.5693 614.649 29.4444 614.649 29.0518C614.649 28.1666 616.45 28.1058 616.986 28.9728C617.202 29.3223 616.461 30.5469 615.339 31.6946C614.217 32.8422 613.299 33.9224 613.299 34.0951C613.299 34.2685 614.438 34.3738 615.829 34.3299C618.166 34.2557 618.213 34.2172 616.445 33.8239L614.531 33.3975L616.277 31.8841C618.237 30.1839 618.565 28.0154 616.955 27.3974C615.384 26.7949 614.9 26.8846 614.024 27.9399ZM620.215 27.4345C618.874 27.9756 619.238 28.9209 620.645 28.5525C622.228 28.1389 623.23 29.5429 621.756 30.1083C620.799 30.4761 620.813 30.6177 621.882 31.4078C622.821 32.1021 622.906 32.4738 622.267 33.1209C621.625 33.7726 621.209 33.747 620.303 32.9981C619.305 32.1749 619.196 32.183 619.484 33.0601C619.666 33.6168 620.425 34.1626 621.17 34.2732C622.824 34.5188 624.424 32.7849 623.663 31.5718C623.362 31.0914 623.211 30.1259 623.326 29.4249C623.617 27.6599 622.086 26.6802 620.215 27.4345ZM5.9461 43.6414C6.43256 43.8364 7.01482 43.8121 7.23882 43.5881C7.46282 43.3641 7.06475 43.2049 6.35362 43.2339C5.5676 43.2663 5.4077 43.4262 5.9461 43.6414ZM798.04 43.6414C798.526 43.8364 799.109 43.8121 799.333 43.5881C799.557 43.3641 799.159 43.2049 798.448 43.2339C797.661 43.2663 797.502 43.4262 798.04 43.6414ZM426.914 54.5047L419.661 54.6963V56.5909V58.4854L431.914 58.9294C438.653 59.1736 455.807 59.3733 470.034 59.3733H495.902V115.373V171.373H465.203C445.187 171.373 434.505 171.608 434.505 172.048C434.505 172.457 431.581 172.722 427.083 172.722H419.661V175.084V177.445H579.564H739.468V175.084V172.722H708.769H678.07V126.506V80.2889H674.022H669.974V126.506V172.722H646.359H622.745V174.409C622.745 176.035 622.588 176.096 618.359 176.096C614.157 176.096 613.974 176.027 613.974 174.446V172.795L605.034 172.59C593.062 172.316 592.384 172.415 592.384 174.454C592.384 176.011 592.175 176.096 588.336 176.096C584.467 176.096 584.287 176.021 584.287 174.409C584.287 172.735 584.242 172.722 578.215 172.722C572.188 172.722 572.143 172.735 572.143 174.409C572.143 175.958 571.895 176.096 569.107 176.096C566.318 176.096 566.07 175.958 566.07 174.409V172.722H555.275H544.48V174.409C544.48 176.004 544.278 176.096 540.769 176.096C537.261 176.096 537.059 176.004 537.059 174.409C537.059 173.06 536.721 172.722 535.372 172.722C534.022 172.722 533.685 173.06 533.685 174.409V176.096H521.203H508.721V117.397V58.6986H523.517H538.314L538.529 57.1805C538.72 55.8372 539.134 55.6625 542.119 55.6625C545.104 55.6625 545.517 55.8372 545.708 57.1805C545.906 58.5751 546.276 58.6986 550.262 58.6986C554.464 58.6986 554.601 58.644 554.601 56.9768C554.601 55.3231 554.742 55.2631 558.143 55.4587C561.229 55.6362 561.713 55.8581 561.901 57.1805L562.116 58.6986H610.31H658.504V56.2852V53.8718L546.336 54.0925C484.643 54.2139 430.904 54.3994 426.914 54.5047ZM667.95 56.3372V58.6986H703.709H739.468V56.3372V53.9757H703.709H667.95V56.3372ZM13.4939 75.3778V91.7588H21.2529H29.012V130.891V170.024H21.2529C16.5301 170.024 13.4939 170.287 13.4939 170.698C13.4939 171.111 16.6427 171.373 21.5903 171.373H29.6867V115.036C29.6867 84.0503 29.4586 58.7034 29.1806 58.7087C28.9027 58.7148 28.2192 59.0137 27.6626 59.3733C26.7976 59.932 26.8219 60.0291 27.8312 60.0379C28.9202 60.0473 29.012 61.2247 29.012 75.2287V90.4094H21.5775H14.143L14.3245 75.3974L14.506 60.3854L17.2048 59.9751C20.2132 59.5177 19.8192 59.2222 16.024 59.0872L13.4939 58.9968V75.3778ZM500.456 59.1635C499.807 59.3335 498.744 59.3335 498.095 59.1635C497.446 58.9941 497.977 58.8551 499.276 58.8551C500.574 58.8551 501.105 58.9941 500.456 59.1635ZM507.372 80.6263V102.554H505.029H502.685L502.499 80.6263L502.312 58.6979L504.842 58.6986H507.372V80.6263ZM141.507 72.0232C141.595 78.9813 141.671 104.333 141.676 128.361L141.686 172.048H144.385H147.084V115.71V59.3733L144.216 59.3726H141.349L141.507 72.0232ZM130.028 62.6159C130.594 62.9755 130.917 66.0805 131.061 72.5576L131.27 81.9757L131.418 72.0239C131.553 62.9357 131.463 62.0728 130.385 62.0822C129.566 62.0897 129.457 62.2529 130.028 62.6159ZM323.254 67.0426C322.666 67.751 322.765 68.1822 323.678 68.898C324.728 69.7225 324.77 69.7076 324.039 68.7691C323.405 67.9555 323.397 67.5223 324.006 66.9137C324.442 66.4772 324.624 66.1203 324.409 66.1203C324.195 66.1203 323.675 66.5352 323.254 67.0426ZM367.109 67.0426C366.534 67.7362 366.555 68.141 367.196 68.672C367.841 69.2084 368.047 68.985 368.047 67.7497C368.047 65.8369 368.086 65.8659 367.109 67.0426ZM0.337348 67.4697C0.107951 67.8408 0.242212 68.1444 0.634886 68.1444C1.02756 68.1444 1.34939 67.8408 1.34939 67.4697C1.34939 67.0986 1.21581 66.795 1.05186 66.795C0.887905 66.795 0.566745 67.0986 0.337348 67.4697ZM6.07227 67.4697C5.20731 68.0283 5.2316 68.1255 6.24094 68.1342C6.89068 68.1396 7.42166 67.8408 7.42166 67.4697C7.42166 66.6465 7.34542 66.6465 6.07227 67.4697ZM797.491 67.4906C797.491 67.8502 797.947 68.1444 798.504 68.1444C799.06 68.1444 799.516 68.0249 799.516 67.8792C799.516 67.7335 799.06 67.4393 798.504 67.2254C797.947 67.0122 797.491 67.1317 797.491 67.4906ZM117.633 76.9154C117.633 80.0696 117.749 81.3597 117.891 79.7829C118.033 78.2061 118.033 75.6247 117.891 74.048C117.749 72.4712 117.633 73.7612 117.633 76.9154ZM17.5421 80.6263C17.5421 82.6402 17.7702 82.9877 19.0932 82.9877C20.4689 82.9877 20.6133 82.7205 20.3691 80.6263C20.1626 78.8572 19.7733 78.2648 18.818 78.2648C17.81 78.2648 17.5421 78.76 17.5421 80.6263ZM103.229 81.301C103.229 83.3703 103.438 83.6624 104.915 83.6624C106.393 83.6624 106.602 83.3703 106.602 81.301C106.602 79.2317 106.393 78.9395 104.915 78.9395C103.438 78.9395 103.229 79.2317 103.229 81.301ZM201.734 81.2537C201.734 83.3891 201.931 83.6624 203.464 83.6624C205.009 83.6624 205.171 83.4283 204.982 81.4696C204.82 79.789 204.416 79.2263 203.252 79.061C201.921 78.872 201.734 79.1426 201.734 81.2537ZM300.915 81.2537C300.915 83.3891 301.111 83.6624 302.644 83.6624C304.189 83.6624 304.351 83.4283 304.162 81.4696C304 79.789 303.597 79.2263 302.433 79.061C301.102 78.872 300.915 79.1426 300.915 81.2537ZM399.42 81.301C399.42 83.3703 399.63 83.6624 401.107 83.6624C402.585 83.6624 402.794 83.3703 402.794 81.301C402.794 79.2317 402.585 78.9395 401.107 78.9395C399.63 78.9395 399.42 79.2317 399.42 81.301ZM737.443 115.71C737.443 147.946 737.568 152.481 738.456 152.481C739.343 152.481 739.468 147.946 739.468 115.71C739.468 83.4748 739.343 78.9395 738.456 78.9395C737.568 78.9395 737.443 83.4748 737.443 115.71ZM695.738 81.807C695.9 83.4876 696.304 84.0504 697.468 84.2157C698.799 84.4046 698.986 84.134 698.986 82.0229C698.986 79.8875 698.789 79.6142 697.257 79.6142C695.711 79.6142 695.55 79.8483 695.738 81.807ZM781.425 81.807C781.587 83.4876 781.99 84.0504 783.154 84.2157C784.485 84.4046 784.672 84.134 784.672 82.0229C784.672 79.8875 784.476 79.6142 782.943 79.6142C781.398 79.6142 781.236 79.8483 781.425 81.807ZM595.342 81.2612C595.136 81.7962 595.07 84.3776 595.194 86.9974L595.42 91.7621L592.93 91.7601C591.56 91.7594 590.252 92.0624 590.022 92.4335C589.767 92.8457 590.802 93.1082 592.681 93.1082H595.757V97.831V102.554H593.396C591.707 102.554 591.034 102.254 591.034 101.502C591.034 100.924 590.731 100.638 590.36 100.867C589.944 101.124 589.685 106.834 589.685 115.75C589.685 124.944 589.93 130.216 590.36 130.216C590.731 130.216 591.034 129.913 591.034 129.542C591.034 129.171 592.097 128.867 593.396 128.867H595.757V133.59V138.313L592.552 138.414L589.348 138.515L592.316 138.92L595.283 139.325L595.141 149.951L594.997 160.578H598.076H601.155L601.189 156.361C601.207 154.042 601.193 147.97 601.157 142.867L601.091 133.59H607.552H614.013L613.825 142.53L613.637 151.469L611.781 151.443C610.76 151.428 609.926 151.656 609.926 151.949C609.926 152.541 612.523 152.722 617.854 152.503L621.396 152.357V155.456V158.554H617.685C614.836 158.554 613.974 158.789 613.974 159.566C613.974 160.361 614.911 160.578 618.359 160.578H622.745V156.53C622.745 154.13 623.036 152.481 623.46 152.481C623.852 152.481 623.988 152.18 623.76 151.812C623.532 151.442 621.545 151.252 619.335 151.388L615.323 151.633V142.611V133.59H619.338H623.352L623.596 137.469L623.839 141.349L623.967 137.469L624.094 133.59H628.143H632.191L632.289 139.494C632.343 142.741 632.435 148.717 632.492 152.774C632.563 157.83 632.851 160.236 633.405 160.421C634.002 160.62 634.215 158.727 634.215 153.212V145.734H643.998H653.781V153.156V160.578H655.468C656.396 160.578 657.155 160.274 657.155 159.903C657.155 159.532 656.851 159.228 656.48 159.228C656.068 159.228 655.806 156.137 655.806 151.301L655.807 143.373L644.985 143.588L634.163 143.804L634.358 137.516L634.552 131.229L644.167 131.042L653.781 130.854V132.56C653.781 133.626 654.16 134.265 654.793 134.265C655.513 134.265 655.805 133.534 655.805 131.735V129.204L626.962 129.2L598.119 129.194L597.938 113.176L597.757 97.1563H622.396H647.034V106.602V116.048H651.42H655.805V101.879V87.7106H628.48H601.155V83.9997V80.2889H598.435C596.689 80.2889 595.581 80.6371 595.342 81.2612ZM676.721 120.478V159.993L674.865 159.779L673.01 159.566L672.791 152.819C672.67 149.108 672.778 140.85 673.03 134.469C673.424 124.515 673.647 122.825 674.599 122.571C675.315 122.381 675.146 122.249 674.124 122.198L672.54 122.12L673.022 114.192C673.287 109.833 673.81 105.886 674.183 105.421C674.672 104.814 674.555 104.578 673.767 104.578C672.801 104.578 672.673 103.242 672.673 93.1527V81.728L674.528 81.4467C675.549 81.2922 676.459 81.1201 676.552 81.0648C676.645 81.0088 676.721 98.7452 676.721 120.478ZM127.012 82.1032C127.661 82.2732 128.724 82.2732 129.373 82.1032C130.022 81.9338 129.491 81.7948 128.192 81.7948C126.894 81.7948 126.363 81.9338 127.012 82.1032ZM5.39757 91.7378C5.39757 92.0968 5.85299 92.2162 6.40962 92.003C6.96624 91.7891 7.42166 91.495 7.42166 91.3492C7.42166 91.2035 6.96624 91.0841 6.40962 91.0841C5.85299 91.0841 5.39757 91.3782 5.39757 91.7378ZM803.564 96.4816C803.564 96.8527 803.867 97.1563 804.238 97.1563C804.61 97.1563 804.913 96.8527 804.913 96.4816C804.913 96.1105 804.61 95.8069 804.238 95.8069C803.867 95.8069 803.564 96.1105 803.564 96.4816ZM507.372 115.71V127.518H505.01H502.649V115.71V103.903H505.01H507.372V115.71ZM595.757 115.71V127.518H593.396H591.034V115.71V103.903H593.396H595.757V115.71ZM63.0241 112.11C61.869 113.425 61.8575 113.533 62.9155 113.147C63.916 112.782 64.0962 113.132 64.0962 115.434C64.0962 116.929 64.3384 118.002 64.6346 117.819C65.1804 117.482 65.1609 111.49 64.6117 110.941C64.4477 110.776 63.7325 111.303 63.0241 112.11ZM68.2543 111.243C66.8098 112.158 67.5695 115.002 69.3251 115.252C70.9295 115.479 71.3175 116.35 70.1388 117.078C69.7515 117.318 68.9432 117.108 68.3427 116.612C67.417 115.848 67.301 115.865 67.585 116.723C67.7686 117.279 68.6457 117.735 69.5336 117.735C71.644 117.735 72.7836 114.846 71.6528 112.364C70.8459 110.593 69.8156 110.254 68.2543 111.243ZM246.04 111.1C245.142 111.997 245.615 112.818 246.572 112.024C247.112 111.576 247.871 111.405 248.259 111.644C249.46 112.386 249.037 113.944 247.333 115.061C244.418 116.971 244.598 118.085 247.803 117.971C249.819 117.899 250.108 117.788 248.794 117.589C247.774 117.434 246.939 117.189 246.939 117.046C246.939 116.902 247.709 116.013 248.652 115.071C250.058 113.665 250.235 113.116 249.64 112.004C248.936 110.689 246.95 110.19 246.04 111.1ZM251.797 111.46C250.933 112.324 250.722 115.246 251.397 117.005C251.881 118.268 253.757 118.405 254.9 117.262C256.646 115.517 255.504 110.65 253.349 110.65C252.94 110.65 252.242 111.015 251.797 111.46ZM462.336 111.097C461.872 111.284 461.493 111.726 461.493 112.08C461.493 112.458 462.051 112.423 462.852 111.994C465.093 110.795 465.382 113.075 463.267 115.281C460.919 117.732 461.02 118.091 464.023 117.971C466.058 117.89 466.19 117.815 464.697 117.589C462.988 117.33 461.993 116.048 463.501 116.048C463.863 116.048 464.658 115.287 465.267 114.358C466.887 111.886 465.155 109.959 462.336 111.097ZM468.551 112.029C467.512 113.177 467.487 113.337 468.404 112.985C469.298 112.641 469.555 113.113 469.767 115.486C469.999 118.091 470.041 117.986 470.146 114.53C470.21 112.396 470.159 110.65 470.031 110.65C469.903 110.65 469.237 111.27 468.551 112.029ZM546.308 111.071C545.39 111.989 545.837 112.833 546.812 112.024C547.352 111.576 548.111 111.405 548.499 111.644C549.7 112.386 549.277 113.944 547.573 115.061C544.857 116.841 544.843 118.072 547.537 118.072C548.825 118.072 549.878 117.748 549.878 117.352C549.878 116.938 549.302 116.814 548.528 117.06C546.765 117.619 546.792 116.614 548.57 115.503C550.422 114.347 550.14 111.073 548.163 110.791C547.406 110.682 546.571 110.809 546.308 111.071ZM551.926 111.633C550.924 112.84 551.924 113.058 553.094 111.887C553.695 111.287 553.988 111.376 554.329 112.264C554.623 113.032 554.17 114.062 553.002 115.281C550.654 117.732 550.755 118.091 553.757 117.971C555.915 117.884 556.003 117.827 554.356 117.581L552.424 117.293L554.337 115.296C555.869 113.697 556.105 113.07 555.522 112.144C554.541 110.587 552.979 110.365 551.926 111.633ZM760.436 111.786C760.467 112.495 760.633 112.656 760.83 112.168C761.017 111.705 761.583 111.325 762.086 111.325C763.997 111.325 763.828 112.873 761.676 115.094C760.449 116.361 759.731 117.432 760.082 117.474C760.433 117.517 761.555 117.65 762.576 117.771C763.597 117.892 764.431 117.706 764.431 117.357C764.431 117.008 763.772 116.723 762.965 116.723H761.497L763.025 115.096C765.005 112.989 764.649 111.053 762.232 110.774C760.803 110.609 760.395 110.839 760.436 111.786ZM766.259 111.071C765.341 111.989 765.788 112.833 766.763 112.024C767.304 111.576 768.108 111.433 768.552 111.708C769.141 112.071 769.052 112.429 768.224 113.035C767.231 113.761 767.219 113.913 768.123 114.26C769.378 114.742 769.502 116.723 768.277 116.723C767.795 116.723 767.036 116.358 766.59 115.913C765.961 115.283 765.781 115.342 765.781 116.178C765.781 117.608 767.586 118.237 769.203 117.371C770.525 116.664 770.898 115.318 770.018 114.437C769.751 114.17 769.523 113.285 769.512 112.47C769.492 110.992 767.287 110.044 766.259 111.071ZM70.8432 113.389C70.8432 114.772 69.2023 115.189 68.4635 113.994C67.9251 113.123 69.4229 111.201 70.2447 111.71C70.574 111.913 70.8432 112.668 70.8432 113.389ZM254.241 114.729C254.121 115.954 253.655 117.077 253.205 117.225C252.017 117.614 251.41 114.405 252.342 112.665C253.415 110.658 254.522 111.861 254.241 114.729ZM6.07227 115.373C5.20731 115.932 5.2316 116.029 6.24094 116.038C6.89068 116.043 7.42166 115.744 7.42166 115.373C7.42166 114.55 7.34542 114.55 6.07227 115.373ZM803.564 116.048C803.564 116.419 803.867 116.723 804.238 116.723C804.61 116.723 804.913 116.419 804.913 116.048C804.913 115.677 804.61 115.373 804.238 115.373C803.867 115.373 803.564 115.677 803.564 116.048ZM507.372 152.481V176.096H505.01H502.649V152.481V128.867H505.01H507.372V152.481ZM6.07227 139.662C5.20731 140.221 5.2316 140.318 6.24094 140.327C6.89068 140.332 7.42166 140.033 7.42166 139.662C7.42166 138.839 7.34542 138.839 6.07227 139.662ZM134.197 144.869C133.36 145.935 133.373 145.978 134.315 145.245C135.153 144.592 135.561 144.592 136.254 145.245C136.953 145.903 137.072 145.874 136.837 145.102C136.389 143.629 135.25 143.528 134.197 144.869ZM17.5421 150.167C17.5421 152.278 17.729 152.549 19.0602 152.36C20.224 152.195 20.6275 151.632 20.7894 149.951C20.9783 147.993 20.8164 147.759 19.2714 147.759C17.7385 147.759 17.5421 148.032 17.5421 150.167ZM103.229 150.12C103.229 152.189 103.438 152.481 104.915 152.481C106.393 152.481 106.602 152.189 106.602 150.12C106.602 148.051 106.393 147.759 104.915 147.759C103.438 147.759 103.229 148.051 103.229 150.12ZM202.184 148.209C201.937 148.456 201.734 149.518 201.734 150.57C201.734 152.159 202.019 152.481 203.421 152.481C204.899 152.481 205.108 152.189 205.108 150.12C205.108 148.28 204.835 147.759 203.871 147.759C203.19 147.759 202.431 147.961 202.184 148.209ZM300.915 150.12C300.915 152.031 301.172 152.481 302.264 152.481C303.356 152.481 303.613 152.031 303.613 150.12C303.613 148.209 303.356 147.759 302.264 147.759C301.172 147.759 300.915 148.209 300.915 150.12ZM399.804 148.275C399.593 148.486 399.42 149.692 399.42 150.954C399.42 152.949 399.619 153.222 400.939 153.035C402.173 152.859 402.457 152.39 402.457 150.521C402.457 148.885 402.13 148.177 401.322 148.058C400.698 147.966 400.015 148.064 399.804 148.275ZM696.287 150.795C696.287 152.89 696.485 153.156 698.046 153.156C699.372 153.156 699.704 152.894 699.395 152.089C699.17 151.502 698.986 150.439 698.986 149.727C698.986 148.883 698.517 148.433 697.636 148.433C696.544 148.433 696.287 148.883 696.287 150.795ZM781.299 150.795C781.299 152.864 781.508 153.156 782.985 153.156C784.463 153.156 784.672 152.864 784.672 150.795C784.672 148.725 784.463 148.433 782.985 148.433C781.508 148.433 781.299 148.725 781.299 150.795ZM134.178 154.337C133.362 155.379 133.378 155.42 134.315 154.69C135.153 154.037 135.551 154.037 136.21 154.69C136.87 155.345 136.95 155.271 136.594 154.337C136.347 153.688 135.91 153.156 135.624 153.156C135.339 153.156 134.688 153.688 134.178 154.337ZM323.406 163.659C323.183 164.241 323.314 165.03 323.698 165.414C324.178 165.894 324.363 165.564 324.293 164.357C324.176 162.335 323.975 162.177 323.406 163.659ZM367.333 163.341C367.081 163.748 367.426 164.583 368.099 165.197C369.087 166.098 369.17 166.109 368.532 165.251C367.928 164.439 367.929 164.002 368.536 163.395C369.116 162.815 369.122 162.602 368.559 162.602C368.135 162.602 367.583 162.935 367.333 163.341ZM0 164.328C0 164.907 0.303614 165.193 0.674697 164.963C1.04578 164.734 1.34939 164.261 1.34939 163.911C1.34939 163.562 1.04578 163.277 0.674697 163.277C0.303614 163.277 0 163.75 0 164.328ZM5.39757 163.839C5.39757 164.148 5.85299 164.401 6.40962 164.401C6.96624 164.401 7.42166 164.148 7.42166 163.839C7.42166 163.53 6.96624 163.277 6.40962 163.277C5.85299 163.277 5.39757 163.53 5.39757 163.839ZM0 168.674C0 169.045 0.303614 169.349 0.674697 169.349C1.04578 169.349 1.34939 169.045 1.34939 168.674C1.34939 168.303 1.04578 167.999 0.674697 167.999C0.303614 167.999 0 168.303 0 168.674ZM120.771 168.325C120.771 168.427 121.186 168.854 121.693 169.275C122.387 169.85 122.791 169.829 123.322 169.188C123.855 168.545 123.63 168.313 122.399 168.24C121.503 168.186 120.771 168.225 120.771 168.325ZM0 173.397C0 173.768 0.321834 174.072 0.714508 174.072C1.10718 174.072 1.24144 173.768 1.01205 173.397C0.782648 173.026 0.461489 172.722 0.297537 172.722C0.133586 172.722 0 173.026 0 173.397ZM687.812 182.029C688.084 182.509 687.918 183.42 687.442 184.053C686.664 185.09 686.706 185.087 687.861 184.028C688.933 183.046 688.994 182.713 688.231 182.004C687.496 181.321 687.414 181.326 687.812 182.029ZM5.9461 188.027C6.43256 188.221 7.01482 188.197 7.23882 187.973C7.46282 187.749 7.06475 187.59 6.35362 187.619C5.5676 187.651 5.4077 187.811 5.9461 188.027ZM0 193.003C0 193.396 0.303614 193.53 0.674697 193.301C1.04578 193.071 1.34939 192.75 1.34939 192.586C1.34939 192.422 1.04578 192.289 0.674697 192.289C0.303614 192.289 0 192.61 0 193.003ZM0 197.686C0 198.057 0.303614 198.361 0.674697 198.361C1.04578 198.361 1.34939 198.057 1.34939 197.686C1.34939 197.315 1.04578 197.011 0.674697 197.011C0.303614 197.011 0 197.315 0 197.686ZM0 202.409C0 202.78 0.303614 203.084 0.674697 203.084C1.04578 203.084 1.34939 202.78 1.34939 202.409C1.34939 202.038 1.04578 201.734 0.674697 201.734C0.303614 201.734 0 202.038 0 202.409ZM624.544 203.534C624.297 203.781 624.094 204.297 624.094 204.681C624.094 205.098 624.42 205.052 624.904 204.568C625.349 204.123 626.108 203.758 626.591 203.758C628.002 203.758 627.604 205.42 625.781 207.132C624.853 208.004 624.094 209.054 624.094 209.468C624.094 210.424 627.913 210.747 628.475 209.838C628.72 209.441 628.121 209.156 627.044 209.156H625.191L627.025 207.242C629.115 205.061 628.863 203.084 626.496 203.084C625.67 203.084 624.791 203.286 624.544 203.534ZM629.942 203.534C629.694 203.781 629.492 204.297 629.492 204.681C629.492 205.098 629.817 205.052 630.302 204.568C631.428 203.442 632.865 203.556 632.865 204.77C632.865 205.327 632.54 205.783 632.143 205.783C631.745 205.783 631.916 206.279 632.523 206.886C634.103 208.466 632.706 209.802 630.751 208.582C629.651 207.895 629.406 207.888 629.628 208.55C629.783 209.016 630.397 209.704 630.994 210.081C632.795 211.216 634.288 209.416 633.936 206.535C633.771 205.194 633.614 203.868 633.588 203.59C633.529 202.963 630.558 202.918 629.942 203.534ZM0 207.132C0 207.503 0.321834 207.807 0.714508 207.807C1.10718 207.807 1.24144 207.503 1.01205 207.132C0.782648 206.761 0.461489 206.457 0.297537 206.457C0.133586 206.457 0 206.761 0 207.132ZM17.5421 212.145C17.5421 214.28 17.7385 214.554 19.2714 214.554C20.8164 214.554 20.9783 214.319 20.7894 212.361C20.6275 210.68 20.224 210.117 19.0602 209.952C17.729 209.763 17.5421 210.034 17.5421 212.145ZM103.229 212.192C103.229 214.261 103.438 214.554 104.915 214.554C106.393 214.554 106.602 214.261 106.602 212.192C106.602 210.123 106.393 209.831 104.915 209.831C103.438 209.831 103.229 210.123 103.229 212.192ZM202.016 210.744C201.266 212.698 202.009 214.891 203.421 214.891C204.513 214.891 204.77 214.441 204.77 212.539C204.77 210.833 204.445 210.124 203.588 209.959C202.937 209.833 202.23 210.187 202.016 210.744ZM0 211.517C0 212.074 0.294164 212.529 0.653777 212.529C1.01272 212.529 1.13214 212.074 0.918937 211.517C0.705058 210.961 0.410894 210.505 0.265159 210.505C0.119425 210.505 0 210.961 0 211.517ZM300.915 212.914C300.915 215.025 301.102 215.296 302.433 215.107C303.597 214.942 304 214.379 304.162 212.698C304.351 210.74 304.189 210.505 302.644 210.505C301.111 210.505 300.915 210.779 300.915 212.914ZM399.42 212.867C399.42 214.936 399.63 215.228 401.107 215.228C402.585 215.228 402.794 214.936 402.794 212.867C402.794 210.798 402.585 210.505 401.107 210.505C399.63 210.505 399.42 210.798 399.42 212.867ZM497.926 212.867C497.926 214.936 498.135 215.228 499.613 215.228C501.09 215.228 501.3 214.936 501.3 212.867C501.3 210.798 501.09 210.505 499.613 210.505C498.135 210.505 497.926 210.798 497.926 212.867ZM596.432 212.867C596.432 214.936 596.641 215.228 598.119 215.228C599.596 215.228 599.805 214.936 599.805 212.867C599.805 210.798 599.596 210.505 598.119 210.505C596.641 210.505 596.432 210.798 596.432 212.867ZM695.738 212.698C695.9 214.379 696.304 214.942 697.468 215.107C698.799 215.296 698.986 215.025 698.986 212.914C698.986 210.779 698.789 210.505 697.257 210.505C695.711 210.505 695.55 210.74 695.738 212.698ZM781.299 212.867C781.299 214.936 781.508 215.228 782.985 215.228C784.463 215.228 784.672 214.936 784.672 212.867C784.672 210.798 784.463 210.505 782.985 210.505C781.508 210.505 781.299 210.798 781.299 212.867ZM6.07227 211.855C5.20731 212.413 5.2316 212.511 6.24094 212.519C6.89068 212.525 7.42166 212.226 7.42166 211.855C7.42166 211.032 7.34542 211.032 6.07227 211.855ZM33.8414 225.349C33.8414 226.276 33.9946 226.656 34.1815 226.192C34.369 225.729 34.369 224.97 34.1815 224.505C33.9946 224.042 33.8414 224.421 33.8414 225.349ZM57.7156 224.627C57.0618 225.685 58.3053 225.942 59.2309 224.941C59.9461 224.167 59.9225 223.999 59.1021 223.999C58.5529 223.999 57.9288 224.282 57.7156 224.627ZM62.3703 224.611C62.5781 224.947 63.3554 225.063 64.0969 224.869C65.9536 224.384 65.7863 223.999 63.719 223.999C62.7697 223.999 62.1625 224.275 62.3703 224.611ZM66.1203 224.264C66.1203 224.41 66.5757 224.704 67.1323 224.918C67.6889 225.131 68.1444 225.012 68.1444 224.653C68.1444 224.293 67.6889 223.999 67.1323 223.999C66.5757 223.999 66.1203 224.119 66.1203 224.264ZM163.951 224.714C163.951 225.107 164.255 225.241 164.626 225.011C164.997 224.782 165.301 224.461 165.301 224.297C165.301 224.133 164.997 223.999 164.626 223.999C164.255 223.999 163.951 224.321 163.951 224.714ZM168.337 224.674C168.566 225.045 168.887 225.349 169.051 225.349C169.215 225.349 169.349 225.045 169.349 224.674C169.349 224.303 169.027 223.999 168.634 223.999C168.242 223.999 168.107 224.303 168.337 224.674ZM173.021 224.611C173.228 224.947 174.006 225.063 174.747 224.869C176.604 224.384 176.437 223.999 174.369 223.999C173.42 223.999 172.813 224.275 173.021 224.611ZM177.924 225.349C178.119 226.091 178.394 226.698 178.536 226.698C178.678 226.698 178.795 226.091 178.795 225.349C178.795 224.607 178.519 223.999 178.183 223.999C177.847 223.999 177.731 224.607 177.924 225.349ZM206.691 226.451C206.133 228.24 206.116 229.392 206.631 230.521C207.574 232.592 208.481 232.526 208.481 230.388C208.481 229.412 208.966 228.493 209.613 228.246C210.626 227.857 210.611 227.765 209.46 227.361C208.753 227.113 208.016 226.245 207.822 225.433C207.52 224.166 207.358 224.312 206.691 226.451ZM228.829 225.349C228.829 226.276 228.982 226.656 229.169 226.192C229.356 225.729 229.356 224.97 229.169 224.505C228.982 224.042 228.829 224.421 228.829 225.349ZM276.626 225.349C276.626 226.091 276.901 226.698 277.237 226.698C277.574 226.698 277.69 226.091 277.496 225.349C277.302 224.607 277.026 223.999 276.884 223.999C276.742 223.999 276.626 224.607 276.626 225.349ZM298.216 225.716C298.216 226.94 297.897 227.375 297.105 227.234C296.494 227.125 295.859 227.425 295.693 227.9C295.527 228.375 295.798 228.679 296.297 228.574C296.847 228.46 297.288 229.116 297.417 230.24C297.63 232.09 298.81 232.855 298.98 231.252C299.297 228.238 299.147 223.999 298.722 223.999C298.443 223.999 298.216 224.772 298.216 225.716ZM327.281 225.067C327.314 225.853 327.473 226.013 327.689 225.476C327.884 224.988 327.859 224.406 327.635 224.182C327.411 223.958 327.252 224.356 327.281 225.067ZM360.963 224.653C360.963 225.012 361.418 225.131 361.975 224.918C362.531 224.704 362.987 224.41 362.987 224.264C362.987 224.119 362.531 223.999 361.975 223.999C361.418 223.999 360.963 224.293 360.963 224.653ZM365.686 224.714C365.686 225.107 365.989 225.241 366.36 225.011C366.731 224.782 367.035 224.461 367.035 224.297C367.035 224.133 366.731 223.999 366.36 223.999C365.989 223.999 365.686 224.321 365.686 224.714ZM370.408 224.674C370.408 225.045 370.712 225.349 371.083 225.349C371.454 225.349 371.758 225.045 371.758 224.674C371.758 224.303 371.454 223.999 371.083 223.999C370.712 223.999 370.408 224.303 370.408 224.674ZM373.782 224.491C374.339 224.703 375.005 225.202 375.264 225.599C375.869 226.533 376.759 225.671 376.171 224.719C375.927 224.323 375.061 224.024 374.248 224.053C373.242 224.089 373.093 224.229 373.782 224.491ZM423.816 225.349C423.816 226.276 423.969 226.656 424.156 226.192C424.344 225.729 424.344 224.97 424.156 224.505C423.969 224.042 423.816 224.421 423.816 225.349ZM428.486 225.067C428.518 225.853 428.678 226.013 428.893 225.476C429.088 224.988 429.064 224.406 428.84 224.182C428.616 223.958 428.457 224.356 428.486 225.067ZM471.666 225.067C471.699 225.853 471.859 226.013 472.074 225.476C472.269 224.988 472.245 224.406 472.021 224.182C471.797 223.958 471.637 224.356 471.666 225.067ZM481.059 224.674C481.059 225.045 481.362 225.349 481.733 225.349C482.105 225.349 482.408 225.045 482.408 224.674C482.408 224.303 482.105 223.999 481.733 223.999C481.362 223.999 481.059 224.303 481.059 224.674ZM495.955 225.067C495.988 225.853 496.148 226.013 496.363 225.476C496.558 224.988 496.534 224.406 496.31 224.182C496.086 223.958 495.926 224.356 495.955 225.067ZM534.36 224.58C534.36 224.9 535.119 225.017 536.047 224.839C536.974 224.662 537.733 224.4 537.733 224.258C537.733 224.116 536.974 223.999 536.047 223.999C535.119 223.999 534.36 224.261 534.36 224.58ZM538.745 224.674C538.975 225.045 539.296 225.349 539.46 225.349C539.624 225.349 539.757 225.045 539.757 224.674C539.757 224.303 539.435 223.999 539.043 223.999C538.65 223.999 538.516 224.303 538.745 224.674ZM543.806 225.051C543.806 225.629 544.109 225.915 544.48 225.686C544.851 225.457 545.155 224.984 545.155 224.634C545.155 224.285 544.851 223.999 544.48 223.999C544.109 223.999 543.806 224.473 543.806 225.051ZM568.201 225.349C568.201 226.276 568.354 226.656 568.541 226.192C568.729 225.729 568.729 224.97 568.541 224.505C568.354 224.042 568.201 224.421 568.201 225.349ZM81.6916 225.742C81.724 226.528 81.8839 226.688 82.0991 226.15C82.2941 225.663 82.2698 225.081 82.0458 224.857C81.8218 224.633 81.6626 225.031 81.6916 225.742ZM153.831 225.349C153.831 225.72 154.134 226.023 154.506 226.023C154.877 226.023 155.18 225.72 155.18 225.349C155.18 224.978 154.877 224.674 154.506 224.674C154.134 224.674 153.831 224.978 153.831 225.349ZM202.43 225.349C202.43 225.905 202.724 226.816 203.084 227.373C203.665 228.272 203.737 228.272 203.737 227.373C203.737 226.816 203.443 225.905 203.084 225.349C202.502 224.449 202.43 224.449 202.43 225.349ZM351.57 225.742C351.603 226.528 351.763 226.688 351.978 226.15C352.173 225.663 352.148 225.081 351.924 224.857C351.701 224.633 351.541 225.031 351.57 225.742ZM447.324 225.309C447.324 225.658 447.628 226.131 447.999 226.361C448.37 226.59 448.673 226.304 448.673 225.726C448.673 225.148 448.37 224.674 447.999 224.674C447.628 224.674 447.324 224.959 447.324 225.309ZM797.829 225.349C798.058 225.72 798.549 226.023 798.921 226.023C799.292 226.023 799.408 225.72 799.178 225.349C798.949 224.978 798.458 224.674 798.087 224.674C797.715 224.674 797.599 224.978 797.829 225.349ZM60.048 226.023C60.048 226.394 60.3698 226.698 60.7625 226.698C61.1552 226.698 61.2894 226.394 61.0601 226.023C60.8307 225.652 60.5095 225.349 60.3455 225.349C60.1816 225.349 60.048 225.652 60.048 226.023ZM64.7709 226.023C64.7709 226.394 65.0927 226.698 65.4854 226.698C65.8781 226.698 66.0123 226.394 65.7829 226.023C65.5535 225.652 65.2324 225.349 65.0684 225.349C64.9045 225.349 64.7709 225.652 64.7709 226.023ZM252.674 226.023C252.445 226.394 252.579 226.698 252.971 226.698C253.364 226.698 253.686 226.394 253.686 226.023C253.686 225.652 253.552 225.349 253.388 225.349C253.224 225.349 252.903 225.652 252.674 226.023ZM368.047 226.023C367.818 226.394 367.952 226.698 368.345 226.698C368.737 226.698 369.059 226.394 369.059 226.023C369.059 225.652 368.926 225.349 368.762 225.349C368.598 225.349 368.276 225.652 368.047 226.023ZM373.107 226.023C373.107 226.394 373.429 226.698 373.822 226.698C374.214 226.698 374.349 226.394 374.119 226.023C373.89 225.652 373.569 225.349 373.405 225.349C373.241 225.349 373.107 225.652 373.107 226.023ZM302.601 226.698C302.372 227.069 302.506 227.373 302.899 227.373C303.292 227.373 303.613 227.069 303.613 226.698C303.613 226.327 303.48 226.023 303.316 226.023C303.152 226.023 302.831 226.327 302.601 226.698ZM228.047 227.935C228.047 228.245 228.503 228.498 229.06 228.498C229.616 228.498 230.072 228.245 230.072 227.935C230.072 227.626 229.616 227.373 229.06 227.373C228.503 227.373 228.047 227.626 228.047 227.935ZM252.337 227.935C252.337 228.245 252.778 228.498 253.319 228.498C253.859 228.498 254.145 228.245 253.954 227.935C253.763 227.626 253.321 227.373 252.971 227.373C252.622 227.373 252.337 227.626 252.337 227.935ZM276.358 227.935C276.167 228.245 276.452 228.498 276.993 228.498C277.533 228.498 277.975 228.245 277.975 227.935C277.975 227.626 277.69 227.373 277.34 227.373C276.991 227.373 276.549 227.626 276.358 227.935ZM299.565 228.722C299.565 229.093 299.887 229.397 300.28 229.397C300.673 229.397 300.807 229.093 300.577 228.722C300.348 228.351 300.027 228.048 299.863 228.048C299.699 228.048 299.565 228.351 299.565 228.722ZM0.337348 230.746C0.107951 231.117 0.224002 231.421 0.595085 231.421C0.966168 231.421 1.45734 231.117 1.68674 230.746C1.91614 230.375 1.80009 230.072 1.42901 230.072C1.05792 230.072 0.566745 230.375 0.337348 230.746ZM192.289 230.746C192.289 231.117 192.61 231.421 193.003 231.421C193.396 231.421 193.53 231.117 193.301 230.746C193.071 230.375 192.75 230.072 192.586 230.072C192.422 230.072 192.289 230.375 192.289 230.746ZM202.409 230.786C202.409 231.179 202.713 231.313 203.084 231.084C203.455 230.854 203.758 230.533 203.758 230.369C203.758 230.205 203.455 230.072 203.084 230.072C202.713 230.072 202.409 230.393 202.409 230.786ZM209.156 230.746C209.156 231.117 209.46 231.421 209.831 231.421C210.202 231.421 210.505 231.117 210.505 230.746C210.505 230.375 210.202 230.072 209.831 230.072C209.46 230.072 209.156 230.375 209.156 230.746ZM252.337 230.746C252.337 231.117 252.64 231.421 253.011 231.421C253.382 231.421 253.686 231.117 253.686 230.746C253.686 230.375 253.382 230.072 253.011 230.072C252.64 230.072 252.337 230.375 252.337 230.746ZM276.626 230.746C276.626 231.117 276.929 231.421 277.3 231.421C277.671 231.421 277.975 231.117 277.975 230.746C277.975 230.375 277.671 230.072 277.3 230.072C276.929 230.072 276.626 230.375 276.626 230.746ZM375.469 230.746C375.698 231.117 376.019 231.421 376.183 231.421C376.347 231.421 376.481 231.117 376.481 230.746C376.481 230.375 376.159 230.072 375.766 230.072C375.374 230.072 375.239 230.375 375.469 230.746ZM568.095 231.044C568.095 231.622 568.398 232.096 568.769 232.096C569.14 232.096 569.444 231.81 569.444 231.461C569.444 231.111 569.14 230.638 568.769 230.409C568.398 230.18 568.095 230.466 568.095 231.044ZM769.95 253.18C769.829 257.051 769.833 257.059 771.813 257.059C772.905 257.059 773.985 256.756 774.214 256.385C774.457 255.992 773.784 255.71 772.605 255.71C770.672 255.71 770.566 255.561 770.325 252.505C770.075 249.336 770.071 249.344 769.95 253.18ZM791.419 253.388C791.419 255.717 791.675 256.981 792.094 256.722C792.465 256.493 792.769 254.805 792.769 252.971C792.769 251.138 792.465 249.638 792.094 249.638C791.723 249.638 791.419 251.326 791.419 253.388ZM796.738 251.229C795.83 253.22 796.443 256.284 797.858 256.827C799.669 257.522 800.947 255.699 800.73 252.732C800.563 250.465 800.259 249.937 799.016 249.761C797.941 249.607 797.283 250.032 796.738 251.229ZM803.699 250.447C802.72 251.426 802.619 252.583 803.564 251.999C803.972 251.747 804.238 252.68 804.238 254.361C804.238 256.041 804.505 256.974 804.913 256.722C805.71 256.23 805.835 249.638 805.048 249.638C804.751 249.638 804.144 250.002 803.699 250.447ZM800.07 252.598C800.301 254.551 799.095 256.622 798.09 256C797.387 255.566 797.28 251.423 797.956 250.748C798.835 249.869 799.854 250.759 800.07 252.598ZM775.677 252.112C775.429 252.359 775.227 253.401 775.227 254.427C775.227 256.759 777.527 257.747 779.157 256.117C779.801 255.473 779.923 255.035 779.459 255.035C779.03 255.035 778.5 255.325 778.281 255.68C777.817 256.431 775.901 255.853 775.901 254.963C775.901 254.632 776.844 254.361 777.997 254.361C779.632 254.361 780.003 254.125 779.684 253.293C779.459 252.706 779.275 252.099 779.275 251.944C779.275 251.48 776.163 251.625 775.677 252.112ZM780.624 252.021C780.624 252.799 782.682 257.25 782.923 256.995C783.687 256.187 785.19 251.662 784.694 251.662C784.373 251.662 783.817 252.496 783.46 253.517L782.809 255.373L782.071 253.517C781.413 251.865 780.624 251.049 780.624 252.021ZM786.049 252.642C784.434 254.587 787.26 258.042 789.389 256.726C790.674 255.932 790.069 255.223 788.383 255.545C787.399 255.733 786.696 255.554 786.696 255.114C786.696 254.699 787.607 254.361 788.72 254.361C790.877 254.361 791.247 253.784 789.935 252.472C788.836 251.373 787.036 251.452 786.049 252.642ZM778.6 253.011C778.6 253.382 777.975 253.686 777.211 253.686C776.447 253.686 776.009 253.382 776.239 253.011C776.468 252.64 777.093 252.337 777.628 252.337C778.163 252.337 778.6 252.64 778.6 253.011ZM789.395 253.011C789.395 253.382 788.77 253.686 788.006 253.686C787.242 253.686 786.804 253.382 787.034 253.011C787.263 252.64 787.888 252.337 788.423 252.337C788.958 252.337 789.395 252.64 789.395 253.011ZM720.82 264.144C720.28 265.552 721.078 267.349 722.095 267.015C722.558 266.862 722.987 266.002 723.048 265.103C723.15 263.592 723.134 263.583 722.832 264.987C722.383 267.079 721.015 266.915 721.416 264.818C721.772 262.955 721.426 262.564 720.82 264.144ZM800.621 263.6C799.973 264.248 800.103 266.372 800.818 266.814C801.164 267.027 801.666 266.847 801.934 266.412C802.239 265.919 802.131 265.803 801.644 266.104C801.14 266.415 800.868 266.034 800.875 265.027C800.884 263.773 801.013 263.667 801.54 264.481C801.932 265.089 802.198 265.173 802.204 264.69C802.216 263.704 801.21 263.011 800.621 263.6ZM798.273 265.156C798.273 266.084 798.426 266.463 798.613 265.999C798.8 265.536 798.8 264.777 798.613 264.312C798.426 263.849 798.273 264.228 798.273 265.156ZM802.936 265.999C802.981 267.448 803.01 267.455 803.564 266.168L804.143 264.818L804.245 266.168C804.319 267.163 804.446 267.252 804.73 266.505C804.942 265.949 805.45 265.27 805.858 264.997C806.266 264.725 805.765 264.497 804.744 264.491C803.253 264.483 802.898 264.779 802.936 265.999Z" fill="black"/>
</svg>
