<svg width="134" height="119" viewBox="0 0 134 119" fill="none" xmlns="http://www.w3.org/2000/svg">
<path d="M112.338 2.58643C119.101 8.24596 124.522 15.3233 128.215 23.3121C131.907 31.301 133.779 40.0038 133.696 48.798L75.8159 48.2847C74.9833 48.2773 74.5366 47.3029 75.0743 46.6669L112.338 2.58643Z" fill="#7F7FD5"/>
<path d="M101.638 21.7008V29.749H100.163V21.7008H101.638ZM108.989 21.5971V26.2924H109.675V27.4734H108.989V29.749H107.514V27.4734H104.225V26.5286L108.142 21.5971H108.989ZM107.48 24.0398L105.7 26.2924H107.514V24.0398H107.48ZM112.406 21.5971C112.732 21.5971 113.037 21.6797 113.322 21.8448C113.61 22.01 113.836 22.2385 114.001 22.5304C114.17 22.8184 114.255 23.1276 114.255 23.4579C114.255 23.7882 114.172 24.0974 114.007 24.3855C113.842 24.6697 113.615 24.8963 113.327 25.0653C113.039 25.2304 112.732 25.313 112.406 25.313C112.071 25.313 111.758 25.2304 111.466 25.0653C111.178 24.9001 110.952 24.6735 110.787 24.3855C110.622 24.0974 110.539 23.7882 110.539 23.4579C110.539 23.1238 110.623 22.8127 110.792 22.5246C110.961 22.2327 111.19 22.0061 111.478 21.8448C111.77 21.6797 112.079 21.5971 112.406 21.5971ZM117.619 21.5971L112.135 29.8527H111.167L116.651 21.5971H117.619ZM111.518 23.4579C111.518 23.7076 111.605 23.9226 111.778 24.1032C111.95 24.2798 112.16 24.3682 112.406 24.3682C112.648 24.3682 112.853 24.2818 113.022 24.1089C113.191 23.9323 113.275 23.7152 113.275 23.4579C113.275 23.2044 113.191 22.9894 113.022 22.8127C112.857 22.6322 112.651 22.5419 112.406 22.5419C112.164 22.5419 111.954 22.6322 111.778 22.8127C111.605 22.9932 111.518 23.2083 111.518 23.4579ZM116.392 26.1368C116.719 26.1368 117.026 26.2213 117.314 26.3903C117.606 26.5593 117.832 26.7878 117.994 27.0759C118.159 27.3601 118.242 27.6693 118.242 28.0034C118.242 28.3337 118.159 28.641 117.994 28.9252C117.829 29.2094 117.602 29.436 117.314 29.605C117.03 29.7701 116.723 29.8527 116.392 29.8527C116.058 29.8527 115.747 29.7721 115.459 29.6108C115.171 29.4456 114.942 29.219 114.773 28.9309C114.608 28.6429 114.526 28.3337 114.526 28.0034C114.526 27.6731 114.61 27.3639 114.779 27.0759C114.948 26.784 115.179 26.5555 115.47 26.3903C115.762 26.2213 116.07 26.1368 116.392 26.1368ZM115.505 28.0034C115.505 28.2646 115.593 28.4816 115.77 28.6544C115.947 28.8273 116.154 28.9137 116.392 28.9137C116.63 28.9137 116.836 28.8292 117.009 28.6602C117.181 28.4873 117.268 28.2684 117.268 28.0034C117.268 27.7615 117.181 27.5483 117.009 27.3639C116.84 27.1757 116.634 27.0816 116.392 27.0816C116.146 27.0816 115.937 27.1738 115.764 27.3582C115.591 27.5425 115.505 27.7576 115.505 28.0034Z" fill="#FDFDFF"/>
<path d="M118.97 59.4851C118.97 73.0068 114.363 86.125 105.909 96.6777C97.4548 107.23 85.6574 114.588 72.4614 117.538C59.2653 120.487 45.4581 118.853 33.3153 112.904C21.1724 106.956 11.4186 97.0474 5.66138 84.8126C-0.0958792 72.5779 -1.513 58.7467 1.64358 45.5986C4.80015 32.4505 12.342 20.7702 23.0263 12.4827C33.7105 4.19512 46.8994 -0.205049 60.4194 0.00733838C73.9395 0.219726 86.9837 5.03199 97.4023 13.651L59.4851 59.4851H118.97Z" fill="#059EFF"/>
<path d="M24.7188 73.3957C25.437 73.3957 26.0227 73.605 26.4759 74.0236C26.933 74.4423 27.1615 74.9838 27.1615 75.6483C27.1615 76.3742 26.8312 76.9445 26.1706 77.3593C26.5854 77.5782 26.885 77.849 27.0693 78.1716C27.2537 78.4942 27.3459 78.8725 27.3459 79.3065C27.3459 79.7521 27.2326 80.1553 27.006 80.5164C26.7794 80.8736 26.4644 81.152 26.0611 81.3517C25.6579 81.5514 25.2104 81.6513 24.7188 81.6513C23.9507 81.6513 23.3169 81.4324 22.8177 80.9945C22.3222 80.5567 22.0745 79.994 22.0745 79.3065C22.0745 78.8495 22.1724 78.4635 22.3683 78.1486C22.5642 77.8298 22.8599 77.5667 23.2555 77.3593C22.5949 76.9407 22.2646 76.3665 22.2646 75.6367C22.2646 74.9761 22.4931 74.4384 22.9502 74.0236C23.411 73.605 24.0006 73.3957 24.7188 73.3957ZM23.7394 75.6713C23.7394 76.017 23.8316 76.3012 24.016 76.5239C24.2003 76.7429 24.4346 76.8523 24.7188 76.8523C24.9953 76.8523 25.2258 76.739 25.4101 76.5124C25.5945 76.282 25.6867 76.0016 25.6867 75.6713C25.6867 75.3218 25.5983 75.0453 25.4217 74.8417C25.2488 74.6381 25.0145 74.5364 24.7188 74.5364C24.4192 74.5364 24.1811 74.6362 24.0044 74.8359C23.8278 75.0357 23.7394 75.3141 23.7394 75.6713ZM23.5724 79.2374C23.5724 79.633 23.6761 79.9441 23.8835 80.1707C24.0909 80.3973 24.3693 80.5106 24.7188 80.5106C25.0683 80.5106 25.3429 80.3973 25.5426 80.1707C25.7462 79.9403 25.848 79.6368 25.848 79.2605C25.848 78.8841 25.7443 78.5749 25.5369 78.3329C25.3295 78.091 25.0606 77.97 24.7303 77.97C24.3847 77.97 24.1043 78.0852 23.8892 78.3156C23.678 78.5422 23.5724 78.8495 23.5724 79.2374ZM32.9226 73.3957C32.4924 73.7529 32.0162 74.281 31.4938 74.98C30.9753 75.679 30.6047 76.2916 30.382 76.8178C30.6815 76.691 30.9888 76.6276 31.3037 76.6276C31.7185 76.6276 32.0949 76.7333 32.4329 76.9445C32.7747 77.1519 33.0397 77.4419 33.2279 77.8144C33.4161 78.1831 33.5102 78.5941 33.5102 79.0473C33.5102 79.5274 33.3988 79.9672 33.1761 80.3666C32.9533 80.766 32.6461 81.081 32.2543 81.3114C31.8626 81.538 31.4362 81.6513 30.9753 81.6513C30.1918 81.6513 29.5562 81.3882 29.0684 80.862C28.5845 80.332 28.3425 79.6445 28.3425 78.7996C28.3425 77.9585 28.5941 77.0578 29.0972 76.0976C29.6042 75.1374 30.2936 74.2368 31.1655 73.3957H32.9226ZM29.8404 79.0473C29.8404 79.4198 29.9441 79.7271 30.1515 79.9691C30.3628 80.211 30.6335 80.332 30.9638 80.332C31.2864 80.332 31.5476 80.2187 31.7473 79.9921C31.9471 79.7617 32.0469 79.4583 32.0469 79.0819C32.0469 78.7285 31.9432 78.4366 31.7358 78.2062C31.5323 77.9719 31.2672 77.8548 30.9408 77.8548C30.6258 77.8548 30.3628 77.97 30.1515 78.2004C29.9441 78.427 29.8404 78.7093 29.8404 79.0473ZM36.2064 73.3957C36.5329 73.3957 36.8382 73.4783 37.1224 73.6434C37.4105 73.8086 37.6371 74.0371 37.8022 74.329C37.9712 74.617 38.0557 74.9262 38.0557 75.2565C38.0557 75.5868 37.9731 75.896 37.808 76.184C37.6428 76.4683 37.4162 76.6949 37.1282 76.8638C36.8401 77.029 36.5329 77.1116 36.2064 77.1116C35.8723 77.1116 35.5592 77.029 35.2674 76.8638C34.9793 76.6987 34.7527 76.4721 34.5875 76.184C34.4224 75.896 34.3398 75.5868 34.3398 75.2565C34.3398 74.9224 34.4243 74.6113 34.5933 74.3232C34.7623 74.0313 34.9908 73.8047 35.2789 73.6434C35.5708 73.4783 35.8799 73.3957 36.2064 73.3957ZM41.4202 73.3957L35.9356 81.6513H34.9678L40.4523 73.3957H41.4202ZM35.3192 75.2565C35.3192 75.5062 35.4056 75.7212 35.5785 75.9017C35.7513 76.0784 35.9606 76.1668 36.2064 76.1668C36.4484 76.1668 36.6539 76.0803 36.8228 75.9075C36.9918 75.7308 37.0763 75.5138 37.0763 75.2565C37.0763 75.003 36.9918 74.7879 36.8228 74.6113C36.6577 74.4308 36.4522 74.3405 36.2064 74.3405C35.9644 74.3405 35.7551 74.4308 35.5785 74.6113C35.4056 74.7918 35.3192 75.0069 35.3192 75.2565ZM40.1931 77.9354C40.5195 77.9354 40.8268 78.0199 41.1149 78.1889C41.4067 78.3579 41.6334 78.5864 41.7947 78.8745C41.9598 79.1587 42.0424 79.4679 42.0424 79.802C42.0424 80.1323 41.9598 80.4396 41.7947 80.7238C41.6295 81.008 41.4029 81.2346 41.1149 81.4036C40.8306 81.5687 40.5234 81.6513 40.1931 81.6513C39.8589 81.6513 39.5478 81.5707 39.2598 81.4093C38.9717 81.2442 38.7432 81.0176 38.5742 80.7295C38.4091 80.4415 38.3265 80.1323 38.3265 79.802C38.3265 79.4717 38.411 79.1625 38.58 78.8745C38.749 78.5826 38.9794 78.354 39.2713 78.1889C39.5632 78.0199 39.8705 77.9354 40.1931 77.9354ZM39.3059 79.802C39.3059 80.0632 39.3942 80.2802 39.5709 80.453C39.7476 80.6258 39.955 80.7123 40.1931 80.7123C40.4312 80.7123 40.6367 80.6278 40.8095 80.4588C40.9823 80.2859 41.0688 80.067 41.0688 79.802C41.0688 79.56 40.9823 79.3469 40.8095 79.1625C40.6405 78.9743 40.435 78.8802 40.1931 78.8802C39.9473 78.8802 39.738 78.9724 39.5651 79.1568C39.3923 79.3411 39.3059 79.5562 39.3059 79.802Z" fill="#FDFDFF"/>
</svg>
