<svg width="1083" height="365" viewBox="0 0 1083 365" fill="none" xmlns="http://www.w3.org/2000/svg">
<path fill-rule="evenodd" clip-rule="evenodd" d="M0.350143 0.738074C-1.16036 2.24768 1.89861 2.62102 15.7924 2.62102H31.6116L31.7183 12.3385C31.7779 17.6836 31.7779 22.3607 31.7183 22.734C31.6595 23.1073 47.0692 23.412 65.9619 23.412H100.312V25.7378C100.312 27.4671 100.718 27.986 101.894 27.76C103.085 27.5304 103.476 26.565 103.476 23.8513V20.2481L76.1313 20.0086L48.7867 19.7699V12.5546V5.34011L107.092 5.34645L165.397 5.35368V12.5744V19.7962L141.668 19.8097C128.618 19.8179 117.494 20.1225 116.949 20.4877C115.527 21.4423 116.476 27.9317 118.038 27.9317C118.776 27.9317 119.295 26.9989 119.295 25.6719V23.412H129.239H139.182V26.5758C139.182 29.3482 139.462 29.7396 141.442 29.7396C143.422 29.7396 143.702 29.3482 143.702 26.5758V23.412H163.589H183.476V17.0843V10.7566L198.165 10.6662C206.245 10.6165 211.915 10.3119 210.767 9.98824C209.619 9.66553 208.734 9.00383 208.801 8.51931C208.868 8.0348 208.485 7.49242 207.95 7.31434C207.416 7.13626 206.979 7.58281 206.979 8.30778C206.979 9.39343 204.904 9.63208 195.227 9.66101L183.476 9.69535V6.09581V2.49627L189.126 2.63007C204.345 2.98984 231.608 2.54237 231.009 1.94305C230.636 1.56972 223.958 1.21266 216.169 1.14848C208.38 1.0843 194.075 0.964059 184.38 0.881799C174.685 0.79954 164.515 0.720908 161.781 0.708253C159.047 0.694693 152.227 0.650398 146.626 0.610624C141.026 0.57085 136.193 0.789596 135.886 1.09604C135.58 1.40248 134.602 1.26417 133.712 0.788695C132.585 0.184853 131.96 0.262597 131.643 1.04633C131.311 1.86712 131.17 1.83457 131.118 0.928807C131.06 -0.0709668 130.784 -0.0935572 129.691 0.813109C128.709 1.62757 128.335 1.64927 128.335 0.891758C128.335 0.126109 127.851 0.104409 126.527 0.813109C125.202 1.52181 124.719 1.50011 124.719 0.73446C124.719 0.0546862 124.322 -0.0194312 123.589 0.521134C122.364 1.42509 112.453 1.50462 111.566 0.616941C111.268 0.318637 109.839 0.41447 108.392 0.829385C106.944 1.2443 105.59 1.30847 105.382 0.9722C104.931 0.242709 91.391 0.393676 90.6479 1.13673C90.3632 1.42057 89.4041 1.26417 88.5146 0.788695C87.3874 0.184853 86.7618 0.262597 86.4455 1.04633C86.1137 1.86712 85.9727 1.83457 85.9203 0.928807C85.8624 -0.0709668 85.5858 -0.0935572 84.4929 0.813109C83.5112 1.62757 83.137 1.64927 83.137 0.891758C83.137 0.126109 82.6534 0.104409 81.3291 0.813109C80.3347 1.34554 79.5212 1.46125 79.5212 1.07074C79.5212 0.359327 1.05794 0.0293736 0.350143 0.738074ZM273.977 0.842047C271.301 1.23075 266.725 1.39977 263.808 1.21717C260.789 1.02734 258.504 1.25877 258.504 1.75323C258.504 2.23052 261.553 2.62102 265.284 2.62102C272.534 2.62102 272.825 2.85694 271.527 7.68857C271.041 9.50191 270.446 9.59231 258.885 9.614C248.275 9.63299 246.749 9.4513 246.726 8.16226C246.701 6.8678 246.585 6.88045 245.776 8.27073C244.641 10.2206 241.462 10.3462 240.741 8.47051C240.274 7.25198 240.082 7.26283 239.129 8.56814C237.617 10.6346 234.752 9.83457 234.002 7.13627L233.373 4.8809L233.284 7.36678C233.206 9.50644 232.816 9.85265 230.482 9.85265C228.99 9.85265 227.77 9.44587 227.77 8.9487C227.77 8.45152 227.363 8.04474 226.866 8.04474C226.369 8.04474 225.962 8.65491 225.962 9.40068C225.962 10.5767 229.347 10.7403 251.498 10.6337C265.544 10.5659 276.12 10.3345 275.001 10.1184C271.981 9.53718 272.539 8.04474 275.776 8.04474C277.901 8.04474 278.458 8.37469 278.064 9.40068C277.778 10.1464 277.938 10.7566 278.419 10.7566C278.901 10.7566 279.295 10.1464 279.295 9.40068C279.295 8.25356 281.465 8.04474 293.403 8.04474C305.572 8.04474 307.44 8.23096 306.99 9.40068C306.705 10.1464 306.865 10.7566 307.346 10.7566C307.827 10.7566 308.222 10.1464 308.222 9.40068C308.222 8.24813 310.532 8.04474 323.589 8.04474C336.646 8.04474 338.956 8.24813 338.956 9.40068C338.956 10.1464 339.363 10.7566 339.86 10.7566C340.357 10.7566 340.764 10.1464 340.764 9.40068C340.764 8.24813 343.074 8.04474 356.131 8.04474C369.188 8.04474 371.498 8.24813 371.498 9.40068C371.498 10.1464 371.905 10.7566 372.402 10.7566C372.9 10.7566 373.306 10.1464 373.306 9.40068C373.306 8.25537 375.415 8.04474 386.866 8.04474C398.316 8.04474 400.425 8.25537 400.425 9.40068C400.425 10.5966 411.128 10.7566 491.33 10.7566H582.235L582.032 21.6095C581.92 27.5783 582.098 32.7308 582.426 33.059C582.755 33.388 583.024 28.5039 583.024 22.207V10.7566H586.188C588.397 10.7566 589.351 10.348 589.351 9.40068C589.351 8.65491 588.945 8.04474 588.447 8.04474C587.95 8.04474 587.543 8.45152 587.543 8.9487C587.543 9.44587 586.425 9.81197 585.058 9.76225L582.572 9.67276L584.832 8.9487L587.091 8.22464L584.659 8.13515C583.321 8.08543 581.988 8.42983 581.697 8.90169C581.406 9.37265 578.74 9.74689 575.772 9.73243C571.693 9.71254 570.169 9.33831 569.529 8.19752C568.748 6.80633 568.637 6.80363 568.11 8.17131C567.612 9.46487 565.641 9.64927 552.682 9.61582C540.844 9.58509 537.826 9.33016 537.826 8.35931C537.826 7.68858 537.419 7.14079 536.922 7.14079C536.425 7.14079 536.018 7.71843 536.018 8.42442C536.018 9.44769 534.185 9.70802 526.979 9.70802C520.909 9.70802 517.939 9.37537 517.939 8.69559C517.939 7.9887 517.612 8.01038 516.854 8.7679C515.448 10.1744 511.611 10.1744 511.611 8.7679C511.611 7.92451 511.37 7.92451 510.527 8.7679C508.967 10.3272 505.284 10.1365 505.284 8.49672C505.284 6.58395 503.491 6.79909 503.404 8.72271C503.362 9.66734 503.149 9.84994 502.877 9.17469C502.626 8.55367 501.878 8.04474 501.216 8.04474C500.553 8.04474 499.806 8.55367 499.554 9.17469C499.282 9.84994 499.07 9.66734 499.027 8.72271C498.988 7.85311 498.525 7.14079 497.999 7.14079C497.473 7.14079 497.275 7.51955 497.561 7.98237C497.848 8.4452 497.668 9.07886 497.163 9.39163C496.657 9.70349 496.244 9.52813 496.244 9.00202C496.244 8.47592 495.634 8.04474 494.888 8.04474C494.142 8.04474 493.532 8.36204 493.532 8.75074C493.532 9.13853 489.067 9.52453 483.608 9.60859C475.111 9.73876 473.559 9.53989 472.821 8.22464C472.042 6.83616 471.905 6.82802 471.399 8.14146C470.916 9.39434 468.793 9.59411 455.971 9.59411C444.053 9.59411 441.103 9.35095 441.103 8.36745C441.103 7.6931 440.696 7.14079 440.199 7.14079C439.702 7.14079 439.295 7.72112 439.295 8.42982C439.295 9.49739 436.693 9.70712 424.154 9.65017C414.217 9.60587 408.784 9.23978 408.348 8.58712C407.334 7.06757 407.532 2.62102 408.614 2.62102C409.14 2.62102 409.303 2.18622 408.975 1.6556C408.646 1.12408 407.808 0.908019 407.113 1.17469C406.417 1.44226 405.849 1.36182 405.849 0.997525C405.849 0.633231 404.527 0.387346 402.911 0.450622C401.295 0.514803 395.498 0.66216 390.029 0.779674C384.279 0.903516 381.039 1.26148 382.346 1.62939C383.589 1.98013 387.352 2.14373 390.707 1.99367L396.809 1.72159V4.43075C396.809 6.71866 396.458 7.14079 394.549 7.14079C393.011 7.14079 392.28 6.63638 392.26 5.55887C392.233 4.05198 392.175 4.05198 391.031 5.55887C390.37 6.42847 388.96 7.14079 387.896 7.14079C386.668 7.14079 385.951 6.56407 385.933 5.55887C385.906 4.05198 385.847 4.05198 384.703 5.55887C383.225 7.50508 379.634 7.66599 379.634 5.78486C379.634 5.0391 379.227 4.42893 378.73 4.42893C378.233 4.42893 377.826 5.0391 377.826 5.78486C377.826 6.58938 376.998 7.13987 375.792 7.13897C374.142 7.13716 373.739 6.60746 373.657 4.32859C373.559 1.62215 373.668 1.53897 376.655 2.02349C378.652 2.34801 379.639 2.18261 379.431 1.55888C379.099 0.563629 342.836 0.247239 341.852 1.23074C341.276 1.80746 342.839 1.86351 358.843 1.8382L371.046 1.81922V4.47955C371.046 6.48633 370.626 7.14079 369.338 7.14079C368.399 7.14079 367.09 6.42847 366.429 5.55887C365.286 4.05198 365.227 4.05198 365.2 5.55887C365.179 6.69876 364.431 7.14079 362.525 7.14079C360.766 7.14079 359.741 6.61107 359.466 5.55887C359.073 4.05198 359.047 4.05198 358.948 5.55887C358.874 6.68158 358.075 7.14079 356.197 7.14079C354.438 7.14079 353.413 6.61107 353.138 5.55887C352.745 4.05198 352.72 4.05198 352.62 5.55887C352.545 6.69062 351.743 7.14079 349.803 7.14079C347.835 7.14079 347.084 6.7078 347.063 5.55887C347.036 4.05198 346.977 4.05198 345.833 5.55887C344.555 7.24294 340.229 7.83412 341.248 6.1853C341.572 5.66011 341.588 4.23638 341.284 3.02146C340.83 1.21265 340.202 0.835695 337.809 0.936034C335.756 1.02281 335.48 1.1738 336.881 1.44589C338.453 1.75052 338.835 2.39414 338.689 4.48498C338.474 7.56566 335.855 8.15141 333.887 5.55887C332.743 4.05198 332.684 4.05198 332.657 5.55887C332.639 6.56407 331.922 7.14079 330.694 7.14079C329.63 7.14079 328.22 6.42847 327.559 5.55887C326.415 4.05198 326.357 4.05198 326.33 5.55887C326.312 6.56407 325.595 7.14079 324.366 7.14079C323.302 7.14079 321.892 6.42847 321.231 5.55887C320.088 4.05198 320.029 4.05198 320.002 5.55887C319.982 6.62734 319.254 7.14079 317.758 7.14079C316.54 7.14079 315.129 6.42847 314.622 5.55887C313.744 4.05198 313.699 4.05198 313.672 5.55887C313.654 6.63638 312.925 7.14079 311.385 7.14079C309.487 7.14079 309.126 6.71594 309.126 4.48046C309.126 1.88159 309.23 1.82101 313.709 1.85626C316.23 1.87525 318.535 1.64925 318.831 1.35276C319.128 1.05536 316.455 0.813109 312.892 0.813109H306.414V3.7799C306.414 6.29199 306.067 6.77468 304.154 6.93378C302.547 7.06666 301.886 6.66623 301.865 5.54894C301.838 4.06013 301.773 4.06102 300.636 5.55887C299.975 6.42847 298.565 7.14079 297.501 7.14079C296.272 7.14079 295.555 6.56407 295.537 5.55887C295.51 4.05198 295.451 4.05198 294.308 5.55887C292.83 7.50508 289.239 7.66599 289.239 5.78486C289.239 5.0391 288.832 4.42893 288.335 4.42893C287.837 4.42893 287.431 5.0391 287.431 5.78486C287.431 6.58847 286.603 7.14078 285.397 7.13988C283.865 7.13988 283.33 6.58215 283.233 4.87729C282.93 -0.361125 282.761 -0.434336 273.977 0.842047ZM287.958 0.691977C287.568 1.32203 287.494 2.08136 287.792 2.37966C288.601 3.1887 289.484 1.9991 289.046 0.688363C288.74 -0.230055 288.527 -0.230057 287.958 0.691977ZM232.289 1.89152C232.289 2.7792 238.545 3.11909 248.787 2.78734C262.305 2.34801 259.248 1.0608 244.945 1.16928C237.984 1.22171 232.289 1.54711 232.289 1.89152ZM284.55 1.43052C285.201 1.69177 285.982 1.65921 286.282 1.3591C286.582 1.05899 286.049 0.84566 285.096 0.88453C284.043 0.92792 283.828 1.14216 284.55 1.43052ZM291.498 1.46757C292.493 1.71164 293.815 2.32453 294.436 2.82894C295.253 3.49154 295.566 3.33967 295.566 2.27933C295.566 1.20634 294.779 0.841129 292.628 0.917965C290.699 0.986666 290.312 1.17559 291.498 1.46757ZM296.47 1.16293C296.47 1.35457 297.691 1.69086 299.182 1.90962C300.674 2.12837 301.894 1.97197 301.894 1.56068C301.894 1.14938 300.674 0.813109 299.182 0.813109C297.691 0.813109 296.47 0.970391 296.47 1.16293ZM303.533 1.43052C304.185 1.69177 304.965 1.65921 305.265 1.3591C305.565 1.05899 305.032 0.84566 304.079 0.88453C303.026 0.92792 302.811 1.14216 303.533 1.43052ZM319.972 1.49107C319.972 2.27661 330.699 2.14013 331.494 1.34465C331.787 1.05267 329.314 0.813109 326 0.813109C322.685 0.813109 319.973 1.11774 319.972 1.49107ZM332.628 1.71706C332.628 2.21424 333.035 2.62102 333.532 2.62102C334.029 2.62102 334.436 2.21424 334.436 1.71706C334.436 1.21989 334.029 0.813109 333.532 0.813109C333.035 0.813109 332.628 1.21989 332.628 1.71706ZM410.82 1.71706C410.513 2.21424 410.693 2.62102 411.219 2.62102C411.745 2.62102 412.176 2.21424 412.176 1.71706C412.176 1.21989 411.997 0.813109 411.778 0.813109C411.558 0.813109 411.128 1.21989 410.82 1.71706ZM413.08 1.70261C413.08 2.20792 414.301 2.62102 415.792 2.62102C417.284 2.62102 418.504 2.30103 418.504 1.90962C418.504 1.5182 417.284 1.10508 415.792 0.99118C414.301 0.877282 413.08 1.1973 413.08 1.70261ZM419.408 1.91593C419.408 2.32723 440.967 2.63458 467.318 2.59751C493.668 2.56045 515.227 2.23323 515.227 1.87075C515.227 1.50736 493.668 1.20091 467.318 1.18826C440.967 1.17651 419.408 1.50373 419.408 1.91593ZM516.131 1.69988C516.131 2.2531 519.201 2.62102 523.815 2.62102C528.041 2.62102 531.498 2.28838 531.498 1.8825C531.498 1.47662 528.041 1.06261 523.815 0.962269C519.082 0.849275 516.131 1.1331 516.131 1.69988ZM532.402 1.93312C532.402 2.31188 533.623 2.62102 535.114 2.62102C536.606 2.62102 537.826 2.26215 537.826 1.82283C537.826 1.38351 536.606 1.07434 535.114 1.13491C533.623 1.19637 532.402 1.55527 532.402 1.93312ZM538.73 1.89966C538.73 2.30915 568.018 2.62825 603.815 2.60927C639.611 2.59028 668.899 2.23955 668.899 1.83006C668.899 1.42057 639.611 1.10147 603.815 1.12136C568.018 1.14034 538.73 1.49107 538.73 1.89966ZM670.371 1.90509C670.991 2.90667 673.419 2.80272 673.419 1.77312C673.419 1.30668 672.634 0.98485 671.674 1.05717C670.714 1.12948 670.128 1.51097 670.371 1.90509ZM674.323 1.88882C674.323 2.28204 694.154 2.7096 718.391 2.83796C791.942 3.23027 912.063 2.64542 912.063 1.89604C912.063 1.50825 858.572 1.18734 793.193 1.18282C727.815 1.1783 674.323 1.4956 674.323 1.88882ZM912.967 1.71706C912.967 2.21424 913.374 2.62102 913.871 2.62102C914.368 2.62102 914.775 2.21424 914.775 1.71706C914.775 1.21989 914.368 0.813109 913.871 0.813109C913.374 0.813109 912.967 1.21989 912.967 1.71706ZM915.679 1.88791C915.679 2.29107 951.069 2.62102 994.323 2.62102C1037.58 2.62102 1072.97 2.29469 1072.97 1.89695C1072.97 1.49831 1037.58 1.16836 994.323 1.16293C951.069 1.15841 915.679 1.48384 915.679 1.88791ZM1075.63 1.67006C1076.68 2.33446 1076.18 3.19774 1073.09 6.01898C1069.28 9.50915 1069.18 9.53898 1061.61 9.60769C1055.63 9.66283 1053.98 9.4034 1053.98 8.40905C1053.98 7.7121 1053.58 7.14079 1053.08 7.14079C1052.58 7.14079 1052.18 7.71843 1052.18 8.42442C1052.18 9.48476 1049.5 9.69987 1036.81 9.66371C1024.42 9.62756 1021.44 9.37898 1021.44 8.38011C1021.44 7.69853 1021.03 7.14079 1020.54 7.14079C1020.04 7.14079 1019.63 7.68949 1019.63 8.36022C1019.63 9.33378 1016.53 9.59322 1004.27 9.64294C991.574 9.69356 988.899 9.48203 988.899 8.4226C988.899 7.71751 988.492 7.14079 987.995 7.14079C987.498 7.14079 987.091 7.6931 987.091 8.36745C987.091 9.35095 984.141 9.59411 972.223 9.59411C959.401 9.59411 957.278 9.39434 956.795 8.14146C956.284 6.81536 956.162 6.81809 955.402 8.17131C954.682 9.45493 952.564 9.64927 939.644 9.61582C927.748 9.58509 924.718 9.33016 924.718 8.35931C924.718 7.68858 924.312 7.14079 923.814 7.14079C923.317 7.14079 922.911 7.75096 922.911 8.49672C922.911 10.1365 919.227 10.3272 917.668 8.7679C916.824 7.92451 916.583 7.92451 916.583 8.7679C916.583 9.36451 915.647 9.85265 914.504 9.85265C913.36 9.85265 911.936 9.36451 911.34 8.7679C910.582 8.01038 910.255 7.9887 910.255 8.69559C910.255 9.37537 907.285 9.70802 901.216 9.70802C894.009 9.70802 892.176 9.44769 892.176 8.42442C892.176 7.71843 891.769 7.14079 891.272 7.14079C890.775 7.14079 890.368 7.6931 890.368 8.36745C890.368 9.35095 887.418 9.59411 875.5 9.59411C862.678 9.59411 860.555 9.39434 860.072 8.14146C859.562 6.81898 859.437 6.82349 858.671 8.18756C857.938 9.49197 855.895 9.67999 842.912 9.63751C830.996 9.59773 827.995 9.34192 827.995 8.36475C827.995 7.6913 827.589 7.14079 827.091 7.14079C826.594 7.14079 826.187 7.69853 826.187 8.38011C826.187 9.37898 823.212 9.62756 810.82 9.66371C798.127 9.69987 795.453 9.48476 795.453 8.42442C795.453 7.71843 795.046 7.14079 794.549 7.14079C794.052 7.14079 793.645 7.6931 793.645 8.36745C793.645 9.35095 790.687 9.59411 778.73 9.59411C766.772 9.59411 763.815 9.35095 763.815 8.36745C763.815 6.7557 762.336 6.78824 761.712 8.41355C761.006 10.2522 731.272 10.2043 731.272 8.36475C731.272 7.6913 730.865 7.14079 730.368 7.14079C729.871 7.14079 729.464 7.70396 729.464 8.39186C729.464 9.40791 726.581 9.64203 714.097 9.64203C701.613 9.64203 698.73 9.40791 698.73 8.39186C698.73 7.70396 698.323 7.14079 697.826 7.14079C697.329 7.14079 696.922 7.6913 696.922 8.36475C696.922 9.34192 693.973 9.59231 682.252 9.61039C669.727 9.62937 667.423 9.41694 666.498 8.16044C665.498 6.80451 665.367 6.80724 664.827 8.19843C664.374 9.36724 663.036 9.71254 658.887 9.73243C655.879 9.74689 653.532 9.36 653.532 8.84837C653.532 8.34758 653.125 8.18938 652.628 8.49672C652.131 8.80407 651.724 9.43773 651.724 9.90598C651.724 10.4348 730.662 10.7566 860.538 10.7566H1069.35V13.0698C1069.35 14.3417 1069.72 15.1553 1070.17 14.8768C1070.62 14.5984 1070.77 13.5444 1070.51 12.5338C1069.97 10.4565 1072.69 6.86238 1074.13 7.75368C1074.64 8.06735 1074.8 7.90915 1074.48 7.40112C1073.83 6.34802 1077.2 2.94101 1078.06 3.79253C1078.36 4.09988 1078.31 5.08068 1077.94 5.97198C1076.9 8.48226 1076.9 21.605 1077.94 21.6031C1078.48 21.6031 1078.88 17.4721 1078.94 11.2077L1079.03 0.813109L1076.68 0.826682C1074.9 0.837529 1074.64 1.04271 1075.63 1.67006ZM277.487 2.54598C277.487 3.00158 276.979 3.61174 276.357 3.90191C275.453 4.32316 275.453 4.5347 276.357 4.95594C276.979 5.24611 277.487 5.85628 277.487 6.31187C277.487 7.62351 275.109 7.27638 273.871 5.78486C272.974 4.70282 272.974 4.15503 273.871 3.07299C275.109 1.58147 277.487 1.23434 277.487 2.54598ZM281.555 2.62102C281.862 3.11819 281.91 3.52497 281.662 3.52497C281.413 3.52497 280.958 3.11819 280.651 2.62102C280.344 2.12384 280.296 1.71706 280.544 1.71706C280.793 1.71706 281.248 2.12384 281.555 2.62102ZM406.176 3.07299C406.859 4.85559 405.944 7.14079 404.547 7.14079C403.918 7.14079 403.438 5.96746 403.438 4.42893C403.438 1.59503 405.262 0.691979 406.176 3.07299ZM104.572 7.70215C104.218 8.0565 103.928 8.9514 103.928 9.69174C103.928 10.809 104.219 10.7738 105.646 9.48203C106.649 8.57446 107.591 8.29333 107.909 8.80859C108.652 10.0108 107.673 12.3213 106.177 12.8954C105.503 13.1548 104.503 14.2025 103.955 15.2258C103.028 16.9586 103.207 17.0843 106.608 17.0843C108.614 17.0843 110.256 16.6775 110.256 16.1803C110.256 15.6832 109.372 15.2764 108.29 15.2764H106.324L108.372 13.0969C110.95 10.3534 110.547 7.68136 107.502 7.32521C106.245 7.17786 104.926 7.3478 104.572 7.70215ZM112.703 10.4601C110.182 14.0018 110.247 15.2764 112.946 15.2764C113.869 15.2764 114.831 15.7853 115.084 16.4063C115.722 17.981 117.626 15.252 117.025 13.6203C116.782 12.9586 116.583 11.2294 116.583 9.77853C116.583 6.27209 115.554 6.45288 112.703 10.4601ZM491.121 7.74372C491.453 8.07457 491.995 8.07457 492.327 7.74372C492.658 7.41197 492.387 7.14079 491.724 7.14079C491.062 7.14079 490.791 7.41197 491.121 7.74372ZM600.199 8.07368C600.199 8.58713 599.283 9.36362 598.165 9.79842C596.934 10.2784 607.011 10.5794 623.702 10.5613C638.865 10.5451 650.357 10.3507 649.238 10.1293C648.12 9.90779 647.204 9.29854 647.204 8.77515C647.204 8.13063 646.839 8.11706 646.074 8.73355C645.453 9.23434 642.606 9.6574 639.747 9.67367C635.849 9.69627 634.549 9.3835 634.549 8.4226C634.549 7.71751 634.142 7.14079 633.645 7.14079C633.148 7.14079 632.741 7.70396 632.741 8.39186C632.741 9.40791 629.858 9.64203 617.374 9.64203C604.89 9.64203 602.007 9.40791 602.007 8.39186C602.007 7.70396 601.6 7.14079 601.103 7.14079C600.606 7.14079 600.199 7.56114 600.199 8.07368ZM210.896 8.64767C211.227 8.97852 211.77 8.97852 212.101 8.64767C212.432 8.31592 212.161 8.04474 211.498 8.04474C210.836 8.04474 210.565 8.31592 210.896 8.64767ZM213.306 9.40068C213.306 10.4827 214.54 10.7358 219.408 10.6518C222.764 10.5939 224.696 10.3435 223.702 10.0949C222.708 9.84633 221.558 9.18192 221.147 8.61785C220.6 7.86667 220.278 7.89469 219.942 8.72271C219.399 10.0597 215.114 10.2603 215.114 8.9487C215.114 8.45152 214.708 8.04474 214.21 8.04474C213.713 8.04474 213.306 8.65491 213.306 9.40068ZM216.753 8.66216C217.405 8.9234 218.185 8.89085 218.485 8.59074C218.785 8.29062 218.252 8.0773 217.299 8.11617C216.246 8.15955 216.032 8.3738 216.753 8.66216ZM223.081 8.66216C223.733 8.9234 224.513 8.89085 224.813 8.59074C225.113 8.29062 224.58 8.0773 223.627 8.11617C222.574 8.15955 222.36 8.3738 223.081 8.66216ZM406.753 8.9487C406.753 9.44587 405.736 9.85265 404.493 9.85265C403.25 9.85265 402.233 9.44587 402.233 8.9487C402.233 8.45152 403.25 8.04474 404.493 8.04474C405.736 8.04474 406.753 8.45152 406.753 8.9487ZM590.99 8.66216C591.642 8.9234 592.422 8.89085 592.722 8.59074C593.022 8.29062 592.489 8.0773 591.536 8.11617C590.483 8.15955 590.269 8.3738 590.99 8.66216ZM593.871 9.40068C593.871 10.1464 594.278 10.7566 594.775 10.7566C595.272 10.7566 595.679 10.1464 595.679 9.40068C595.679 8.65491 595.272 8.04474 594.775 8.04474C594.278 8.04474 593.871 8.65491 593.871 9.40068ZM597.318 8.66216C597.97 8.9234 598.75 8.89085 599.05 8.59074C599.35 8.29062 598.817 8.0773 597.864 8.11617C596.811 8.15955 596.597 8.3738 597.318 8.66216ZM590.99 10.4701C591.642 10.7313 592.422 10.6988 592.722 10.3986C593.022 10.0985 592.489 9.8852 591.536 9.92407C590.483 9.96746 590.269 10.1817 590.99 10.4701ZM114.417 13.2235C113.499 14.1428 112.741 12.7589 113.494 11.5394C114.064 10.6174 114.277 10.6174 114.583 11.5358C114.793 12.1641 114.718 12.9234 114.417 13.2235ZM1069.35 20.7534C1069.35 21.2795 1069.76 21.4594 1070.26 21.1521C1070.75 20.8447 1071.16 20.4145 1071.16 20.1948C1071.16 19.9751 1070.75 19.7962 1070.26 19.7962C1069.76 19.7962 1069.35 20.2273 1069.35 20.7534ZM0.877142 26.5758C0.877142 31.0495 2.27466 32.0917 2.99872 28.1577C3.702 24.3367 3.4055 22.508 2.08211 22.508C1.2568 22.508 0.877142 23.7889 0.877142 26.5758ZM10.1363 24.0899C10.0161 25.209 9.30652 26.1238 8.56075 26.1238C7.81499 26.1238 7.20482 26.5306 7.20482 27.0278C7.20482 27.525 7.81499 27.9317 8.56075 27.9317C10.2231 27.9317 10.4184 32.0972 8.78674 32.7598C7.97228 33.0897 7.93793 33.4269 8.66471 33.9647C9.31104 34.4438 9.69432 39.0016 9.73409 46.6888C9.78923 57.3265 9.62652 58.6698 8.27511 58.6951C6.8794 58.7213 6.87488 58.8162 8.21635 59.8377C9.45748 60.7823 9.68165 63.1787 9.69612 75.628C9.70968 87.5493 9.47736 90.3046 8.4586 90.3046C7.76888 90.3046 7.20482 90.7114 7.20482 91.2085C7.20482 91.7057 7.78245 92.1125 8.48844 92.1125C9.54877 92.1125 9.76392 94.7864 9.72776 107.48C9.6916 119.871 9.44301 122.847 8.44415 122.847C7.76256 122.847 7.20482 123.254 7.20482 123.751C7.20482 124.248 7.76256 124.655 8.44415 124.655C9.44301 124.655 9.6916 127.623 9.72776 139.97C9.76663 153.55 9.6003 155.326 8.26245 155.649C6.89928 155.978 6.91013 156.082 8.37363 156.717C9.26493 157.104 10.1834 157.232 10.4139 157.002C10.6435 156.771 10.7257 126.315 10.5947 89.3193C10.4636 52.325 10.2575 22.9708 10.1363 24.0899ZM24.38 26.1238C24.38 29.3781 24.6059 29.7396 26.6398 29.7396C28.6737 29.7396 28.8997 29.3781 28.8997 26.1238C28.8997 22.8696 28.6737 22.508 26.6398 22.508C24.6059 22.508 24.38 22.8696 24.38 26.1238ZM271.762 23.1109C271.431 23.4418 271.159 25.0689 271.159 26.7268C271.159 29.3383 271.46 29.7396 273.419 29.7396C275.453 29.7396 275.679 29.3781 275.679 26.1238C275.679 23.2203 275.353 22.508 274.022 22.508C273.11 22.508 272.093 22.7792 271.762 23.1109ZM1077.04 23.402C1076.72 23.9137 1077.09 24.0655 1077.89 23.7573C1079.46 23.1561 1079.74 22.508 1078.44 22.508C1077.98 22.508 1077.34 22.9103 1077.04 23.402ZM403.513 24.6386C403.227 25.3835 403.128 26.9374 403.291 28.0917C403.512 29.6493 404.172 30.1916 405.849 30.1916C407.828 30.1916 408.109 29.8002 408.109 27.0278C408.109 24.4334 407.741 23.8115 406.071 23.5747C404.882 23.4056 403.816 23.8495 403.513 24.6386ZM536.018 27.0278C536.018 30.282 536.244 30.6436 538.278 30.6436C540.312 30.6436 540.538 30.282 540.538 27.0278C540.538 23.7735 540.312 23.412 538.278 23.412C536.244 23.412 536.018 23.7735 536.018 27.0278ZM667.995 26.5758C667.995 29.3067 668.29 29.7396 670.15 29.7396C672.373 29.7396 673.351 27.9335 672.721 24.9939C672.512 24.0149 671.546 23.412 670.189 23.412C668.285 23.412 667.995 23.8296 667.995 26.5758ZM800.501 25.4459C800.624 26.565 800.76 27.9887 800.802 28.6097C800.843 29.2316 801.894 29.7396 803.137 29.7396C805.116 29.7396 805.396 29.3482 805.396 26.5758C805.396 23.7048 805.16 23.412 802.836 23.412C800.716 23.412 800.313 23.7618 800.501 25.4459ZM932.854 26.5758C932.854 29.3482 933.134 29.7396 935.114 29.7396C937.094 29.7396 937.374 29.3482 937.374 26.5758C937.374 23.8034 937.094 23.412 935.114 23.412C933.134 23.412 932.854 23.8034 932.854 26.5758ZM1047.66 26.5758C1047.66 29.3482 1047.94 29.7396 1049.92 29.7396C1051.9 29.7396 1052.18 29.3482 1052.18 26.5758C1052.18 23.8034 1051.9 23.412 1049.92 23.412C1047.94 23.412 1047.66 23.8034 1047.66 26.5758ZM1069.35 26.6038C1069.35 27.3342 1069.96 27.9317 1070.71 27.9317C1071.45 27.9317 1072.06 27.5683 1072.06 27.1245C1072.06 26.6807 1071.45 26.0832 1070.71 25.7966C1069.88 25.4802 1069.35 25.7957 1069.35 26.6038ZM4.79397 26.7268C5.12572 27.0576 5.66811 27.0576 5.99986 26.7268C6.3307 26.395 6.05951 26.1238 5.39691 26.1238C4.73432 26.1238 4.46312 26.395 4.79397 26.7268ZM542.346 27.0278C542.346 27.6904 542.617 27.9616 542.949 27.6307C543.28 27.299 543.28 26.7566 542.949 26.4249C542.617 26.094 542.346 26.3652 542.346 27.0278ZM1076.58 27.0278C1076.58 27.525 1077.19 27.9317 1077.94 27.9317C1078.68 27.9317 1079.29 27.525 1079.29 27.0278C1079.29 26.5306 1078.68 26.1238 1077.94 26.1238C1077.19 26.1238 1076.58 26.5306 1076.58 27.0278ZM1078.46 30.2667C1078.51 31.3198 1078.72 31.534 1079.01 30.8135C1079.27 30.1609 1079.24 29.3808 1078.94 29.0807C1078.64 28.7805 1078.42 29.3139 1078.46 30.2667ZM1.0055 41.4911C0.885276 47.2321 1.15737 50.5306 1.75036 50.5306C2.33161 50.5306 2.68505 47.11 2.68505 41.4911C2.68505 36.5193 2.34969 32.4515 1.93929 32.4515C1.5289 32.4515 1.10855 36.5193 1.0055 41.4911ZM1068.62 36.7453C1068.96 41.9629 1070.41 41.6339 1070.63 36.2933C1070.73 33.6022 1070.42 32.4515 1069.56 32.4515C1068.68 32.4515 1068.42 33.6149 1068.62 36.7453ZM1076.76 33.4233C1076.93 33.9575 1077.47 34.395 1077.94 34.395C1078.41 34.395 1078.94 33.9575 1079.12 33.4233C1079.3 32.889 1078.77 32.4515 1077.94 32.4515C1077.11 32.4515 1076.58 32.889 1076.76 33.4233ZM1077.41 37.6492C1076.9 47.8359 1077.2 60.4741 1077.94 60.4741C1078.5 60.4741 1078.88 55.7844 1078.93 48.2707C1078.98 41.5589 1078.67 36.0673 1078.25 36.0673C1077.83 36.0673 1077.45 36.7796 1077.41 37.6492ZM823.494 38.3055C822.845 39.0875 822.631 40.0221 823.018 40.3828C823.406 40.7435 823.905 40.5311 824.126 39.9091C824.665 38.4013 827.091 38.4574 827.091 39.9778C827.091 40.6368 826.074 42.1311 824.831 43.299C821.755 46.1889 821.983 46.9175 825.961 46.9012C828.375 46.8913 828.973 46.6481 828.039 46.0569C827.316 45.5995 826.299 45.4684 825.779 45.764C825.257 46.0605 825.781 45.2596 826.94 43.9851C829.509 41.1611 829.309 37.5462 826.56 37.1539C825.522 37.0056 824.143 37.5236 823.494 38.3055ZM831.348 37.5353C830.996 37.8879 830.707 38.7683 830.707 39.4924C830.707 40.569 830.958 40.6007 832.085 39.6651C833.735 38.2956 835.102 39.2655 833.616 40.7516C832.834 41.5335 832.961 42.0732 834.129 42.9356C835.342 43.8323 835.441 44.3222 834.587 45.1882C833.726 46.0623 833.197 46.0479 832.079 45.1204C830.131 43.5042 829.372 44.5464 831.181 46.3552C832.952 48.1261 833.509 48.1622 835.594 46.6373C837.902 44.9496 836.508 37.5507 833.809 37.1593C832.808 37.0138 831.701 37.1837 831.348 37.5353ZM1069.35 46.4628C1069.35 48.8655 1069.6 50.5876 1069.89 50.2892C1070.19 49.9909 1070.44 48.2689 1070.44 46.4628C1070.44 44.6567 1070.19 42.9347 1069.89 42.6364C1069.6 42.3381 1069.35 44.0601 1069.35 46.4628ZM1.0272 73.5814C1.04076 85.7622 1.35171 95.7283 1.71781 95.7283C2.5847 95.7283 2.56121 96.2228 2.6516 76.2933C2.7646 51.4463 2.7637 51.4346 1.84438 51.4346C1.3472 51.4346 1.01274 60.5057 1.0272 73.5814ZM1069.35 53.6411C1069.35 56.4108 1069.87 56.635 1070.52 54.1473C1070.78 53.1539 1070.62 52.1125 1070.17 51.8341C1069.72 51.5557 1069.35 52.3692 1069.35 53.6411ZM1069.35 59.2646C1069.35 60.0565 1070 60.4813 1070.93 60.3023C1071.8 60.1342 1072.51 59.6352 1072.51 59.1923C1072.51 58.7494 1071.8 58.282 1070.93 58.1545C1070.03 58.0226 1069.35 58.4999 1069.35 59.2646ZM1077.94 62.282C1077.63 62.7792 1077.81 63.186 1078.34 63.186C1078.86 63.186 1079.29 62.7792 1079.29 62.282C1079.29 61.7848 1079.12 61.3781 1078.9 61.3781C1078.68 61.3781 1078.25 61.7848 1077.94 62.282ZM1069.35 64.5952C1069.35 65.8671 1069.72 66.6807 1070.17 66.4022C1070.62 66.1238 1070.78 65.0825 1070.52 64.089C1069.87 61.6013 1069.35 61.8255 1069.35 64.5952ZM1077.3 64.7534C1076.59 66.3652 1077.19 79.4562 1077.98 79.4581C1078.99 79.4608 1079.28 65.0915 1078.28 64.4759C1077.91 64.2472 1077.47 64.372 1077.3 64.7534ZM1069.35 70.4709C1069.35 71.9914 1069.7 73.0183 1070.13 72.7525C1070.86 72.3023 1070.46 67.7057 1069.7 67.7057C1069.51 67.7057 1069.35 68.9505 1069.35 70.4709ZM692.122 72.9062L563.028 73.1358L563.308 76.522L563.589 79.9091L576.696 80.5581C583.905 80.9152 605.058 81.1719 623.702 81.1285C642.346 81.0852 659.329 81.0978 661.442 81.1575L665.284 81.265V155.841V230.418L625.284 230.54C603.284 230.607 580.402 230.913 574.436 231.218L563.589 231.773L563.308 235.163L563.027 238.553L684.89 238.724C888.657 239.01 991.135 239.058 991.642 238.869C991.907 238.769 991.965 237.031 991.773 235.005L991.421 231.321H950.386H909.351L909.353 169.627L909.355 107.932L903.929 108.238L898.504 108.545V113.941C898.504 117.308 898.164 119.128 897.6 118.779C897.103 118.472 896.696 118.652 896.696 119.178C896.696 119.704 897.103 120.135 897.6 120.135C898.191 120.135 898.504 136.574 898.504 167.646C898.504 199.09 898.198 214.968 897.6 214.598C897.103 214.291 896.696 214.471 896.696 214.997C896.696 215.523 897.103 215.954 897.6 215.954C898.131 215.954 898.504 219.114 898.504 223.626V231.298L867.091 231.536L835.679 231.773L835.393 234.259C835.114 236.681 834.958 236.745 829.351 236.745C823.744 236.745 823.589 236.681 823.309 234.259L823.024 231.773L808.786 231.525L794.549 231.275V234.064V236.853L789.351 236.573C784.433 236.309 784.138 236.159 783.868 233.807L783.581 231.321H775.506H767.43V233.866C767.43 236.287 767.242 236.403 763.589 236.225C760.207 236.061 759.747 235.783 759.747 233.906V231.773H744.832C730.108 231.773 729.917 231.799 730.018 233.73C730.109 235.472 729.586 235.722 725.271 235.99C720.511 236.288 720.422 236.248 720.424 233.807C720.425 231.758 720.028 231.321 718.165 231.321C716.357 231.321 715.905 231.773 715.905 233.581V235.841H699.181H682.457L682.475 188.479C682.489 151.592 682.745 140.91 683.629 140.176C684.254 139.658 686.584 139.061 688.809 138.851C691.724 138.574 691.402 138.512 687.656 138.625L682.459 138.782V109.589V80.3954L702.572 80.1523C722.658 79.9091 722.685 79.9064 722.974 77.8752C723.222 76.1206 723.805 75.8413 727.204 75.8413C730.604 75.8413 731.186 76.1206 731.435 77.8752C731.698 79.7229 732.282 79.9335 737.826 80.1767C743.831 80.4397 743.928 80.4072 743.928 78.1428C743.928 75.9498 744.167 75.8413 749.005 75.8413C753.637 75.8413 754.04 75.9995 753.609 77.6492C753.146 79.4192 753.614 79.4599 775.877 79.5946C798.499 79.731 882.558 79.3649 882.825 79.129C882.901 79.0612 883.105 77.5814 883.277 75.8413L883.589 72.6775H852.402C835.25 72.6775 763.123 72.7805 692.122 72.9062ZM894.888 75.7699V79.3143L901.894 79.6117C905.747 79.7753 927.51 79.7952 950.255 79.6569L991.611 79.4047V75.8151V72.2255H943.249H894.888V75.7699ZM1069.6 77.6492C1069.6 79.8865 1069.77 80.8022 1069.99 79.6831C1070.2 78.564 1070.2 76.7344 1069.99 75.6153C1069.77 74.4962 1069.6 75.4119 1069.6 77.6492ZM18.6552 80.0601C18.3235 80.3909 18.0523 90.357 18.0523 102.207V123.751H28.4477H38.8432V176.15V228.55L28.8961 228.806C15.1153 229.16 16.2417 230.869 30.2557 230.869H41.1031V155.389V79.9091L39.0692 79.6199C37.9501 79.4617 37.0353 79.7663 37.0353 80.2978C37.0353 80.8302 37.4421 81.265 37.9393 81.265C38.5151 81.265 38.8432 88.6476 38.8432 101.604V121.943H29.8037H20.7641V101.821V81.6998L23.6161 81.708C25.1845 81.7134 26.6417 81.209 26.855 80.5871C27.1262 79.7952 26.0477 79.4571 23.25 79.4571C21.0543 79.4571 18.9861 79.7283 18.6552 80.0601ZM181.668 80.3611C167.705 80.9704 167.139 81.4983 180.312 81.6284L189.352 81.717L189.599 97.3102L189.846 112.903H173.607C164.675 112.903 157.165 112.576 156.918 112.176C156.671 111.775 160.085 111.621 164.506 111.832C168.927 112.044 173.58 111.957 174.846 111.639L177.148 111.061V97.6158C177.148 86.1889 176.933 84.0881 175.718 83.6217C174.932 83.3197 170.661 83.073 166.227 83.073H158.165V96.1803C158.165 104.316 157.823 109.288 157.261 109.288C156.699 109.288 156.357 104.18 156.357 95.7735C156.357 83.8558 156.544 82.15 157.939 81.3373C159.352 80.5148 159.303 80.4135 157.487 80.3882L155.453 80.3611V97.5869V114.814L172.084 114.652C181.231 114.563 189.106 114.732 189.583 115.027C190.113 115.355 190.521 132.564 190.633 159.299L190.817 203.034L188.276 204.027C186.879 204.573 183.092 205.842 179.86 206.846C176.628 207.851 175.306 208.449 176.922 208.174C178.884 207.841 179.86 208.036 179.86 208.762C179.86 209.605 180.155 209.603 181.176 208.755C181.9 208.155 182.917 207.925 183.436 208.246C183.955 208.567 184.38 208.263 184.38 207.572C184.38 206.88 185.804 205.877 187.544 205.343L190.708 204.372V218.299V232.225H193.345C199.316 232.225 198.843 238.795 198.843 155.85V80.5717L196.809 80.0266C195.69 79.7274 194.572 79.5602 194.323 79.6551C194.075 79.7509 188.38 80.0682 181.668 80.3611ZM680.651 108.836V138.214H677.487H674.323V109.345V80.4759L677.261 80.1107C678.877 79.9109 680.3 79.6813 680.425 79.6018C680.549 79.5222 680.651 92.6775 680.651 108.836ZM1077.39 82.847C1076.98 89.2226 1077.14 91.8657 1078 93.2289C1078.77 94.4483 1078.99 93.2949 1078.99 88.0311C1078.99 84.3095 1078.65 81.265 1078.24 81.265C1077.83 81.265 1077.44 81.9774 1077.39 82.847ZM170.713 84.56L176.294 85.1439L176.043 97.4413L175.792 109.74L167.431 110L159.069 110.259V97.1186V83.9769H162.1C163.768 83.9769 167.643 84.239 170.713 84.56ZM1069.42 85.4079C1069.47 86.461 1069.68 86.6752 1069.97 85.9548C1070.23 85.3021 1070.2 84.522 1069.9 84.2219C1069.6 83.9218 1069.38 84.4551 1069.42 85.4079ZM181.167 86.7674C180.834 87.308 181.013 88.2029 181.566 88.7561C182.304 89.4946 182.572 89.2334 182.572 87.7735C182.572 85.5905 182.103 85.2542 181.167 86.7674ZM178.052 88.8953C178.052 89.67 178.459 90.3046 178.956 90.3046C179.453 90.3046 179.86 89.9222 179.86 89.454C179.86 88.9857 179.453 88.352 178.956 88.0447C178.459 87.7374 178.052 88.1206 178.052 88.8953ZM1069.35 88.4967C1069.35 89.1593 1069.62 89.4305 1069.95 89.0996C1070.28 88.7679 1070.28 88.2255 1069.95 87.8938C1069.62 87.5629 1069.35 87.8341 1069.35 88.4967ZM433.57 90.0036C432.589 90.9844 432.881 92.7905 434.097 93.2569C434.806 93.5281 435.227 92.8899 435.227 91.5457C435.227 89.3889 434.687 88.8863 433.57 90.0036ZM492.831 90.4637C491.686 91.6081 492.908 93.9204 494.658 93.9204C495.215 93.9204 495.181 93.4621 494.568 92.7236C493.843 91.8504 493.862 91.2402 494.639 90.4637C495.241 89.8616 495.31 89.4006 494.798 89.4006C494.301 89.4006 493.416 89.8788 492.831 90.4637ZM1069.47 93.2424C1069.56 95.3667 1069.71 95.6171 1069.99 94.1464C1070.2 93.0273 1070.99 92.1125 1071.73 92.1125C1072.47 92.1125 1072.82 91.7057 1072.51 91.2085C1071.21 89.1014 1069.35 90.3453 1069.47 93.2424ZM178.052 97.0843C178.052 99.3215 178.425 101.152 178.881 101.152C179.337 101.152 179.709 99.3215 179.709 97.0843C179.709 94.847 179.337 93.0165 178.881 93.0165C178.425 93.0165 178.052 94.847 178.052 97.0843ZM0.814769 138.892C0.772283 162.135 0.558052 204.643 0.338391 233.355C0.0888999 265.964 0.261551 285.559 0.797596 285.559C1.26946 285.559 1.83172 286.474 2.04686 287.593C2.26291 288.711 2.51059 281.288 2.59917 271.095C2.74652 253.936 2.71127 245.259 2.32347 203.977C2.24483 195.65 2.39578 188.837 2.65883 188.837C2.92188 188.838 2.93364 182.339 2.68505 174.395C2.43646 166.45 2.43646 159.107 2.68505 158.077C3.53658 154.545 2.66968 96.6323 1.76482 96.6323C1.21702 96.6323 0.862678 112.385 0.814769 138.892ZM1069.35 99.2908C1069.35 100.811 1069.51 102.056 1069.7 102.056C1070.46 102.056 1070.86 97.4594 1070.13 97.0092C1069.7 96.7435 1069.35 97.7704 1069.35 99.2908ZM1077.42 97.3102C1076.99 101.528 1077.5 113.283 1078.14 113.918C1078.64 114.415 1078.94 111.145 1078.91 105.687C1078.88 100.707 1078.55 96.6323 1078.17 96.6323C1077.8 96.6323 1077.46 96.9369 1077.42 97.3102ZM1069.35 104.369C1069.35 105.144 1069.76 105.523 1070.27 105.211C1070.77 104.898 1070.95 104.264 1070.67 103.802C1069.89 102.548 1069.35 102.781 1069.35 104.369ZM178.052 104.768C178.052 105.265 178.459 105.672 178.956 105.672C179.453 105.672 179.86 105.265 179.86 104.768C179.86 104.271 179.453 103.864 178.956 103.864C178.459 103.864 178.052 104.271 178.052 104.768ZM24.1296 106.35C23.9334 106.723 23.8078 108.248 23.8502 109.74C23.9153 112.009 24.2968 112.451 26.1879 112.451C28.1467 112.451 28.4848 112 28.728 109.062C28.9838 105.973 28.8075 105.672 26.7474 105.672C25.5045 105.672 24.3257 105.976 24.1296 106.35ZM180.764 107.028C180.764 107.774 181.171 108.384 181.668 108.384C182.165 108.384 182.572 107.774 182.572 107.028C182.572 106.282 182.165 105.672 181.668 105.672C181.171 105.672 180.764 106.282 180.764 107.028ZM988.41 106.802C988.172 107.424 988.083 129.898 988.212 156.745C988.417 199.428 988.617 205.559 989.803 205.559C990.989 205.559 991.188 199.303 991.392 155.615C991.601 111.148 991.474 105.672 990.234 105.672C989.469 105.672 988.648 106.181 988.41 106.802ZM139.182 109.74C139.182 112.512 139.462 112.903 141.442 112.903C143.422 112.903 143.702 112.512 143.702 109.74C143.702 106.967 143.422 106.576 141.442 106.576C139.462 106.576 139.182 106.967 139.182 109.74ZM271.159 110.255C271.159 113.553 271.37 113.903 273.193 113.645C274.827 113.412 275.282 112.688 275.508 109.966C275.765 106.858 275.596 106.576 273.474 106.576C271.37 106.576 271.159 106.91 271.159 110.255ZM404.041 110.255C404.041 113.553 404.251 113.903 406.075 113.645C407.708 113.412 408.164 112.688 408.389 109.966C408.646 106.858 408.477 106.576 406.355 106.576C404.251 106.576 404.041 106.91 404.041 110.255ZM536.19 109.966C536.412 112.659 536.842 113.355 538.278 113.355C539.714 113.355 540.144 112.659 540.366 109.966C540.626 106.84 540.463 106.576 538.278 106.576C536.093 106.576 535.93 106.84 536.19 109.966ZM932.854 110.192C932.854 113.446 933.08 113.807 935.114 113.807C937.148 113.807 937.374 113.446 937.374 110.192C937.374 106.937 937.148 106.576 935.114 106.576C933.08 106.576 932.854 106.937 932.854 110.192ZM1047.66 110.192C1047.66 113.446 1047.88 113.807 1049.92 113.807C1051.95 113.807 1052.18 113.446 1052.18 110.192C1052.18 106.937 1051.95 106.576 1049.92 106.576C1047.88 106.576 1047.66 106.937 1047.66 110.192ZM798.553 108.297C798.339 108.51 798.165 112.075 798.165 116.218V123.751H794.549C792.56 123.751 790.933 124.158 790.933 124.655C790.933 125.152 792.56 125.559 794.549 125.559H798.165V131.886V138.214H795.453C793.645 138.214 792.741 137.762 792.741 136.858C792.741 136.112 792.334 135.502 791.837 135.502C791.265 135.502 790.933 142.131 790.933 153.581C790.933 167.401 790.666 171.679 789.803 171.737C785.236 172.049 778.627 171.326 778.073 170.455C777.575 169.674 777.398 169.694 777.387 170.531C777.378 171.382 774.15 171.66 764.306 171.66H751.239L750.927 165.107L750.614 158.553L750.435 165.107L750.255 171.66H743.891H737.529L737.544 164.203C737.553 160.101 737.548 156.135 737.535 155.389C737.52 154.644 737.594 153.423 737.697 152.677C738.164 149.308 737.525 138.214 736.864 138.214C736.46 138.214 736.305 140.655 736.521 143.638C736.879 148.588 736.756 149.062 735.108 149.062C733.19 149.062 730.919 151.119 731.829 152.029C732.127 152.328 733.123 152.102 734.04 151.529C737.029 149.663 737.097 151.726 734.149 154.768C730.587 158.442 730.565 159.005 733.984 159.005H736.696V165.333V171.66H730.368H724.041V154.786C724.041 145.506 723.803 138.151 723.512 138.442C723.221 138.733 723.034 146.326 723.095 155.316L723.209 171.66H716.845H710.481V154.937C710.481 145.74 710.177 138.213 709.803 138.213C709.43 138.212 709.252 145.738 709.407 154.936L709.689 171.66H703.306H696.922V154.937C696.922 139.801 696.776 138.214 695.385 138.214C694.19 138.214 694.09 138.456 694.933 139.299C695.693 140.059 696.018 145.055 696.018 155.982V171.581L689.464 171.893C685.86 172.065 706.707 172.334 735.792 172.492C764.877 172.649 789.182 172.713 789.803 172.632C790.425 172.551 790.933 173.317 790.933 174.333C790.933 175.349 791.34 176.18 791.837 176.18C792.334 176.18 792.741 175.57 792.741 174.824C792.741 173.92 793.645 173.468 795.453 173.468H798.165V179.915V186.361L794.549 185.877C791.816 185.51 790.933 185.702 790.933 186.662C790.933 187.539 792.043 187.932 794.526 187.932H798.119L798.368 202.169L798.617 216.406L802.505 216.47C804.643 216.507 806.596 216.206 806.845 215.805C807.092 215.404 807.274 207.137 807.247 197.436L807.197 179.796H815.336H823.476V191.491V203.184L820.538 203.468C818.922 203.623 817.803 204.158 818.052 204.655C818.307 205.164 821.76 205.504 825.961 205.431L833.419 205.304V209.357V213.41L828.446 213.1C824.194 212.836 823.473 213.02 823.475 214.372C823.476 215.717 824.359 215.954 829.351 215.954H835.227V210.531C835.227 207.518 835.628 205.107 836.131 205.107C836.628 205.107 837.035 204.7 837.035 204.203C837.035 203.693 834.474 203.299 831.159 203.299H825.283V191.547V179.796H830.255H835.227V184.768C835.227 188.306 835.574 189.74 836.431 189.74C837.339 189.74 837.534 188.513 837.223 184.768L836.811 179.796H842.346H847.882V191.924C847.882 200.78 847.578 204.175 846.752 204.508C845.848 204.873 845.848 204.978 846.752 205.035C847.522 205.084 847.882 206.832 847.882 210.531C847.882 215.351 848.083 215.954 849.69 215.954C851.389 215.954 851.498 215.351 851.498 206.011V196.067H864.124H876.749L877.005 206.237L877.261 216.406L879.521 216.092C882.211 215.717 883.122 214.959 881.555 214.399C880.738 214.107 880.425 211.068 880.425 203.45V192.903L865.961 193.224L851.498 193.545V185.315V177.084H864.09C876.461 177.084 876.689 177.12 876.972 179.118C877.131 180.237 877.871 181.152 878.617 181.152C879.612 181.152 879.973 180.116 879.973 177.254V173.356L840.943 173.439L801.914 173.522V152.301V131.078L834.39 131.091L866.865 131.105V143.622V156.139L872.967 156.481C876.323 156.67 879.374 156.681 879.747 156.506C880.119 156.33 880.425 148.075 880.425 138.161C880.425 126.747 880.756 120.135 881.329 120.135C881.826 120.135 882.233 119.728 882.233 119.231C882.233 118.643 869.125 118.327 844.719 118.327H807.204V113.447V108.565L803.072 108.237C800.801 108.056 798.767 108.084 798.553 108.297ZM1069.36 109.881C1069.35 111.453 1069.74 111.728 1071.36 111.304C1072.78 110.935 1072.98 110.652 1072.04 110.35C1071.31 110.114 1070.41 109.473 1070.04 108.926C1069.66 108.348 1069.37 108.748 1069.36 109.881ZM907.543 162.169V214.146H905.283H903.024V190.33C903.024 166.524 903.024 166.512 905.057 165.532L907.091 164.551L905.057 164.49C903.066 164.43 903.024 164.205 903.024 153.72C903.024 143.507 903.117 142.964 905.057 142.029L907.091 141.048L905.102 140.988C903.153 140.927 903.107 140.643 902.842 127.039C902.694 119.402 902.703 112.487 902.863 111.672C903.038 110.787 904.04 110.192 905.349 110.192H907.543V162.169ZM1069.35 113.807C1069.35 114.47 1069.62 114.741 1069.95 114.41C1070.28 114.079 1070.28 113.536 1069.95 113.204C1069.62 112.874 1069.35 113.145 1069.35 113.807ZM1069.35 116.976C1069.35 117.631 1069.95 118.079 1070.68 117.972C1072.89 117.647 1073.15 116.779 1071.2 116.267C1070.03 115.962 1069.35 116.222 1069.35 116.976ZM1077.12 116.378C1076.81 116.884 1076.99 117.571 1077.53 117.903C1078.92 118.762 1079.82 117.586 1078.66 116.425C1078.01 115.776 1077.5 115.761 1077.12 116.378ZM1069.35 120.135C1069.35 120.798 1069.62 121.069 1069.95 120.738C1070.28 120.406 1070.28 119.864 1069.95 119.532C1069.62 119.201 1069.35 119.472 1069.35 120.135ZM1077.94 120.135C1077.63 120.632 1077.81 121.039 1078.34 121.039C1078.86 121.039 1079.29 120.632 1079.29 120.135C1079.29 119.638 1079.12 119.231 1078.9 119.231C1078.68 119.231 1078.25 119.638 1077.94 120.135ZM1068.84 123.118C1068.6 123.748 1068.51 131.572 1068.65 140.505L1068.9 156.745L1073.63 157.018L1078.37 157.291L1078.36 234.047L1078.35 310.803L921.083 310.808L763.815 310.813V305.869V300.926H673.419H583.024V289.476C583.024 283.179 582.778 278.272 582.476 278.573C582.175 278.874 581.988 284.027 582.06 290.023L582.19 300.926H491.308C411.126 300.926 400.425 301.086 400.425 302.282C400.425 303.427 398.316 303.638 386.866 303.638C375.415 303.638 373.306 303.427 373.306 302.282C373.306 301.536 372.9 300.926 372.402 300.926C371.905 300.926 371.498 301.536 371.498 302.282C371.498 303.434 369.188 303.638 356.131 303.638C343.074 303.638 340.764 303.434 340.764 302.282C340.764 301.536 340.357 300.926 339.86 300.926C339.363 300.926 338.956 301.536 338.956 302.282C338.956 303.434 336.646 303.638 323.589 303.638C310.532 303.638 308.222 303.434 308.222 302.282C308.222 301.536 307.827 300.926 307.346 300.926C306.865 300.926 306.705 301.536 306.99 302.282C307.44 303.452 305.561 303.638 293.306 303.638C281.051 303.638 279.173 303.452 279.622 302.282C280.083 301.081 264.813 300.926 145.517 300.926H10.892L10.9011 245.107C10.911 179.487 10.7212 156.889 10.1825 159.683C9.96731 160.802 9.36256 161.717 8.83917 161.717C8.20098 161.717 8.1838 162.089 8.78583 162.847C9.27939 163.469 9.68437 169.164 9.68528 175.502C9.68708 184.673 9.43397 187.028 8.44595 187.028C7.76347 187.028 7.20482 187.434 7.20482 187.932C7.20482 188.429 7.78968 188.836 8.50471 188.836C9.49996 188.836 9.80369 190.198 9.80369 194.657C9.80369 200.28 9.72052 200.49 7.37386 200.849L4.94494 201.22L7.37477 201.355C9.74494 201.487 9.80369 201.631 9.80369 207.312C9.80369 212.01 9.50991 213.209 8.27872 213.534C6.89477 213.9 6.90019 213.947 8.33476 214.041C10.4012 214.178 10.6209 219.57 8.56075 219.57C7.81499 219.57 7.20482 219.977 7.20482 220.474C7.20482 220.971 7.76618 221.378 8.45228 221.378C9.46019 221.378 9.70336 224.186 9.71872 236.033C9.735 248.609 9.52527 250.85 8.24527 251.824C6.86494 252.874 6.86493 252.961 8.23714 252.987C9.5551 253.013 9.72053 254.74 9.70697 268.384C9.69341 281.241 9.47556 283.751 8.37274 283.751C7.64777 283.751 7.24099 284.26 7.46878 284.881C7.69658 285.503 8.31487 285.918 8.84278 285.804C9.46742 285.669 9.78832 288.438 9.7603 293.72L9.71692 301.842L5.29658 305.815C0.2489 310.354 -0.156982 311.555 3.36302 311.529C4.72979 311.519 5.34087 311.333 4.71895 311.115C2.77545 310.433 3.47058 308.595 6.78177 305.664C10.714 302.182 13.5325 301.122 13.5325 303.125C13.5325 303.904 13.9393 304.542 14.4365 304.542C14.9336 304.542 15.3404 303.932 15.3404 303.186C15.3404 302.342 16.1937 301.83 17.6003 301.83C19.1397 301.83 19.8692 302.334 19.8873 303.412C19.9126 304.832 20.0021 304.845 20.7677 303.535C21.4828 302.311 23.5149 302.077 33.3951 302.077C42.7366 302.077 45.1709 302.332 45.1709 303.309C45.1709 303.987 45.7811 304.542 46.5268 304.542C47.2726 304.542 47.8828 303.978 47.8828 303.287C47.8828 302.306 49.7042 302.038 56.2443 302.056C61.3056 302.069 64.9006 302.475 65.3526 303.085C65.8895 303.808 66.2285 303.772 66.5575 302.96C67.1533 301.494 71.0782 301.494 71.7625 302.96C72.1838 303.864 72.3953 303.864 72.8165 302.96C73.8136 300.825 77.3056 301.681 78.3469 304.316L79.3286 306.802L79.4253 304.256C79.5085 302.038 79.8376 301.747 81.9709 301.996C83.6893 302.196 84.6077 302.957 85.0452 304.542L85.669 306.802L85.7584 304.316C85.8317 302.304 86.2719 301.83 88.0635 301.83C89.2821 301.83 90.6931 302.542 91.2003 303.412C92.0192 304.817 92.125 304.828 92.1494 303.506C92.1729 302.225 93.4276 302.022 101.216 302.047C108.237 302.069 110.256 302.35 110.256 303.308C110.256 303.987 110.662 304.542 111.16 304.542C111.657 304.542 112.064 303.989 112.064 303.315C112.064 302.332 115.014 302.088 126.932 302.088C139.753 302.088 141.877 302.288 142.36 303.541C142.871 304.868 142.991 304.865 143.751 303.513C144.429 302.305 146.125 302.037 152.956 302.056C158.025 302.069 161.624 302.475 162.076 303.085C162.613 303.808 162.952 303.772 163.281 302.96C163.533 302.339 164.689 301.83 165.849 301.83C167.009 301.83 168.195 302.339 168.486 302.96C168.907 303.864 169.118 303.864 169.54 302.96C170.3 301.331 174.436 301.523 174.436 303.186C174.436 303.932 174.843 304.542 175.34 304.542C175.837 304.542 176.244 303.983 176.244 303.302C176.244 302.313 178.676 302.06 188.222 302.057C194.81 302.054 200.696 302.449 201.305 302.935C202.765 304.102 213.048 304.074 214.464 302.898C215.074 302.392 217.994 302.047 220.954 302.13C225.865 302.268 226.389 302.479 226.962 304.542L227.59 306.802L227.679 304.316C227.751 302.351 228.205 301.83 229.849 301.83C230.992 301.83 232.37 302.272 232.91 302.812C233.618 303.52 234.063 303.52 234.501 302.812C235.891 300.563 238.437 301.83 239.338 305.22C240.01 307.752 240.29 308.095 240.445 306.576C240.558 305.457 240.702 304.034 240.764 303.412C240.917 301.886 270.378 301.565 271.372 303.078C271.737 303.634 272.042 305.201 272.05 306.559C272.06 308.443 271.529 309.161 269.804 309.594C268.561 309.906 267.544 310.524 267.544 310.967C267.544 311.994 269.593 311.608 270.468 310.417C270.879 309.858 271.137 309.944 271.146 310.643C271.157 311.537 285.432 311.773 339.472 311.773C398.99 311.773 407.96 311.599 409.142 310.417C410.347 309.213 410.339 309.062 409.077 309.062C407.61 309.062 407.304 307.304 408.192 303.995C408.686 302.155 409.216 302.091 423.999 302.082C436.328 302.075 439.295 302.313 439.295 303.307C439.295 303.987 439.702 304.542 440.199 304.542C440.696 304.542 441.103 303.989 441.103 303.315C441.103 302.332 444.05 302.088 455.952 302.088H470.802L471.431 304.445L472.061 306.802L472.928 304.316C473.552 302.529 474.41 301.83 475.98 301.83C477.182 301.83 478.171 302.339 478.179 302.96C478.189 303.767 478.382 303.798 478.857 303.067C479.277 302.421 482.764 302.047 488.334 302.051C496.347 302.055 497.148 302.21 497.148 303.751C497.148 304.683 497.555 305.446 498.052 305.446C498.549 305.446 498.956 304.632 498.956 303.638C498.956 302.312 499.559 301.83 501.216 301.83C502.622 301.83 503.476 302.342 503.476 303.186C503.476 303.932 503.882 304.542 504.38 304.542C504.877 304.542 505.284 303.988 505.284 303.311C505.284 302.32 508.293 302.076 520.651 302.061C533.133 302.047 536.018 302.278 536.018 303.292C536.018 303.979 536.425 304.542 536.922 304.542C537.419 304.542 537.826 303.989 537.826 303.315C537.826 302.332 540.784 302.088 552.741 302.088C564.699 302.088 567.656 302.332 567.656 303.315C567.656 304.971 569.392 304.877 570.041 303.186C570.658 301.58 574.888 301.343 574.888 302.915C574.888 303.758 575.129 303.758 575.973 302.915C577.284 301.603 581.216 301.467 581.216 302.734C581.216 303.261 584.229 303.638 588.447 303.638C592.666 303.638 595.679 303.261 595.679 302.734C595.679 302.237 596.797 301.871 598.165 301.92L600.651 302.01L598.391 302.734C597.024 303.171 596.727 303.493 597.639 303.547C598.469 303.597 599.79 303.885 600.577 304.187C601.481 304.534 602.007 304.247 602.007 303.409C602.007 302.295 604.468 302.082 617.374 302.082C629.731 302.082 632.741 302.323 632.741 303.312C632.741 303.989 633.148 304.542 633.645 304.542C634.142 304.542 634.549 303.989 634.549 303.315C634.549 301.432 664.121 301.528 665.176 303.414C665.829 304.579 665.98 304.579 666.427 303.414C667.152 301.524 696.922 301.428 696.922 303.315C696.922 303.989 697.329 304.542 697.826 304.542C698.323 304.542 698.73 303.983 698.73 303.302C698.73 302.312 701.156 302.062 710.707 302.067C718.464 302.071 722.948 302.428 723.431 303.081C723.97 303.809 724.306 303.774 724.636 302.96C725.299 301.328 729.464 301.523 729.464 303.186C729.464 303.932 729.871 304.542 730.368 304.542C730.865 304.542 731.272 303.979 731.272 303.291C731.272 302.278 733.556 302.079 743.25 302.241C763.702 302.584 762.007 302.254 762.007 305.898V309.062L722.911 309.222C701.407 309.311 683.102 309.381 682.233 309.377C680.729 309.371 679.903 310.795 681.329 310.936C681.702 310.973 682.922 311.174 684.041 311.383C685.159 311.592 686.075 311.358 686.075 310.864C686.075 310.37 686.506 309.965 687.032 309.965C687.558 309.965 687.801 310.27 687.571 310.643C687.34 311.017 689.147 311.342 691.585 311.368C694.103 311.394 696.024 311.003 696.031 310.464C696.04 309.941 696.447 310.124 696.936 310.869C697.521 311.761 698.058 311.901 698.504 311.278C699.335 310.116 703.25 309.775 703.25 310.864C703.25 311.766 706.859 311.538 708.485 310.533C709.086 310.163 709.577 310.188 709.578 310.59C709.579 310.992 711.79 311.342 714.492 311.368C717.399 311.396 719.188 311.062 718.872 310.55C718.551 310.031 718.83 309.991 719.569 310.447C721.383 311.568 724.945 311.786 724.945 310.776C724.945 310.244 725.653 310.281 726.752 310.869C728.124 311.603 728.564 311.556 728.574 310.675C728.584 309.856 728.85 309.914 729.478 310.869C730.219 311.998 730.502 312.018 731.163 310.993C731.834 309.953 732.033 309.953 732.447 310.993C732.795 311.868 732.958 311.898 733.009 311.095C733.048 310.474 733.657 309.965 734.361 309.965C735.065 309.965 735.848 310.474 736.1 311.095C736.415 311.872 736.792 311.925 737.305 311.266C738.171 310.153 742.12 310.002 742.12 311.081C742.12 311.713 743.379 311.654 747.091 310.851C747.589 310.744 748.199 310.738 748.447 310.839C750.079 311.499 756.358 311.229 757.435 310.454C758.398 309.758 758.565 309.802 758.075 310.619C757.552 311.489 791.739 311.733 918.353 311.761L1079.29 311.797V217.375C1079.29 160.075 1078.96 122.749 1078.45 122.434C1077.99 122.147 1077.31 122.405 1076.94 123.005C1076.57 123.605 1076.74 124.256 1077.33 124.451C1078.67 124.9 1078.72 128.863 1077.39 129.686C1076.67 130.133 1076.67 130.475 1077.38 130.916C1078.05 131.33 1078.1 132.459 1077.54 134.407C1077.08 136.015 1077.06 137.499 1077.5 137.769C1077.93 138.035 1078.08 139.159 1077.83 140.267C1077.19 143.171 1077.1 149.877 1077.69 150.474C1078.62 151.404 1076.93 155.837 1075.54 156.103C1073.39 156.517 1069.17 154.601 1069.84 153.515C1070.6 152.286 1070.64 140.467 1069.88 139.248C1069.57 138.748 1069.74 138.079 1070.26 137.762C1070.77 137.445 1070.98 136.844 1070.72 136.426C1069.75 134.862 1070.02 125.186 1071.04 124.847C1072.5 124.359 1072.31 123.133 1070.67 122.507C1069.91 122.213 1069.09 122.489 1068.84 123.118ZM746.94 138.817C747.272 139.148 747.815 139.148 748.146 138.817C748.477 138.485 748.206 138.214 747.543 138.214C746.881 138.214 746.61 138.485 746.94 138.817ZM750.03 147.857C750.155 153.16 750.459 157.703 750.708 157.951C750.956 158.2 751.159 153.86 751.159 148.309C751.159 142.757 750.855 138.214 750.481 138.213C750.108 138.213 749.905 142.552 750.03 147.857ZM762.924 138.892C762.932 139.265 763.333 140.18 763.815 140.926C764.523 142.023 764.693 141.892 764.705 140.248C764.712 139.129 764.312 138.214 763.815 138.214C763.317 138.214 762.917 138.519 762.924 138.892ZM776.47 140.022C776.47 141.016 776.877 141.83 777.374 141.83C777.871 141.83 778.278 141.016 778.278 140.022C778.278 139.028 777.871 138.214 777.374 138.214C776.877 138.214 776.47 139.028 776.47 140.022ZM782.629 138.832C783.28 139.093 784.06 139.06 784.361 138.76C784.661 138.46 784.127 138.247 783.175 138.286C782.121 138.329 781.907 138.543 782.629 138.832ZM787.98 139.23C788.594 139.849 789.323 140.126 789.601 139.848C789.879 139.569 789.377 139.064 788.486 138.724C787.198 138.234 787.094 138.337 787.98 139.23ZM680.651 155.841V171.66H677.487H674.323V155.841V140.022H677.487H680.651V155.841ZM798.165 155.841V171.66H795.453H792.741V155.841V140.022H795.453H798.165V155.841ZM763.957 145.446C763.957 146.689 764.163 147.198 764.413 146.576C764.664 145.955 764.664 144.938 764.413 144.316C764.163 143.695 763.957 144.203 763.957 145.446ZM776.47 145.446C776.47 146.108 776.741 146.38 777.073 146.049C777.404 145.717 777.404 145.175 777.073 144.843C776.741 144.512 776.47 144.783 776.47 145.446ZM763.991 150.418C764.009 151.909 764.211 152.41 764.441 151.53C764.671 150.651 764.655 149.43 764.408 148.818C764.16 148.206 763.973 148.926 763.991 150.418ZM1020.03 149.439C1019.07 150.145 1018.58 151.016 1018.93 151.377C1019.3 151.736 1020.23 151.502 1021.01 150.856C1021.99 150.042 1022.71 149.97 1023.36 150.62C1024.01 151.27 1023.44 152.438 1021.52 154.409C1019.98 155.977 1018.73 157.652 1018.73 158.132C1018.73 159.289 1024.79 159.261 1025.51 158.101C1025.83 157.582 1025.01 157.197 1023.6 157.197H1021.13L1022.96 155.163C1025.83 151.967 1026.08 151.115 1024.55 149.587C1022.79 147.832 1022.26 147.814 1020.03 149.439ZM1028 148.756C1026.7 149.28 1026.45 151.773 1027.69 151.773C1028.15 151.773 1028.71 151.265 1028.94 150.644C1029.26 149.755 1029.6 149.749 1030.52 150.614C1031.47 151.508 1031.4 151.822 1030.18 152.292C1028.3 153.012 1028.2 154.485 1030.03 154.485C1030.77 154.485 1031.39 155.096 1031.39 155.841C1031.39 157.489 1029.47 157.612 1027.86 156.067C1026.91 155.153 1026.75 155.281 1027.01 156.735C1027.4 158.885 1030.04 159.591 1031.91 158.043C1034.3 156.059 1032.36 147.889 1029.58 148.243C1029.33 148.274 1028.62 148.506 1028 148.756ZM85.311 151.023C83.7652 152.783 83.7508 152.925 85.1709 152.407C86.5087 151.919 86.7528 152.384 86.7528 155.417C86.7528 157.391 87.1596 159.005 87.6568 159.005C88.1539 159.005 88.5607 156.768 88.5607 154.033C88.5607 148.612 87.9361 148.033 85.311 151.023ZM91.3078 150.804C89.7811 153.656 92.4793 157.33 94.9697 155.791C95.4226 155.511 95.7923 155.689 95.7923 156.187C95.7923 157.734 93.8208 158.395 93.0289 157.113C92.614 156.442 92.0084 156.159 91.683 156.485C90.7519 157.417 92.1223 159.005 93.857 159.005C96.2163 159.005 97.6002 157.167 97.6002 154.033C97.6002 149.34 93.2785 147.122 91.3078 150.804ZM330.035 150.275C328.63 151.967 329.769 152.785 331.78 151.529C334.84 149.618 334.805 151.759 331.724 154.937C330.052 156.663 328.92 158.311 329.21 158.599C329.499 158.889 331.301 158.96 333.216 158.757C336.153 158.447 336.385 158.283 334.705 157.7L332.713 157.008L334.621 154.429C336.202 152.291 336.33 151.611 335.372 150.456C333.947 148.739 331.382 148.652 330.035 150.275ZM337.697 150.492C335.708 155.674 338.331 160.891 341.917 158.884C343.754 157.855 344.081 151.836 342.391 150.146C340.86 148.615 338.346 148.799 337.697 150.492ZM619.785 149.665C619.453 149.995 619.182 150.89 619.182 151.653C619.182 152.731 619.423 152.798 620.267 151.954C621.587 150.634 623.702 150.528 623.702 151.783C623.702 152.284 622.857 153.403 621.826 154.268C620.794 155.134 619.559 156.554 619.082 157.423C618.32 158.812 618.66 159.005 621.862 159.005C623.868 159.005 625.51 158.598 625.51 158.101C625.51 157.604 624.625 157.197 623.544 157.197H621.578L623.629 155.014C626.166 152.314 625.513 149.062 622.435 149.062C621.309 149.062 620.116 149.333 619.785 149.665ZM628.673 150.55C627.421 151.541 627.213 152.111 627.995 152.404C628.617 152.638 629.125 154.218 629.125 155.916C629.125 157.615 629.532 159.005 630.029 159.005C630.526 159.005 630.933 156.768 630.933 154.033C630.933 151.299 630.832 149.074 630.707 149.091C630.583 149.106 629.668 149.763 628.673 150.55ZM740.052 149.623C739.698 149.977 739.408 150.89 739.408 151.653C739.408 152.731 739.649 152.798 740.492 151.954C741.089 151.358 742.106 150.87 742.752 150.87C744.733 150.87 744.058 153.454 741.668 155.021C738.356 157.19 738.769 159.005 742.572 159.005C744.312 159.005 745.735 158.598 745.735 158.101C745.735 157.604 744.851 157.197 743.77 157.197H741.804L743.852 155.018C746.43 152.274 746.027 149.602 742.982 149.246C741.725 149.099 740.406 149.269 740.052 149.623ZM95.7923 152.172C95.7923 154.029 93.9212 154.941 93.0389 153.515C92.6303 152.853 92.4965 151.988 92.7415 151.591C93.5008 150.362 95.7923 150.798 95.7923 152.172ZM341.496 154.259C341.342 156.124 340.809 157.649 340.312 157.649C339.815 157.649 339.281 156.124 339.128 154.259C338.909 151.622 339.172 150.87 340.312 150.87C341.452 150.87 341.715 151.622 341.496 154.259ZM763.957 155.389C763.957 156.632 764.163 157.141 764.413 156.519C764.664 155.898 764.664 154.881 764.413 154.259C764.163 153.638 763.957 154.146 763.957 155.389ZM776.47 155.389C776.47 155.886 776.901 156.293 777.427 156.293C777.953 156.293 778.133 155.886 777.826 155.389C777.518 154.892 777.088 154.485 776.869 154.485C776.649 154.485 776.47 154.892 776.47 155.389ZM736.696 156.293C736.696 156.79 736.265 157.197 735.739 157.197C735.212 157.197 735.033 156.79 735.34 156.293C735.647 155.796 736.078 155.389 736.297 155.389C736.517 155.389 736.696 155.796 736.696 156.293ZM763.957 160.813C763.957 162.056 764.163 162.565 764.413 161.943C764.664 161.322 764.664 160.305 764.413 159.683C764.163 159.062 763.957 159.57 763.957 160.813ZM776.47 160.813C776.47 161.476 776.741 161.747 777.073 161.416C777.404 161.084 777.404 160.542 777.073 160.21C776.741 159.879 776.47 160.15 776.47 160.813ZM764.06 167.141C764.06 169.378 764.237 170.294 764.453 169.175C764.668 168.056 764.668 166.226 764.453 165.107C764.237 163.988 764.06 164.903 764.06 167.141ZM680.651 204.925V236.382L677.487 236.013L674.323 235.643V204.556V173.468H677.487H680.651V204.925ZM1070.09 188.549C1070.74 188.81 1071.52 188.778 1071.82 188.478C1072.12 188.178 1071.58 187.964 1070.63 188.003C1069.58 188.046 1069.36 188.261 1070.09 188.549ZM180.463 193.958C179.283 195.137 179.883 196.27 181.136 195.23C182.008 194.506 182.596 194.472 182.997 195.119C183.319 195.641 184.016 196.067 184.543 196.067C185.15 196.067 185.089 195.566 184.38 194.711C183.193 193.28 181.471 192.95 180.463 193.958ZM25.0136 198.446C24.6656 198.795 24.38 200.436 24.38 202.094C24.38 204.724 24.6737 205.107 26.6941 205.107C28.8157 205.107 28.9856 204.824 28.728 201.724C28.4604 198.498 26.6019 196.858 25.0136 198.446ZM139.182 201.943C139.182 204.715 139.462 205.107 141.442 205.107C143.422 205.107 143.702 204.715 143.702 201.943C143.702 199.171 143.422 198.779 141.442 198.779C139.462 198.779 139.182 199.171 139.182 201.943ZM271.331 202.169C271.556 204.892 272.012 205.616 273.645 205.848C275.469 206.107 275.679 205.756 275.679 202.458C275.679 199.114 275.469 198.779 273.365 198.779C271.243 198.779 271.074 199.061 271.331 202.169ZM403.489 200.069C403.216 200.779 403.128 202.305 403.291 203.459C403.512 205.016 404.172 205.559 405.849 205.559C407.808 205.559 408.146 205.108 408.389 202.169C408.647 199.051 408.481 198.779 406.327 198.779C405.039 198.779 403.761 199.359 403.489 200.069ZM536.018 202.395C536.018 205.649 536.244 206.011 538.278 206.011C540.312 206.011 540.538 205.649 540.538 202.395C540.538 199.141 540.312 198.779 538.278 198.779C536.244 198.779 536.018 199.141 536.018 202.395ZM933.306 201.491C932.369 204.443 933.645 207.058 935.87 206.741C937.415 206.521 937.885 205.752 938.106 203.073C938.362 199.987 938.185 199.683 936.134 199.683C934.674 199.683 933.678 200.32 933.306 201.491ZM1047.66 202.847C1047.66 205.619 1047.94 206.011 1049.92 206.011C1051.9 206.011 1052.18 205.619 1052.18 202.847C1052.18 200.074 1051.9 199.683 1049.92 199.683C1047.94 199.683 1047.66 200.074 1047.66 202.847ZM493.56 219.085C492.298 220.605 492.901 223.186 494.518 223.186C495.281 223.186 495.295 222.865 494.568 221.989C493.844 221.117 493.859 220.509 494.623 219.745C495.2 219.168 495.451 218.476 495.183 218.208C494.913 217.938 494.184 218.333 493.56 219.085ZM434.074 219.729C432.929 220.874 434.151 223.186 435.901 223.186C436.458 223.186 436.424 222.728 435.811 221.989C435.086 221.116 435.105 220.506 435.882 219.729C436.484 219.127 436.553 218.666 436.041 218.666C435.544 218.666 434.659 219.144 434.074 219.729ZM162.685 225.676C162.685 226.173 163.316 227.104 164.086 227.744C165.249 228.708 165.749 228.628 167.024 227.274C168.475 225.732 168.467 225.674 166.864 226.237C165.931 226.565 164.609 226.37 163.926 225.803C163.183 225.185 162.685 225.135 162.685 225.676ZM835.516 245.785C835.516 249.016 835.681 250.339 835.88 248.723C836.081 247.106 836.081 244.463 835.88 242.847C835.681 241.231 835.516 242.553 835.516 245.785ZM921.103 243.73C921.103 244.304 921.529 245.038 922.051 245.36C922.698 245.76 922.664 246.349 921.94 247.221C921.148 248.176 921.143 248.497 921.924 248.497C923.711 248.497 924.134 245.717 922.582 244.165C921.715 243.297 921.103 243.117 921.103 243.73ZM1070.09 252.73C1070.74 252.991 1071.52 252.959 1071.82 252.658C1072.12 252.358 1071.58 252.145 1070.63 252.184C1069.58 252.227 1069.36 252.441 1070.09 252.73ZM838.165 272.598C836.867 273.122 836.618 275.615 837.864 275.615C838.319 275.615 838.879 275.107 839.107 274.485C839.438 273.582 839.761 273.582 840.717 274.483C841.698 275.41 841.396 276.146 839.022 278.595C837.432 280.234 836.131 281.862 836.131 282.212C836.131 282.561 837.758 282.847 839.747 282.847C841.735 282.847 843.362 282.44 843.362 281.943C843.362 281.446 842.286 281.039 840.971 281.039H838.579L840.971 278.822C843.58 276.403 843.955 274.761 842.278 273.084C841.148 271.954 840.075 271.827 838.165 272.598ZM845.152 273.377C844.523 274.135 844.293 275.039 844.639 275.385C844.985 275.731 845.608 275.466 846.023 274.795C846.459 274.089 847.257 273.873 847.919 274.282C848.787 274.819 848.67 275.273 847.429 276.18C845.942 277.268 845.929 277.424 847.292 277.947C848.114 278.262 848.786 279.087 848.786 279.78C848.786 281.344 846.372 281.45 845.821 279.909C845.6 279.288 845.081 279.094 844.67 279.479C843.367 280.697 846.61 283.086 848.677 282.429C850.237 281.935 850.555 281.151 850.459 278.043C850.282 272.427 847.773 270.22 845.152 273.377ZM24.38 285.622C24.38 288.92 24.5906 289.27 26.4138 289.012C28.0473 288.78 28.5029 288.055 28.728 285.333C28.9856 282.225 28.8166 281.943 26.6941 281.943C24.5906 281.943 24.38 282.277 24.38 285.622ZM139.182 285.107C139.182 287.879 139.462 288.271 141.442 288.271C143.422 288.271 143.702 287.879 143.702 285.107C143.702 282.334 143.422 281.943 141.442 281.943C139.462 281.943 139.182 282.334 139.182 285.107ZM271.159 285.559C271.159 288.813 271.385 289.175 273.419 289.175C275.453 289.175 275.679 288.813 275.679 285.559C275.679 282.305 275.453 281.943 273.419 281.943C271.385 281.943 271.159 282.305 271.159 285.559ZM404.041 285.495C404.041 288.84 404.251 289.175 406.355 289.175C408.477 289.175 408.646 288.893 408.389 285.785C408.164 283.062 407.708 282.338 406.075 282.106C404.251 281.847 404.041 282.198 404.041 285.495ZM536.018 285.559C536.018 288.813 536.244 289.175 538.278 289.175C540.312 289.175 540.538 288.813 540.538 285.559C540.538 282.305 540.312 281.943 538.278 281.943C536.244 281.943 536.018 282.305 536.018 285.559ZM933.263 282.739C933.038 282.964 932.854 284.504 932.854 286.162C932.854 288.773 933.155 289.175 935.114 289.175C937.126 289.175 937.374 288.8 937.374 285.752C937.374 282.907 937.062 282.331 935.523 282.331C934.505 282.331 933.488 282.514 933.263 282.739ZM667.995 286.011C667.995 288.783 668.276 289.175 670.255 289.175C672.235 289.175 672.515 288.783 672.515 286.011C672.515 283.238 672.235 282.847 670.255 282.847C668.276 282.847 667.995 283.238 667.995 286.011ZM799.973 286.011C799.973 288.783 800.253 289.175 802.233 289.175C804.212 289.175 804.492 288.783 804.492 286.011C804.492 283.238 804.212 282.847 802.233 282.847C800.253 282.847 799.973 283.238 799.973 286.011ZM1047.66 286.011C1047.66 288.783 1047.94 289.175 1049.92 289.175C1051.9 289.175 1052.18 288.783 1052.18 286.011C1052.18 283.238 1051.9 282.847 1049.92 282.847C1047.94 282.847 1047.66 283.238 1047.66 286.011ZM542.346 285.559C542.346 286.221 542.617 286.493 542.949 286.162C543.28 285.83 543.28 285.288 542.949 284.956C542.617 284.625 542.346 284.896 542.346 285.559ZM1070.09 285.272C1070.74 285.533 1071.52 285.501 1071.82 285.201C1072.12 284.901 1071.58 284.687 1070.63 284.726C1069.58 284.77 1069.36 284.984 1070.09 285.272ZM1.28392 295.953C1.30923 299.185 1.63466 301.829 2.00708 301.829C2.37951 301.83 2.68505 299.186 2.68505 295.954C2.68505 292.723 2.35962 290.079 1.96188 290.079C1.56414 290.079 1.25951 292.723 1.28392 295.953ZM1069.35 301.608C1069.35 302.106 1069.96 303.019 1070.71 303.638C1071.46 304.265 1072.06 304.364 1072.06 303.859C1072.06 303.362 1071.45 302.449 1070.71 301.83C1069.95 301.203 1069.35 301.104 1069.35 301.608ZM206.318 302.423C205.706 302.671 204.486 302.686 203.606 302.456C202.727 302.227 203.227 302.024 204.719 302.006C206.21 301.988 206.93 302.175 206.318 302.423ZM212.646 302.423C212.034 302.671 210.813 302.686 209.934 302.456C209.054 302.227 209.555 302.024 211.047 302.006C212.538 301.988 213.258 302.175 212.646 302.423ZM278.391 302.734C278.391 303.231 277.171 303.638 275.679 303.638C274.188 303.638 272.967 303.231 272.967 302.734C272.967 302.237 274.188 301.83 275.679 301.83C277.171 301.83 278.391 302.237 278.391 302.734ZM406.753 302.734C406.753 303.231 405.736 303.638 404.493 303.638C403.25 303.638 402.233 303.231 402.233 302.734C402.233 302.237 403.25 301.83 404.493 301.83C405.736 301.83 406.753 302.237 406.753 302.734ZM586.883 302.423C586.271 302.671 585.05 302.686 584.171 302.456C583.291 302.227 583.792 302.024 585.284 302.006C586.775 301.988 587.495 302.175 586.883 302.423ZM593.21 302.423C592.598 302.671 591.378 302.686 590.498 302.456C589.619 302.227 590.12 302.024 591.611 302.006C593.103 301.988 593.822 302.175 593.21 302.423ZM794.549 302.734C794.549 303.396 794.82 303.668 795.152 303.337C795.483 303.005 795.483 302.463 795.152 302.131C794.82 301.8 794.549 302.071 794.549 302.734ZM826.187 302.734C826.187 303.396 826.459 303.668 826.79 303.337C827.121 303.005 827.121 302.463 826.79 302.131C826.459 301.8 826.187 302.071 826.187 302.734ZM858.73 302.734C858.73 303.396 859.001 303.668 859.333 303.337C859.664 303.005 859.664 302.463 859.333 302.131C859.001 301.8 858.73 302.071 858.73 302.734ZM891.272 302.734C891.272 303.396 891.543 303.668 891.875 303.337C892.206 303.005 892.206 302.463 891.875 302.131C891.543 301.8 891.272 302.071 891.272 302.734ZM922.911 302.734C922.911 303.231 923.342 303.638 923.868 303.638C924.394 303.638 924.574 303.231 924.266 302.734C923.959 302.237 923.529 301.83 923.309 301.83C923.09 301.83 922.911 302.237 922.911 302.734ZM955.453 302.734C955.453 303.396 955.724 303.668 956.056 303.337C956.387 303.005 956.387 302.463 956.056 302.131C955.724 301.8 955.453 302.071 955.453 302.734ZM987.995 302.734C987.995 303.396 988.266 303.668 988.598 303.337C988.929 303.005 988.929 302.463 988.598 302.131C988.266 301.8 987.995 302.071 987.995 302.734ZM1020.09 302.734C1019.78 303.231 1019.96 303.638 1020.48 303.638C1021.01 303.638 1021.44 303.231 1021.44 302.734C1021.44 302.237 1021.26 301.83 1021.04 301.83C1020.82 301.83 1020.39 302.237 1020.09 302.734ZM1052.18 302.734C1052.18 303.396 1052.45 303.668 1052.78 303.337C1053.11 303.005 1053.11 302.463 1052.78 302.131C1052.45 301.8 1052.18 302.071 1052.18 302.734ZM1.30109 303.683C0.442334 305.073 1.61839 305.97 2.77906 304.809C3.4281 304.16 3.44347 303.655 2.82607 303.274C2.31986 302.961 1.63375 303.145 1.30109 303.683ZM80.8771 303.638C80.5698 304.135 80.953 304.542 81.7277 304.542C82.5024 304.542 83.137 304.135 83.137 303.638C83.137 303.141 82.7546 302.734 82.2864 302.734C81.8181 302.734 81.1844 303.141 80.8771 303.638ZM87.2048 303.638C86.8974 304.135 87.2807 304.542 88.0554 304.542C88.8301 304.542 89.4647 304.135 89.4647 303.638C89.4647 303.141 89.0823 302.734 88.614 302.734C88.1458 302.734 87.5121 303.141 87.2048 303.638ZM493.532 303.638C493.532 304.135 494.167 304.542 494.941 304.542C495.716 304.542 496.099 304.135 495.792 303.638C495.485 303.141 494.851 302.734 494.383 302.734C493.915 302.734 493.532 303.141 493.532 303.638ZM499.86 303.638C499.86 304.135 500.495 304.542 501.269 304.542C502.044 304.542 502.427 304.135 502.12 303.638C501.812 303.141 501.179 302.734 500.71 302.734C500.242 302.734 499.86 303.141 499.86 303.638ZM276.44 306.438C275.487 307.028 275.471 307.407 276.364 308.3C278.127 310.063 277.696 310.87 275.001 310.856C273.064 310.845 272.815 310.648 273.871 309.965C274.775 309.382 274.85 309.085 274.097 309.075C273.476 309.068 272.967 308.533 272.967 307.886C272.967 306.114 274.826 304.618 276.317 305.19C277.391 305.602 277.414 305.836 276.44 306.438ZM287.431 305.908C287.431 306.648 287.837 307.254 288.335 307.254C288.832 307.254 289.239 306.73 289.239 306.09C289.239 304.347 293.001 304.405 294.34 306.168C295.436 307.611 295.51 307.608 295.537 306.124C295.557 305.055 296.285 304.542 297.781 304.542C298.999 304.542 300.411 305.254 300.918 306.124C301.795 307.631 301.841 307.631 301.867 306.124C301.885 305.046 302.614 304.542 304.154 304.542C306.133 304.542 306.414 304.933 306.414 307.706C306.414 310.478 306.133 310.869 304.154 310.869C302.911 310.869 301.894 310.381 301.894 309.785C301.894 308.941 301.653 308.941 300.809 309.785C300.213 310.381 298.789 310.869 297.645 310.869C296.502 310.869 295.566 310.381 295.566 309.785C295.566 308.941 295.325 308.941 294.481 309.785C293.06 311.206 289.533 311.178 288.862 309.74C288.44 308.836 288.229 308.836 287.808 309.74C287.517 310.361 286.35 310.869 285.213 310.869C283.457 310.869 283.163 310.423 283.255 307.885C283.342 305.479 283.757 304.868 285.397 304.732C286.671 304.625 287.431 305.064 287.431 305.908ZM313.33 305.927C313.749 307.02 314.015 307.013 315.154 305.874C317.008 304.02 319.967 304.172 320.002 306.124C320.027 307.507 320.168 307.536 321.132 306.35C322.669 304.456 325.316 304.185 325.957 305.855C326.622 307.588 328.109 307.696 328.109 306.011C328.109 305.288 329.053 304.768 330.368 304.768C331.684 304.768 332.628 305.288 332.628 306.011C332.628 306.694 333.035 307.254 333.532 307.254C334.029 307.254 334.436 306.643 334.436 305.898C334.436 305.094 335.264 304.543 336.47 304.543C338.171 304.544 338.522 305.062 338.612 307.706C338.705 310.43 338.433 310.869 336.654 310.869C335.516 310.869 334.349 310.361 334.059 309.74C333.638 308.836 333.427 308.836 333.005 309.74C332.229 311.402 327.778 311.227 328.418 309.56C328.754 308.684 328.486 308.416 327.61 308.752C326.89 309.029 326.301 309.618 326.301 310.062C326.301 311.397 322.086 310.971 320.877 309.514C320.258 308.768 319.293 308.19 318.733 308.229C318.092 308.274 318.133 308.469 318.843 308.756C319.465 309.007 319.973 309.585 319.973 310.041C319.973 311.249 316 311.055 314.73 309.785C313.887 308.941 313.645 308.941 313.645 309.785C313.645 310.381 312.628 310.869 311.385 310.869C309.433 310.869 309.126 310.464 309.126 307.898C309.126 305.549 309.514 304.897 310.982 304.787C312.003 304.71 313.06 305.222 313.33 305.927ZM345.866 306.168C346.828 307.434 347.039 307.466 347.064 306.35C347.11 304.396 352.479 304.303 352.62 306.254C352.707 307.45 352.798 307.426 353.138 306.124C353.643 304.195 356.423 304.059 358.238 305.874C359.413 307.048 359.635 307.042 360.105 305.816C360.768 304.09 364.481 304.469 365.333 306.35C365.861 307.514 365.956 307.502 366.011 306.261C366.052 305.321 366.942 304.793 368.561 304.749C370.789 304.687 371.054 305.001 371.114 307.775C371.17 310.349 370.858 310.869 369.261 310.869C368.204 310.869 366.852 310.381 366.255 309.785C365.412 308.941 365.171 308.941 365.171 309.785C365.171 310.381 364.235 310.869 363.092 310.869C361.948 310.869 360.524 310.381 359.928 309.785C359.084 308.941 358.843 308.941 358.843 309.785C358.843 311.239 353.44 311.195 353.348 309.74C353.291 308.836 353.185 308.836 352.821 309.74C352.237 311.186 347.092 311.227 347.092 309.785C347.092 308.941 346.85 308.941 346.007 309.785C345.41 310.381 344.058 310.869 343.001 310.869C341.417 310.869 341.092 310.347 341.148 307.884C341.2 305.611 341.632 304.865 342.957 304.764C343.914 304.69 345.223 305.322 345.866 306.168ZM377.826 305.908C377.826 306.648 378.233 307.254 378.73 307.254C379.227 307.254 379.634 306.648 379.634 305.908C379.634 305.025 380.411 304.627 381.894 304.749C383.137 304.852 384.154 305.457 384.154 306.095C384.154 306.732 384.561 307.254 385.058 307.254C385.555 307.254 385.962 306.643 385.962 305.898C385.962 304.017 389.553 304.177 391.031 306.124C392.028 307.437 392.237 307.471 392.26 306.321C392.277 305.533 393.198 304.861 394.398 304.761C396.237 304.61 396.508 304.99 396.508 307.728C396.508 310.383 396.193 310.869 394.474 310.869C393.355 310.869 392.203 310.361 391.912 309.74C391.491 308.836 391.28 308.836 390.858 309.74C390.568 310.361 389.381 310.869 388.222 310.869C387.062 310.869 385.875 310.361 385.585 309.74C385.163 308.836 384.952 308.836 384.531 309.74C384.241 310.361 383.054 310.869 381.894 310.869C380.734 310.869 379.547 310.361 379.257 309.74C378.836 308.836 378.624 308.836 378.203 309.74C377.913 310.361 376.732 310.869 375.581 310.869C373.796 310.869 373.498 310.427 373.569 307.888C373.639 305.456 374.038 304.875 375.74 304.734C377.062 304.625 377.826 305.055 377.826 305.908ZM406.308 306.373C407.04 308.678 405.872 310.869 403.912 310.869C402.471 310.869 402.33 310.568 403.102 309.127C403.615 308.168 403.815 306.813 403.546 306.114C403.259 305.363 403.625 304.843 404.44 304.843C405.201 304.843 406.041 305.532 406.308 306.373ZM6.72301 309.105C6.55668 309.377 6.74922 310.133 7.15148 310.784C7.66493 311.614 8.0672 311.669 8.5011 310.966C9.34268 309.604 13.2568 309.698 13.9095 311.095C14.3307 311.999 14.5422 311.999 14.9635 311.095C15.5881 309.757 19.8602 309.56 19.8602 310.869C19.8602 311.367 20.267 311.773 20.7641 311.773C21.2613 311.773 21.6681 311.194 21.6681 310.486C21.6681 309.503 19.9397 309.129 14.347 308.904C10.3208 308.742 6.89024 308.832 6.72301 309.105ZM282.007 308.556C282.007 308.776 281.537 309.245 280.963 309.599C280.317 310 280.165 309.848 280.565 309.202C281.209 308.159 282.007 307.802 282.007 308.556ZM380.839 308.761C381.171 309.091 381.713 309.091 382.045 308.761C382.376 308.429 382.104 308.158 381.442 308.158C380.779 308.158 380.508 308.429 380.839 308.761ZM554.847 309.062C547.056 309.31 540.344 309.883 539.932 310.335C539.495 310.814 539.817 310.93 540.705 310.613C541.543 310.313 542.459 310.553 542.739 311.146C543.129 311.97 543.374 311.959 543.775 311.103C544.155 310.287 544.775 310.234 546.035 310.908C547.327 311.6 547.773 311.54 547.783 310.675C547.794 309.825 548.018 309.862 548.618 310.812C549.332 311.939 549.649 311.939 551.038 310.812C552.259 309.82 552.463 309.801 551.901 310.734C551.307 311.722 551.531 311.759 553.084 310.928C554.383 310.233 555.001 310.21 555.001 310.855C555.001 311.802 558.652 311.513 560.41 310.427C560.916 310.115 561.329 310.262 561.329 310.755C561.329 311.726 564.835 311.603 566.502 310.572C567.068 310.222 567.765 310.314 568.05 310.775C568.759 311.923 571.578 311.413 571.834 310.09C571.961 309.429 571.858 309.391 571.565 309.991C571.244 310.649 570.752 310.583 570.051 309.787C569.247 308.876 565.807 308.712 554.847 309.062ZM23.307 309.679C23.9587 309.94 24.7388 309.908 25.0389 309.608C25.3391 309.307 24.8057 309.094 23.853 309.133C22.7998 309.176 22.5856 309.391 23.307 309.679ZM26.1879 310.417C26.1879 311.163 26.5946 311.773 27.0918 311.773C27.589 311.773 27.9958 311.163 27.9958 310.417C27.9958 309.672 27.589 309.062 27.0918 309.062C26.5946 309.062 26.1879 309.672 26.1879 310.417ZM32.5155 310.417C32.5155 311.163 32.9223 311.773 33.4195 311.773C33.9167 311.773 34.3234 311.367 34.3234 310.869C34.3234 310.372 35.3648 309.965 36.6367 309.965C37.9483 309.965 38.7085 310.357 38.3912 310.869C38.0839 311.367 38.4672 311.773 39.2419 311.773C40.0165 311.773 40.6511 311.367 40.6511 310.869C40.6511 309.836 44.5381 309.634 45.5198 310.615C46.4979 311.594 51.4498 311.521 50.8423 310.539C50.525 310.025 50.8188 309.997 51.5808 310.468C53.4493 311.623 61.5361 311.754 60.8337 310.617C60.4993 310.076 60.7017 309.96 61.3173 310.341C63.6387 311.775 66.8658 311.83 66.8658 310.436C66.8658 309.254 64.4531 309.062 49.6907 309.062C35.0267 309.062 32.5155 309.26 32.5155 310.417ZM67.7698 309.855C67.7698 310.413 68.0753 310.899 68.4477 310.936C68.8202 310.973 70.0405 311.174 71.1596 311.383C72.2787 311.592 73.1935 311.334 73.1935 310.811C73.1935 310.287 73.518 310.06 73.9148 310.304C74.3117 310.549 75.2265 310.377 75.9487 309.919C76.9069 309.314 76.483 309.085 74.3768 309.075C72.7903 309.068 71.2283 309.488 70.9065 310.01C70.506 310.657 69.9176 310.623 69.0452 309.899C68.1286 309.138 67.7698 309.126 67.7698 309.855ZM77.7133 310.417C77.7133 311.163 78.12 311.773 78.6172 311.773C79.1144 311.773 79.5212 311.317 79.5212 310.759C79.5212 310.02 79.8457 310.013 80.718 310.737C81.5912 311.462 82.2014 311.443 82.9779 310.667C83.6721 309.973 84.0409 309.939 84.0409 310.57C84.0409 311.102 85.4249 311.489 87.1171 311.429C88.8084 311.37 89.9663 310.953 89.6888 310.503C89.3941 310.025 89.7123 310.012 90.4545 310.473C92.2787 311.603 97.8244 311.604 99.3557 310.474C100.117 309.914 100.436 309.89 100.123 310.417C99.8113 310.944 100.873 311.349 102.661 311.389C104.353 311.426 105.736 311.122 105.736 310.711C105.736 310.301 106.753 309.965 107.996 309.965C109.239 309.965 110.256 310.294 110.256 310.694C110.256 311.095 112.086 311.406 114.323 311.385C116.561 311.365 118.391 311.022 118.391 310.624C118.391 310.227 119.205 310.337 120.199 310.869C121.57 311.603 122.011 311.556 122.021 310.675C122.03 309.953 122.285 309.859 122.699 310.428C123.519 311.557 130.133 311.609 131.865 310.5C132.775 309.917 132.936 310.007 132.433 310.82C131.888 311.702 132.142 311.735 133.577 310.967C134.938 310.238 135.513 310.257 135.772 311.037C136.163 312.207 138.278 311.258 138.278 309.912C138.278 309.398 126.315 309.062 107.996 309.062C81.6807 309.062 77.7133 309.24 77.7133 310.417ZM142.115 310.177C142.345 310.867 144.01 311.239 146.484 311.154C148.683 311.078 150.482 310.952 150.482 310.873C150.482 310.367 154.165 310.181 154.924 310.649C156.787 311.801 163.589 311.418 163.589 310.163C163.589 308.607 146.322 308.744 145.297 310.308C144.828 311.025 144.629 310.991 144.619 310.191C144.612 309.57 143.962 309.062 143.175 309.062C142.388 309.062 141.91 309.563 142.115 310.177ZM164.493 310.116C164.493 310.53 165.103 310.869 165.849 310.869C166.595 310.869 167.205 310.53 167.205 310.116C167.205 309.702 166.595 309.363 165.849 309.363C165.103 309.363 164.493 309.702 164.493 310.116ZM168.109 310.417C168.109 311.163 168.515 311.773 169.013 311.773C169.51 311.773 169.917 311.367 169.917 310.869C169.917 310.372 170.934 309.965 172.176 309.965C173.419 309.965 174.436 310.314 174.436 310.739C174.436 311.837 179.853 311.515 179.872 310.417C179.881 309.92 180.207 310.017 180.598 310.632C181.105 311.429 182.119 311.518 184.132 310.941C185.685 310.495 187.188 310.362 187.47 310.645C188.336 311.511 193.282 311.377 192.741 310.503C192.464 310.054 192.742 309.999 193.362 310.381C195.097 311.454 202.396 311.51 202.752 310.454C202.945 309.881 203.724 310.043 204.745 310.869C205.711 311.65 206.134 311.746 205.743 311.095C205.37 310.474 205.461 309.965 205.946 309.965C206.431 309.965 207.035 310.474 207.287 311.095C207.631 311.946 207.982 311.89 208.704 310.869C209.231 310.124 209.669 309.92 209.677 310.417C209.695 311.616 214.478 311.641 215.327 310.447C215.75 309.852 215.996 309.935 216.005 310.675C216.015 311.54 216.461 311.6 217.753 310.908C219.015 310.233 219.612 310.286 219.944 311.103C220.24 311.83 220.663 311.907 221.147 311.321C222.128 310.134 225.343 309.87 225.995 310.923C226.302 311.42 227.641 311.424 229.348 310.935C231.334 310.366 232.342 310.437 232.692 311.173C233.062 311.951 233.331 311.931 233.72 311.095C234.36 309.725 238.28 309.592 239.096 310.914C239.501 311.569 240.051 311.556 240.877 310.869C241.534 310.324 242.294 310.238 242.566 310.677C243.143 311.611 245.842 311.538 247.447 310.548C248.07 310.162 248.561 310.295 248.561 310.848C248.561 311.543 249.076 311.561 250.295 310.908C251.557 310.233 252.155 310.286 252.486 311.103C252.838 311.969 253.14 311.943 253.806 310.993C254.535 309.953 254.746 309.953 255.162 310.993C255.576 312.03 255.791 312.031 256.515 310.999C257.116 310.142 257.56 310.074 257.992 310.773C258.886 312.22 260.312 312.001 260.312 310.417C260.312 309.23 254.587 309.062 214.21 309.062C173.833 309.062 168.109 309.23 168.109 310.417ZM261.216 310.225C261.216 310.869 262.426 311.481 263.928 311.595C265.84 311.741 266.64 311.397 266.64 310.432C266.64 308.779 265.164 308.61 264.526 310.191C264.162 311.095 264.056 311.095 263.999 310.191C263.904 308.694 261.216 308.726 261.216 310.225ZM412.703 310.547C412.439 311.236 412.815 311.773 413.56 311.773C414.291 311.773 414.895 311.265 414.902 310.643C414.911 309.944 415.168 309.858 415.58 310.417C416.564 311.757 418.504 311.937 418.504 310.689C418.504 309.899 418.775 309.875 419.499 310.599C420.128 311.227 421.437 311.324 423.047 310.863C424.451 310.46 425.854 310.385 426.164 310.695C426.475 311.006 429.963 311.29 433.916 311.327C439.35 311.378 441.103 311.1 441.103 310.185C441.103 308.407 413.389 308.761 412.703 310.547ZM442.007 309.869C442.007 310.313 442.638 310.918 443.41 311.215C444.363 311.58 444.597 311.394 444.14 310.634C443.732 309.953 444.095 310.022 445.066 310.812C446.455 311.939 446.772 311.939 447.486 310.812C447.938 310.097 448.313 309.933 448.321 310.445C448.336 311.485 461.916 311.521 463.591 310.486C464.148 310.141 464.606 310.297 464.606 310.834C464.606 311.681 465.721 311.686 469.577 310.851C470.075 310.744 470.685 310.762 470.933 310.892C472.397 311.66 480.879 311.312 480.89 310.483C480.899 309.853 481.136 309.829 481.568 310.417C482.481 311.66 486.301 311.973 486.301 310.805C486.301 310.285 486.714 310.115 487.219 310.427C488.813 311.411 492.628 311.842 492.628 311.039C492.628 310.076 495.393 310.237 497.111 311.298C497.927 311.803 498.526 311.707 498.75 311.037C499.001 310.281 499.596 310.244 500.837 310.908C502.129 311.6 502.575 311.54 502.585 310.675C502.595 309.847 502.875 309.903 503.558 310.869C504.28 311.89 504.631 311.946 504.975 311.095C505.476 309.862 509.803 309.508 509.803 310.7C509.803 311.569 517.519 311.593 518.384 310.726C518.711 310.399 520.127 310.46 521.531 310.863C523.172 311.333 524.486 311.223 525.212 310.554C525.832 309.982 526.115 309.92 525.841 310.417C525.281 311.434 532.371 311.555 533.987 310.555C534.538 310.215 535.244 310.35 535.557 310.855C536.425 312.259 537.826 311.949 537.826 310.352C537.826 309.336 537.119 309.014 535.34 309.22C533.972 309.378 532.555 309.915 532.19 310.414C531.777 310.979 531.521 310.894 531.512 310.191C531.501 309.313 525.464 309.062 504.38 309.062C486.904 309.062 477.261 309.383 477.261 309.965C477.261 310.463 476.447 310.869 475.453 310.869C474.459 310.869 473.645 310.463 473.645 309.965C473.645 309.397 467.77 309.062 457.826 309.062C449.125 309.062 442.007 309.425 442.007 309.869ZM573.75 310.176C573.417 311.046 575.243 311.331 581.331 311.363C585.742 311.386 589.351 311.182 589.351 310.911C589.351 310.64 590.368 310.417 591.611 310.417C592.854 310.417 593.871 310.627 593.871 310.882C593.871 311.138 595.702 311.365 597.939 311.385C600.206 311.406 602.013 311 602.02 310.468C602.028 309.943 602.429 310.124 602.911 310.869C603.393 311.615 603.793 311.785 603.801 311.246C603.808 310.708 604.425 310.267 605.171 310.267C605.916 310.267 606.526 310.534 606.526 310.86C606.526 311.571 620.901 311.259 621.627 310.533C621.905 310.256 622.941 310.462 623.929 310.991C625.32 311.735 625.568 311.697 625.027 310.82C624.528 310.012 624.691 309.913 625.595 310.478C627.174 311.462 634.549 311.695 634.549 310.762C634.549 309.752 638.495 310.175 639.364 311.278C639.871 311.921 640.258 311.86 640.571 311.09C640.824 310.465 641.501 310.244 642.074 310.598C642.648 310.954 648.663 311.261 655.441 311.283C664.942 311.312 667.666 311.063 667.332 310.191C667.093 309.57 666.366 309.062 665.714 309.062C665.063 309.062 664.325 309.57 664.074 310.191C663.731 311.043 663.6 311.051 663.547 310.223C663.44 308.585 574.378 308.539 573.75 310.176ZM668.899 309.965C668.899 310.628 669.171 310.899 669.502 310.568C669.833 310.237 669.833 309.694 669.502 309.363C669.171 309.032 668.899 309.303 668.899 309.965ZM670.935 310.196C671.42 311.65 679.747 311.801 679.747 310.355C679.747 309.617 678.188 309.223 675.169 309.2C672.128 309.176 670.706 309.511 670.935 310.196ZM139.483 310.568C139.815 310.899 140.357 310.899 140.689 310.568C141.02 310.237 140.749 309.965 140.086 309.965C139.424 309.965 139.152 310.237 139.483 310.568ZM29.2007 311.472C29.5325 311.803 30.0749 311.803 30.4066 311.472C30.7375 311.141 30.4663 310.869 29.8037 310.869C29.1411 310.869 28.8699 311.141 29.2007 311.472ZM1032.29 339.743V345.22H1035.45C1037.19 345.22 1038.62 344.813 1038.62 344.316C1038.62 343.819 1037.6 343.412 1036.36 343.412C1034.29 343.412 1034.1 343.076 1034.1 339.397C1034.1 337.189 1033.69 335.132 1033.19 334.824C1032.63 334.475 1032.29 336.321 1032.29 339.743ZM1068.96 335.794C1067.29 337.47 1067.08 342.588 1068.63 344.135C1070.49 345.998 1072.96 345.364 1073.94 342.769C1075.81 337.862 1072.09 332.661 1068.96 335.794ZM1061.22 340.248C1061.22 342.982 1061.62 345.22 1062.12 345.22C1062.62 345.22 1063.02 342.982 1063.02 340.248C1063.02 337.514 1062.62 335.276 1062.12 335.276C1061.62 335.276 1061.22 337.514 1061.22 340.248ZM1077.26 336.535C1075.32 338.005 1075.18 339.276 1077.03 338.565C1078.1 338.156 1078.39 338.815 1078.39 341.632C1078.39 343.605 1078.8 345.22 1079.29 345.22C1079.79 345.22 1080.2 342.982 1080.2 340.248C1080.2 335.029 1079.84 334.577 1077.26 336.535ZM1072.51 337.988C1073.28 340.411 1072.25 343.412 1070.65 343.412C1069.78 343.412 1069.35 342.411 1069.35 340.399C1069.35 336.045 1071.4 334.483 1072.51 337.988ZM1040.04 338.504C1037.13 341.41 1039.52 345.871 1043.45 344.883C1044.77 344.553 1045.85 343.875 1045.85 343.377C1045.85 342.876 1044.89 342.715 1043.69 343.016C1042.5 343.314 1041.25 343.119 1040.92 342.581C1040.54 341.962 1041.33 341.604 1043.08 341.604C1045.98 341.604 1046.71 340.113 1044.76 338.169C1043.29 336.695 1041.74 336.806 1040.04 338.504ZM1046.55 337.592C1045.74 338.398 1048.75 345.306 1049.76 344.969C1051.03 344.549 1053.22 337.988 1052.1 337.988C1051.61 337.988 1050.86 338.904 1050.43 340.022C1049.65 342.044 1049.64 342.041 1048.68 339.57C1047.66 336.988 1047.4 336.741 1046.55 337.592ZM1054.5 338.504C1052.81 340.196 1052.66 342.633 1054.16 344.135C1055.67 345.638 1058.06 345.491 1059.45 343.807C1060.48 342.572 1060.34 342.467 1058.31 342.976C1056.99 343.308 1055.73 343.138 1055.39 342.581C1055 341.962 1055.79 341.604 1057.55 341.604C1060.74 341.604 1061.33 339.502 1058.56 338.02C1056.3 336.809 1056.18 336.824 1054.5 338.504ZM1044.04 339.796C1044.04 340.293 1043.43 340.7 1042.68 340.7C1041.94 340.7 1041.33 340.293 1041.33 339.796C1041.33 339.299 1041.94 338.892 1042.68 338.892C1043.43 338.892 1044.04 339.299 1044.04 339.796ZM1058.05 339.796C1058.36 340.293 1057.75 340.7 1056.7 340.7C1055.64 340.7 1055.03 340.293 1055.34 339.796C1055.65 339.299 1056.26 338.892 1056.7 338.892C1057.13 338.892 1057.74 339.299 1058.05 339.796ZM966.656 354.636C965.908 356.586 966.948 359.015 968.335 358.553C968.956 358.346 969.464 357.227 969.464 356.067C969.464 353.589 967.451 352.563 966.656 354.636ZM1070.06 353.853C1069.35 354.564 1070.38 358.779 1071.26 358.779C1072.29 358.779 1072.31 354.519 1071.28 353.885C1070.86 353.621 1070.31 353.607 1070.06 353.853ZM1072.97 356.124C1072.97 358.476 1073.27 358.85 1075 358.61C1076.12 358.455 1077.31 357.717 1077.65 356.971C1078.12 355.923 1078.29 356.026 1078.39 357.423L1078.52 359.231L1079.29 357.423C1079.96 355.877 1080.08 355.845 1080.14 357.197C1080.22 359.405 1082.01 359.189 1082.01 356.971C1082.01 355.259 1080.3 354.643 1076.81 355.095C1076.19 355.177 1075.68 354.818 1075.68 354.299C1075.68 353.78 1075.07 353.355 1074.32 353.355C1073.41 353.355 1072.97 354.266 1072.97 356.124ZM969.012 356.067C969.012 356.564 968.605 356.971 968.108 356.971C967.611 356.971 967.204 356.564 967.204 356.067C967.204 355.57 967.611 355.163 968.108 355.163C968.605 355.163 969.012 355.57 969.012 356.067ZM1074.49 357.141C1074.2 357.862 1073.99 357.647 1073.94 356.594C1073.9 355.641 1074.12 355.108 1074.42 355.408C1074.72 355.708 1074.75 356.488 1074.49 357.141ZM967.573 362.598C967.758 363.514 978.902 363.799 1021.74 363.984C1072.71 364.205 1075.68 364.13 1075.61 362.628C1075.56 361.683 1075.35 361.496 1075.08 362.169C1074.49 363.64 968.528 363.84 967.799 362.372C967.547 361.862 967.445 361.965 967.573 362.598Z" fill="black"/>
</svg>
