<svg width="381" height="161" viewBox="0 0 381 161" fill="none" xmlns="http://www.w3.org/2000/svg">
<rect x="220.313" y="25.2092" width="160.199" height="11.4428" rx="5.7214" fill="#EFF3F9"/>
<rect x="220.313" y="25.2092" width="14.8756" height="11.4428" rx="5.7214" fill="#7F7FD5"/>
<path d="M229.419 10.8628V12.3379C228.435 12.8742 227.3 13.1424 226.013 13.1424C224.967 13.1424 224.079 12.9323 223.351 12.5122C222.622 12.092 222.046 11.5132 221.621 10.7757C221.196 10.0381 220.984 9.24026 220.984 8.38205C220.984 7.01875 221.469 5.87224 222.439 4.94251C223.413 4.01279 224.613 3.54792 226.039 3.54792C227.023 3.54792 228.116 3.80494 229.318 4.31897V5.76049C228.223 5.13472 227.152 4.82183 226.106 4.82183C225.034 4.82183 224.142 5.16153 223.431 5.84095C222.725 6.5159 222.372 7.36293 222.372 8.38205C222.372 9.41012 222.72 10.2549 223.418 10.9165C224.115 11.578 225.007 11.9088 226.093 11.9088C227.228 11.9088 228.337 11.5601 229.419 10.8628ZM230.873 3.66861H232.094V7.67805C232.603 7.05675 233.236 6.74609 233.991 6.74609C234.402 6.74609 234.771 6.8489 235.097 7.05451C235.424 7.26012 235.665 7.54396 235.822 7.90602C235.982 8.26807 236.063 8.80669 236.063 9.52186V13.0352H234.843V9.22015C234.843 8.76869 234.731 8.40664 234.507 8.13398C234.288 7.85685 233.998 7.71828 233.636 7.71828C233.368 7.71828 233.115 7.78756 232.878 7.92613C232.641 8.0647 232.38 8.29489 232.094 8.61672V13.0352H230.873V3.66861ZM238.396 4.27204C238.597 4.27204 238.769 4.34132 238.912 4.47988C239.056 4.61845 239.127 4.7883 239.127 4.98945C239.127 5.18612 239.056 5.35597 238.912 5.49901C238.769 5.64204 238.597 5.71356 238.396 5.71356C238.208 5.71356 238.043 5.64204 237.9 5.49901C237.757 5.3515 237.686 5.18165 237.686 4.98945C237.686 4.80171 237.757 4.63633 237.9 4.49329C238.043 4.34579 238.208 4.27204 238.396 4.27204ZM237.793 6.86678H239.013V13.0352H237.793V6.86678ZM242.003 6.86678V7.65123C242.549 7.04781 243.168 6.74609 243.861 6.74609C244.245 6.74609 244.603 6.84666 244.933 7.04781C245.264 7.24448 245.514 7.51714 245.684 7.86579C245.859 8.20996 245.946 8.75752 245.946 9.50845V13.0352H244.726V9.52186C244.726 8.89162 244.629 8.4424 244.437 8.17421C244.245 7.90155 243.923 7.76522 243.472 7.76522C242.895 7.76522 242.406 8.05352 242.003 8.63013V13.0352H240.756V6.86678H242.003ZM251.524 9.32742V11.949C251.524 12.1591 251.596 12.2641 251.739 12.2641C251.886 12.2641 252.116 12.1546 252.429 11.9356V12.6798C252.152 12.8586 251.929 12.9793 251.759 13.0419C251.593 13.1089 251.419 13.1424 251.236 13.1424C250.713 13.1424 250.404 12.9368 250.311 12.5256C249.792 12.9279 249.24 13.129 248.654 13.129C248.225 13.129 247.868 12.9882 247.582 12.7066C247.296 12.4206 247.153 12.063 247.153 11.6339C247.153 11.245 247.291 10.8986 247.568 10.5946C247.85 10.2862 248.248 10.0426 248.762 9.86381L250.324 9.32742V8.99889C250.324 8.2569 249.953 7.8859 249.211 7.8859C248.545 7.8859 247.897 8.23008 247.267 8.91843V7.58419C247.74 7.02546 248.422 6.74609 249.312 6.74609C249.978 6.74609 250.512 6.92042 250.914 7.26906C251.048 7.38081 251.169 7.53055 251.276 7.71828C251.383 7.90155 251.45 8.08704 251.477 8.27478C251.508 8.45804 251.524 8.80892 251.524 9.32742ZM250.324 11.8149V9.98449L249.506 10.2996C249.09 10.465 248.795 10.6326 248.621 10.8025C248.451 10.9679 248.366 11.1757 248.366 11.426C248.366 11.6808 248.447 11.8886 248.608 12.0496C248.773 12.2105 248.985 12.2909 249.245 12.2909C249.633 12.2909 249.993 12.1322 250.324 11.8149Z" fill="#4F4F4F"/>
<path d="M351.106 3.54792C351.964 3.54792 352.672 3.99938 353.231 4.90228C353.794 5.80072 354.076 6.94277 354.076 8.32842C354.076 9.74982 353.794 10.9053 353.231 11.7948C352.672 12.6843 351.946 13.129 351.052 13.129C350.145 13.129 349.416 12.6932 348.866 11.8216C348.317 10.95 348.042 9.79452 348.042 8.35523C348.042 6.93383 348.326 5.77837 348.893 4.88887C349.461 3.99491 350.198 3.54792 351.106 3.54792ZM351.119 4.82183H351.052C350.538 4.82183 350.129 5.13919 349.825 5.7739C349.526 6.40415 349.376 7.26012 349.376 8.34183C349.376 9.45035 349.523 10.3197 349.818 10.95C350.113 11.5802 350.52 11.8953 351.039 11.8953C351.557 11.8953 351.966 11.5802 352.266 10.95C352.565 10.3197 352.715 9.46375 352.715 8.38205C352.715 7.29588 352.57 6.43097 352.279 5.78731C351.993 5.14366 351.606 4.82183 351.119 4.82183ZM355.155 14.6577V14.4096C355.357 14.2174 355.497 14.023 355.578 13.8263C355.658 13.6341 355.705 13.3704 355.719 13.0352C355.245 12.8966 355.008 12.6038 355.008 12.1568C355.008 11.9155 355.088 11.7076 355.249 11.5333C355.415 11.3545 355.609 11.2651 355.833 11.2651C356.105 11.2651 356.329 11.3858 356.503 11.6272C356.677 11.8685 356.765 12.1769 356.765 12.5524C356.765 13.0486 356.622 13.4844 356.335 13.8598C356.049 14.2353 355.656 14.5013 355.155 14.6577ZM360.332 11.7411H363.898V13.0352H357.971V12.9413L358.535 12.2775C359.415 11.1869 360.115 10.2616 360.633 9.50175C361.156 8.74188 361.496 8.1675 361.652 7.77863C361.813 7.38975 361.894 7.00534 361.894 6.62541C361.894 6.09797 361.744 5.67557 361.445 5.35821C361.145 5.03638 360.747 4.87546 360.251 4.87546C359.876 4.87546 359.505 4.98721 359.138 5.2107C358.776 5.42972 358.45 5.74038 358.159 6.14266V4.43966C358.888 3.84517 359.639 3.54792 360.412 3.54792C361.23 3.54792 361.903 3.82058 362.43 4.3659C362.962 4.91122 363.228 5.60405 363.228 6.44438C363.228 6.81984 363.161 7.22213 363.027 7.65123C362.897 8.07587 362.665 8.56755 362.33 9.12628C361.994 9.68054 361.424 10.4382 360.62 11.3992L360.332 11.7411ZM368.585 3.64179L368.719 3.54792L369.53 4.57375C368.815 5.03414 368.221 5.537 367.747 6.08232C367.278 6.62764 366.916 7.26906 366.661 8.00659C367.157 7.75181 367.651 7.62442 368.143 7.62442C368.88 7.62442 369.501 7.8859 370.007 8.40887C370.512 8.93184 370.764 9.57327 370.764 10.3331C370.764 11.1154 370.489 11.7791 369.939 12.3245C369.39 12.8698 368.721 13.1424 367.935 13.1424C367.054 13.1424 366.341 12.834 365.796 12.2172C365.255 11.5959 364.985 10.7846 364.985 9.78335C364.985 9.03242 365.123 8.28595 365.4 7.54396C365.682 6.7975 366.084 6.1002 366.607 5.45207C367.135 4.79948 367.794 4.19605 368.585 3.64179ZM366.373 9.39447C366.337 9.60455 366.319 9.83922 366.319 10.0985C366.319 10.6259 366.471 11.0595 366.775 11.3992C367.083 11.7389 367.477 11.9088 367.955 11.9088C368.384 11.9088 368.737 11.7635 369.014 11.4729C369.296 11.1824 369.437 10.8159 369.437 10.3734C369.437 9.92191 369.287 9.55762 368.987 9.28049C368.692 8.99889 368.301 8.85809 367.814 8.85809C367.564 8.85809 367.336 8.89609 367.13 8.97207C366.929 9.04806 366.676 9.18886 366.373 9.39447ZM378.414 3.53451H379.44L373.278 13.1424H372.246L378.414 3.53451ZM378.079 8.95866C378.651 8.95866 379.143 9.16428 379.554 9.5755C379.965 9.98226 380.171 10.4717 380.171 11.0438C380.171 11.616 379.965 12.1032 379.554 12.5055C379.147 12.9033 378.656 13.1022 378.079 13.1022C377.498 13.1022 377.002 12.9033 376.591 12.5055C376.184 12.1032 375.98 11.616 375.98 11.0438C375.98 10.4672 376.186 9.97555 376.597 9.5688C377.009 9.16204 377.502 8.95866 378.079 8.95866ZM378.066 9.97108C377.771 9.97108 377.518 10.0761 377.308 10.2862C377.102 10.4963 377 10.7488 377 11.0438C377 11.3433 377.102 11.6003 377.308 11.8149C377.518 12.025 377.771 12.13 378.066 12.13C378.37 12.13 378.627 12.025 378.837 11.8149C379.047 11.6048 379.152 11.3478 379.152 11.0438C379.152 10.7444 379.047 10.4918 378.837 10.2862C378.627 10.0761 378.37 9.97108 378.066 9.97108ZM373.661 3.56133C374.237 3.56133 374.729 3.76694 375.136 4.17817C375.542 4.5894 375.746 5.08331 375.746 5.65992C375.746 6.23206 375.54 6.72374 375.129 7.13497C374.722 7.54619 374.233 7.75181 373.661 7.75181C373.088 7.75181 372.597 7.54619 372.186 7.13497C371.779 6.72374 371.575 6.23206 371.575 5.65992C371.575 5.08331 371.779 4.5894 372.186 4.17817C372.592 3.76694 373.084 3.56133 373.661 3.56133ZM373.647 4.57375C373.348 4.57375 373.091 4.68103 372.876 4.89558C372.666 5.10566 372.561 5.36044 372.561 5.65992C372.561 5.95493 372.668 6.20748 372.883 6.41756C373.097 6.62764 373.352 6.73268 373.647 6.73268C373.947 6.73268 374.201 6.62764 374.412 6.41756C374.626 6.20748 374.733 5.95493 374.733 5.65992C374.733 5.35597 374.628 5.09896 374.418 4.88887C374.208 4.67879 373.951 4.57375 373.647 4.57375Z" fill="#979797"/>
<rect x="0.611816" y="88.1447" width="160.199" height="11.4428" rx="5.7214" fill="#EFF3F9"/>
<rect x="0.611816" y="88.1447" width="5.7214" height="11.4428" rx="2.8607" fill="#7F7FD5"/>
<path d="M8.16186 65.4597H9.50952V70.7766C9.50952 71.4963 9.45588 72.0393 9.34861 72.4059C9.2458 72.7724 9.11617 73.0786 8.95973 73.3244C8.80775 73.5658 8.62002 73.7826 8.39653 73.9748C7.65454 74.614 6.68458 74.9336 5.48666 74.9336C4.2664 74.9336 3.2875 74.6162 2.54998 73.9815C2.32649 73.7848 2.13652 73.5658 1.98008 73.3244C1.8281 73.0786 1.70071 72.7791 1.5979 72.426C1.49957 72.0729 1.4504 71.5186 1.4504 70.7632V65.4597H2.79806V70.7766C2.79806 71.6572 2.89863 72.2695 3.09977 72.6137C3.30091 72.9579 3.6071 73.235 4.01832 73.4451C4.42955 73.6507 4.91452 73.7535 5.47325 73.7535C6.26889 73.7535 6.91701 73.5457 7.41763 73.13C7.68136 72.9065 7.87132 72.6428 7.98754 72.3388C8.10376 72.0349 8.16186 71.5141 8.16186 70.7766V65.4597ZM15.2086 68.6579H16.6635L14.0285 71.6818L17.1999 74.8263H15.5639L12.473 71.6818L15.2086 68.6579ZM11.1991 65.4597H12.4194V74.8263H11.1991V65.4597ZM19.0906 68.6579V70.0726L19.1577 69.9653C19.7477 69.0133 20.3377 68.5372 20.9277 68.5372C21.3881 68.5372 21.8686 68.7697 22.3692 69.2345L21.7256 70.3073C21.301 69.905 20.9076 69.7039 20.5456 69.7039C20.1522 69.7039 19.8103 69.8916 19.5197 70.2671C19.2337 70.6425 19.0906 71.0873 19.0906 71.6013V74.8263H17.8636V68.6579H19.0906ZM27.1028 71.1186V73.7401C27.1028 73.9502 27.1743 74.0552 27.3174 74.0552C27.4649 74.0552 27.6951 73.9457 28.0079 73.7267V74.4709C27.7308 74.6497 27.5073 74.7704 27.3375 74.833C27.1721 74.9 26.9978 74.9336 26.8145 74.9336C26.2915 74.9336 25.9831 74.728 25.8892 74.3167C25.3707 74.719 24.8187 74.9202 24.2332 74.9202C23.8041 74.9202 23.4465 74.7794 23.1604 74.4978C22.8743 74.2117 22.7313 73.8541 22.7313 73.425C22.7313 73.0361 22.8699 72.6897 23.147 72.3858C23.4286 72.0773 23.8264 71.8337 24.3404 71.6549L25.9027 71.1186V70.79C25.9027 70.048 25.5317 69.677 24.7897 69.677C24.1237 69.677 23.4755 70.0212 22.8453 70.7096V69.3753C23.3191 68.8166 24.0007 68.5372 24.8902 68.5372C25.5562 68.5372 26.0904 68.7116 26.4927 69.0602C26.6268 69.1719 26.7475 69.3217 26.8547 69.5094C26.962 69.6927 27.0291 69.8782 27.0559 70.0659C27.0872 70.2492 27.1028 70.6001 27.1028 71.1186ZM25.9027 73.606V71.7756L25.0847 72.0908C24.669 72.2561 24.374 72.4238 24.1996 72.5936C24.0298 72.759 23.9449 72.9668 23.9449 73.2172C23.9449 73.4719 24.0253 73.6798 24.1862 73.8407C24.3516 74.0016 24.5639 74.0821 24.8232 74.0821C25.2121 74.0821 25.5719 73.9234 25.9027 73.606ZM29.7177 66.0632C29.9188 66.0632 30.0909 66.1325 30.2339 66.271C30.377 66.4096 30.4485 66.5794 30.4485 66.7806C30.4485 66.9773 30.377 67.1471 30.2339 67.2901C30.0909 67.4332 29.9188 67.5047 29.7177 67.5047C29.5299 67.5047 29.3645 67.4332 29.2215 67.2901C29.0785 67.1426 29.007 66.9728 29.007 66.7806C29.007 66.5929 29.0785 66.4275 29.2215 66.2844C29.3645 66.1369 29.5299 66.0632 29.7177 66.0632ZM29.1142 68.6579H30.3345V74.8263H29.1142V68.6579ZM33.3248 68.6579V69.4424C33.8701 68.8389 34.4892 68.5372 35.182 68.5372C35.5664 68.5372 35.924 68.6378 36.2548 68.8389C36.5856 69.0356 36.8359 69.3083 37.0057 69.6569C37.1801 70.0011 37.2672 70.5487 37.2672 71.2996V74.8263H36.047V71.313C36.047 70.6828 35.9509 70.2335 35.7587 69.9653C35.5664 69.6927 35.2446 69.5564 34.7932 69.5564C34.2166 69.5564 33.7271 69.8447 33.3248 70.4213V74.8263H32.0777V68.6579H33.3248ZM44.2268 71.8494H39.8888C39.9201 72.4394 40.1167 72.9087 40.4788 73.2574C40.8453 73.606 41.3169 73.7804 41.8935 73.7804C42.6981 73.7804 43.4401 73.53 44.1195 73.0294V74.2229C43.744 74.4732 43.3708 74.652 42.9998 74.7592C42.6333 74.8665 42.2019 74.9202 41.7058 74.9202C41.0264 74.9202 40.4766 74.7794 40.0564 74.4978C39.6362 74.2162 39.2988 73.8385 39.044 73.3647C38.7937 72.8864 38.6685 72.3344 38.6685 71.7086C38.6685 70.7699 38.9345 70.0078 39.4664 69.4223C39.9983 68.8322 40.6889 68.5372 41.5382 68.5372C42.3561 68.5372 43.0087 68.8233 43.4959 69.3954C43.9832 69.9676 44.2268 70.7342 44.2268 71.6952V71.8494ZM39.9156 71.1186H43.0199C42.9886 70.6313 42.8433 70.2559 42.5841 69.9922C42.3248 69.7284 41.9762 69.5966 41.5382 69.5966C41.1001 69.5966 40.7403 69.7284 40.4587 69.9922C40.1816 70.2559 40.0005 70.6313 39.9156 71.1186Z" fill="#4F4F4F"/>
<path d="M131.404 65.3391C132.262 65.3391 132.971 65.7905 133.53 66.6934C134.093 67.5919 134.374 68.7339 134.374 70.1196C134.374 71.541 134.093 72.6964 133.53 73.5859C132.971 74.4754 132.244 74.9202 131.35 74.9202C130.443 74.9202 129.715 74.4844 129.165 73.6127C128.615 72.7411 128.34 71.5857 128.34 70.1464C128.34 68.725 128.624 67.5695 129.192 66.68C129.759 65.786 130.497 65.3391 131.404 65.3391ZM131.418 66.613H131.35C130.836 66.613 130.427 66.9303 130.124 67.565C129.824 68.1953 129.674 69.0513 129.674 70.133C129.674 71.2415 129.822 72.1109 130.117 72.7411C130.412 73.3714 130.819 73.6865 131.337 73.6865C131.856 73.6865 132.265 73.3714 132.564 72.7411C132.864 72.1109 133.013 71.2549 133.013 70.1732C133.013 69.087 132.868 68.2221 132.577 67.5784C132.291 66.9348 131.905 66.613 131.418 66.613ZM135.454 76.4488V76.2008C135.655 76.0086 135.796 75.8141 135.876 75.6175C135.957 75.4253 136.004 75.1615 136.017 74.8263C135.543 74.6877 135.306 74.395 135.306 73.948C135.306 73.7066 135.387 73.4988 135.548 73.3244C135.713 73.1456 135.907 73.0562 136.131 73.0562C136.404 73.0562 136.627 73.1769 136.801 73.4183C136.976 73.6597 137.063 73.9681 137.063 74.3436C137.063 74.8397 136.92 75.2755 136.634 75.651C136.348 76.0264 135.954 76.2924 135.454 76.4488ZM140.63 73.5323H144.197V74.8263H138.27V74.7324L138.833 74.0687C139.714 72.978 140.413 72.0528 140.932 71.2929C141.455 70.533 141.794 69.9586 141.951 69.5698C142.112 69.1809 142.192 68.7965 142.192 68.4165C142.192 67.8891 142.042 67.4667 141.743 67.1493C141.443 66.8275 141.046 66.6666 140.549 66.6666C140.174 66.6666 139.803 66.7783 139.436 67.0018C139.074 67.2209 138.748 67.5315 138.458 67.9338V66.2308C139.186 65.6363 139.937 65.3391 140.71 65.3391C141.528 65.3391 142.201 65.6117 142.728 66.157C143.26 66.7024 143.526 67.3952 143.526 68.2355C143.526 68.611 143.459 69.0133 143.325 69.4424C143.196 69.867 142.963 70.3587 142.628 70.9174C142.293 71.4717 141.723 72.2293 140.918 73.1903L140.63 73.5323ZM148.153 65.3391C149.011 65.3391 149.719 65.7905 150.278 66.6934C150.841 67.5919 151.123 68.7339 151.123 70.1196C151.123 71.541 150.841 72.6964 150.278 73.5859C149.719 74.4754 148.993 74.9202 148.099 74.9202C147.192 74.9202 146.463 74.4844 145.913 73.6127C145.363 72.7411 145.089 71.5857 145.089 70.1464C145.089 68.725 145.372 67.5695 145.94 66.68C146.508 65.786 147.245 65.3391 148.153 65.3391ZM148.166 66.613H148.099C147.585 66.613 147.176 66.9303 146.872 67.565C146.573 68.1953 146.423 69.0513 146.423 70.133C146.423 71.2415 146.57 72.1109 146.865 72.7411C147.16 73.3714 147.567 73.6865 148.086 73.6865C148.604 73.6865 149.013 73.3714 149.313 72.7411C149.612 72.1109 149.762 71.2549 149.762 70.1732C149.762 69.087 149.616 68.2221 149.326 67.5784C149.04 66.9348 148.653 66.613 148.166 66.613ZM158.713 65.3257H159.738L153.577 74.9336H152.544L158.713 65.3257ZM158.377 70.7498C158.95 70.7498 159.441 70.9554 159.852 71.3666C160.264 71.7734 160.469 72.2628 160.469 72.835C160.469 73.4071 160.264 73.8943 159.852 74.2966C159.446 74.6944 158.954 74.8933 158.377 74.8933C157.796 74.8933 157.3 74.6944 156.889 74.2966C156.482 73.8943 156.279 73.4071 156.279 72.835C156.279 72.2584 156.484 71.7667 156.896 71.3599C157.307 70.9532 157.801 70.7498 158.377 70.7498ZM158.364 71.7622C158.069 71.7622 157.816 71.8673 157.606 72.0773C157.401 72.2874 157.298 72.54 157.298 72.835C157.298 73.1345 157.401 73.3915 157.606 73.606C157.816 73.8161 158.069 73.9212 158.364 73.9212C158.668 73.9212 158.925 73.8161 159.135 73.606C159.345 73.3959 159.45 73.1389 159.45 72.835C159.45 72.5355 159.345 72.283 159.135 72.0773C158.925 71.8673 158.668 71.7622 158.364 71.7622ZM153.959 65.3525C154.536 65.3525 155.027 65.5581 155.434 65.9693C155.841 66.3805 156.044 66.8744 156.044 67.4511C156.044 68.0232 155.839 68.5149 155.427 68.9261C155.021 69.3373 154.531 69.5429 153.959 69.5429C153.387 69.5429 152.895 69.3373 152.484 68.9261C152.077 68.5149 151.874 68.0232 151.874 67.4511C151.874 66.8744 152.077 66.3805 152.484 65.9693C152.891 65.5581 153.382 65.3525 153.959 65.3525ZM153.946 66.3649C153.646 66.3649 153.389 66.4722 153.174 66.6867C152.964 66.8968 152.859 67.1516 152.859 67.4511C152.859 67.7461 152.967 67.9986 153.181 68.2087C153.396 68.4188 153.651 68.5238 153.946 68.5238C154.245 68.5238 154.5 68.4188 154.71 68.2087C154.924 67.9986 155.032 67.7461 155.032 67.4511C155.032 67.1471 154.927 66.8901 154.717 66.68C154.506 66.4699 154.249 66.3649 153.946 66.3649Z" fill="#979797"/>
<rect x="0.612305" y="26.3535" width="160.199" height="11.4428" rx="5.7214" fill="#EFF3F9"/>
<rect x="0.612305" y="26.3535" width="146.468" height="11.4428" rx="5.7214" fill="#7F7FD5"/>
<path d="M1.68555 13.0352V3.66861H4.03222C4.97983 3.66861 5.73076 3.90327 6.28502 4.37261C6.84375 4.84194 7.12311 5.47666 7.12311 6.27676C7.12311 6.82208 6.98678 7.29365 6.71412 7.69146C6.44146 8.08928 6.05035 8.38652 5.54079 8.5832C5.84027 8.77987 6.13304 9.04806 6.41911 9.38777C6.70518 9.72748 7.10747 10.3197 7.62597 11.1645C7.95227 11.6964 8.21375 12.0965 8.41043 12.3647L8.90658 13.0352H7.31085L6.90186 12.4183C6.88845 12.396 6.86163 12.358 6.8214 12.3043L6.55991 11.9356L6.14422 11.2517L5.695 10.5209C5.41787 10.1365 5.16309 9.83028 4.93066 9.60232C4.7027 9.37436 4.49485 9.21121 4.30712 9.11287C4.12385 9.01007 3.8132 8.95866 3.37515 8.95866H3.02651V13.0352H1.68555ZM3.42879 4.80842H3.02651V7.76522H3.53607C4.21548 7.76522 4.68035 7.70711 4.93066 7.59089C5.18544 7.47468 5.38211 7.30035 5.52068 7.06792C5.66371 6.83102 5.73523 6.56283 5.73523 6.26335C5.73523 5.96834 5.65701 5.70238 5.50056 5.46548C5.34412 5.22411 5.12286 5.05426 4.83679 4.95592C4.55519 4.85759 4.08586 4.80842 3.42879 4.80842ZM13.7072 13.0352V12.2507C13.4479 12.5323 13.1507 12.7513 12.8155 12.9078C12.4847 13.0642 12.1539 13.1424 11.8231 13.1424C11.4343 13.1424 11.0745 13.0463 10.7437 12.8541C10.4174 12.6575 10.1693 12.3937 9.99946 12.063C9.83407 11.7277 9.75138 11.1735 9.75138 10.4002V6.86678H10.9716V10.3868C10.9716 11.0349 11.0633 11.4886 11.2465 11.7478C11.4343 12.0026 11.7606 12.13 12.2254 12.13C12.8065 12.13 13.3004 11.8462 13.7072 11.2785V6.86678H14.9275V13.0352H13.7072ZM16.3422 12.5926V11.2785C16.6863 11.5199 17.0372 11.7166 17.3948 11.8685C17.7569 12.016 18.0608 12.0898 18.3067 12.0898C18.5614 12.0898 18.7805 12.0272 18.9637 11.9021C19.147 11.7769 19.2386 11.6272 19.2386 11.4528C19.2386 11.274 19.1783 11.1265 19.0576 11.0103C18.9414 10.8896 18.6866 10.7175 18.2932 10.4941C17.5066 10.056 16.9903 9.68278 16.7444 9.37436C16.5031 9.06147 16.3824 8.72176 16.3824 8.35523C16.3824 7.88143 16.5656 7.49479 16.9322 7.19531C17.3032 6.89583 17.7792 6.74609 18.3603 6.74609C18.9637 6.74609 19.5828 6.91595 20.2175 7.25565V8.46251C19.4934 8.02447 18.9011 7.80544 18.4407 7.80544C18.2038 7.80544 18.0116 7.85685 17.8641 7.95965C17.7211 8.05799 17.6496 8.18985 17.6496 8.35523C17.6496 8.49827 17.7144 8.6346 17.844 8.76422C17.9781 8.89385 18.2105 9.05029 18.5413 9.23356L18.9771 9.48163C20.0052 10.0627 20.5192 10.7064 20.5192 11.4126C20.5192 11.9177 20.3203 12.3334 19.9225 12.6597C19.5292 12.9815 19.0218 13.1424 18.4005 13.1424C18.034 13.1424 17.7077 13.1044 17.4216 13.0285C17.1356 12.948 16.7757 12.8027 16.3422 12.5926ZM21.6255 12.5926V11.2785C21.9697 11.5199 22.3206 11.7166 22.6782 11.8685C23.0402 12.016 23.3442 12.0898 23.59 12.0898C23.8448 12.0898 24.0638 12.0272 24.2471 11.9021C24.4303 11.7769 24.522 11.6272 24.522 11.4528C24.522 11.274 24.4616 11.1265 24.3409 11.0103C24.2247 10.8896 23.9699 10.7175 23.5766 10.4941C22.7899 10.056 22.2736 9.68278 22.0278 9.37436C21.7864 9.06147 21.6657 8.72176 21.6657 8.35523C21.6657 7.88143 21.849 7.49479 22.2155 7.19531C22.5865 6.89583 23.0626 6.74609 23.6436 6.74609C24.2471 6.74609 24.8661 6.91595 25.5009 7.25565V8.46251C24.7767 8.02447 24.1845 7.80544 23.7241 7.80544C23.4872 7.80544 23.295 7.85685 23.1475 7.95965C23.0045 8.05799 22.9329 8.18985 22.9329 8.35523C22.9329 8.49827 22.9977 8.6346 23.1274 8.76422C23.2615 8.89385 23.4939 9.05029 23.8247 9.23356L24.2605 9.48163C25.2885 10.0627 25.8026 10.7064 25.8026 11.4126C25.8026 11.9177 25.6037 12.3334 25.2058 12.6597C24.8125 12.9815 24.3052 13.1424 23.6839 13.1424C23.3173 13.1424 22.991 13.1044 22.705 13.0285C22.4189 12.948 22.0591 12.8027 21.6255 12.5926ZM27.8408 4.27204C28.042 4.27204 28.2141 4.34132 28.3571 4.47988C28.5001 4.61845 28.5716 4.7883 28.5716 4.98945C28.5716 5.18612 28.5001 5.35597 28.3571 5.49901C28.2141 5.64204 28.042 5.71356 27.8408 5.71356C27.6531 5.71356 27.4877 5.64204 27.3447 5.49901C27.2016 5.3515 27.1301 5.18165 27.1301 4.98945C27.1301 4.80171 27.2016 4.63633 27.3447 4.49329C27.4877 4.34579 27.6531 4.27204 27.8408 4.27204ZM27.2374 6.86678H28.4577V13.0352H27.2374V6.86678ZM34.1031 9.32742V11.949C34.1031 12.1591 34.1746 12.2641 34.3176 12.2641C34.4651 12.2641 34.6953 12.1546 35.0082 11.9356V12.6798C34.7311 12.8586 34.5076 12.9793 34.3377 13.0419C34.1723 13.1089 33.998 13.1424 33.8148 13.1424C33.2918 13.1424 32.9834 12.9368 32.8895 12.5256C32.371 12.9279 31.819 13.129 31.2334 13.129C30.8043 13.129 30.4467 12.9882 30.1607 12.7066C29.8746 12.4206 29.7316 12.063 29.7316 11.6339C29.7316 11.245 29.8701 10.8986 30.1473 10.5946C30.4289 10.2862 30.8267 10.0426 31.3407 9.86381L32.9029 9.32742V8.99889C32.9029 8.2569 32.5319 7.8859 31.7899 7.8859C31.1239 7.8859 30.4758 8.23008 29.8455 8.91843V7.58419C30.3193 7.02546 31.001 6.74609 31.8905 6.74609C32.5565 6.74609 33.0906 6.92042 33.4929 7.26906C33.627 7.38081 33.7477 7.53055 33.855 7.71828C33.9623 7.90155 34.0293 8.08704 34.0561 8.27478C34.0874 8.45804 34.1031 8.80892 34.1031 9.32742ZM32.9029 11.8149V9.98449L32.0849 10.2996C31.6692 10.465 31.3742 10.6326 31.1999 10.8025C31.03 10.9679 30.9451 11.1757 30.9451 11.426C30.9451 11.6808 31.0256 11.8886 31.1865 12.0496C31.3519 12.2105 31.5642 12.2909 31.8234 12.2909C32.2123 12.2909 32.5721 12.1322 32.9029 11.8149Z" fill="#4F4F4F"/>
<path d="M140.369 13.1424L139.544 12.1702C140.237 11.7322 140.843 11.2025 141.361 10.5812C141.88 9.95544 142.226 9.31402 142.4 8.65695C141.976 8.92067 141.477 9.05253 140.905 9.05253C140.19 9.05253 139.575 8.78657 139.061 8.25466C138.552 7.72275 138.297 7.08357 138.297 6.3371C138.297 5.55935 138.57 4.90005 139.115 4.3592C139.66 3.81835 140.326 3.54792 141.113 3.54792C141.998 3.54792 142.722 3.86752 143.285 4.5067C143.849 5.14589 144.13 5.96611 144.13 6.96735C144.13 8.10269 143.777 9.25144 143.071 10.4136C142.365 11.5713 141.464 12.4809 140.369 13.1424ZM142.662 7.3227C142.716 6.96511 142.742 6.73268 142.742 6.62541C142.742 6.08456 142.59 5.64204 142.286 5.29786C141.987 4.95369 141.6 4.7816 141.127 4.7816C140.693 4.7816 140.333 4.9291 140.047 5.22411C139.765 5.51465 139.625 5.88118 139.625 6.32369C139.625 6.73045 139.779 7.08133 140.087 7.37634C140.396 7.67135 140.764 7.81885 141.194 7.81885C141.694 7.81885 142.184 7.65347 142.662 7.3227ZM149.541 3.54792H150.091V8.80445H151.137V9.94426H150.091V13.0352H148.783V9.94426H144.821V9.36765L149.541 3.54792ZM148.783 8.80445V6.08903L146.618 8.80445H148.783ZM158.713 3.53451H159.739L153.577 13.1424H152.545L158.713 3.53451ZM158.378 8.95866C158.95 8.95866 159.442 9.16428 159.853 9.5755C160.264 9.98226 160.47 10.4717 160.47 11.0438C160.47 11.616 160.264 12.1032 159.853 12.5055C159.446 12.9033 158.954 13.1022 158.378 13.1022C157.797 13.1022 157.301 12.9033 156.889 12.5055C156.483 12.1032 156.279 11.616 156.279 11.0438C156.279 10.4672 156.485 9.97555 156.896 9.5688C157.307 9.16204 157.801 8.95866 158.378 8.95866ZM158.364 9.97108C158.069 9.97108 157.817 10.0761 157.607 10.2862C157.401 10.4963 157.298 10.7488 157.298 11.0438C157.298 11.3433 157.401 11.6003 157.607 11.8149C157.817 12.025 158.069 12.13 158.364 12.13C158.668 12.13 158.925 12.025 159.135 11.8149C159.346 11.6048 159.451 11.3478 159.451 11.0438C159.451 10.7444 159.346 10.4918 159.135 10.2862C158.925 10.0761 158.668 9.97108 158.364 9.97108ZM153.959 3.56133C154.536 3.56133 155.028 3.76694 155.434 4.17817C155.841 4.5894 156.045 5.08331 156.045 5.65992C156.045 6.23206 155.839 6.72374 155.428 7.13497C155.021 7.54619 154.532 7.75181 153.959 7.75181C153.387 7.75181 152.896 7.54619 152.484 7.13497C152.078 6.72374 151.874 6.23206 151.874 5.65992C151.874 5.08331 152.078 4.5894 152.484 4.17817C152.891 3.76694 153.383 3.56133 153.959 3.56133ZM153.946 4.57375C153.647 4.57375 153.39 4.68103 153.175 4.89558C152.965 5.10566 152.86 5.36044 152.86 5.65992C152.86 5.95493 152.967 6.20748 153.182 6.41756C153.396 6.62764 153.651 6.73268 153.946 6.73268C154.245 6.73268 154.5 6.62764 154.71 6.41756C154.925 6.20748 155.032 5.95493 155.032 5.65992C155.032 5.35597 154.927 5.09896 154.717 4.88887C154.507 4.67879 154.25 4.57375 153.946 4.57375Z" fill="#979797"/>
<rect x="220.313" y="87.0004" width="160.199" height="11.4428" rx="5.7214" fill="#EFF3F9"/>
<rect x="220.313" y="87.0004" width="5.7214" height="11.4428" rx="2.8607" fill="#7F7FD5"/>
<path d="M227.863 64.3153H229.211V69.6322C229.211 70.3519 229.157 70.8949 229.05 71.2615C228.947 71.628 228.817 71.9342 228.661 72.18C228.509 72.4214 228.321 72.6382 228.098 72.8304C227.356 73.4696 226.386 73.7892 225.188 73.7892C223.968 73.7892 222.989 73.4718 222.251 72.8371C222.028 72.6404 221.838 72.4214 221.681 72.18C221.529 71.9342 221.402 71.6347 221.299 71.2816C221.201 70.9285 221.152 70.3742 221.152 69.6188V64.3153H222.499V69.6322C222.499 70.5128 222.6 71.1251 222.801 71.4693C223.002 71.8135 223.308 72.0906 223.719 72.3007C224.131 72.5063 224.616 72.6091 225.174 72.6091C225.97 72.6091 226.618 72.4013 227.119 71.9856C227.383 71.7621 227.572 71.4984 227.689 71.1944C227.805 70.8905 227.863 70.3697 227.863 69.6322V64.3153ZM233.388 69.7529L232.369 69.1361C231.729 68.7472 231.274 68.365 231.001 67.9895C230.733 67.6096 230.599 67.1738 230.599 66.6821C230.599 65.9446 230.853 65.3456 231.363 64.8852C231.877 64.4248 232.543 64.1947 233.361 64.1947C234.143 64.1947 234.861 64.4137 235.513 64.8517V66.3737C234.838 65.7256 234.112 65.4015 233.334 65.4015C232.896 65.4015 232.536 65.5043 232.255 65.7099C231.973 65.9111 231.832 66.1703 231.832 66.4877C231.832 66.7693 231.935 67.033 232.141 67.2788C232.346 67.5247 232.679 67.7817 233.14 68.0499L234.166 68.6533C235.31 69.3327 235.882 70.1999 235.882 71.2548C235.882 72.0057 235.629 72.6158 235.124 73.0852C234.624 73.5545 233.971 73.7892 233.166 73.7892C232.241 73.7892 231.399 73.5053 230.639 72.9377V71.2346C231.363 72.151 232.201 72.6091 233.153 72.6091C233.573 72.6091 233.922 72.4929 234.199 72.2605C234.481 72.0236 234.621 71.7286 234.621 71.3754C234.621 70.8033 234.21 70.2625 233.388 69.7529ZM240.347 64.2617H241.293L245.483 73.6819H244.109L242.862 70.9061H238.879L237.699 73.6819H236.324L240.347 64.2617ZM242.312 69.7127L240.803 66.3201L239.402 69.7127H242.312Z" fill="#4F4F4F"/>
<path d="M351.106 64.1947C351.964 64.1947 352.672 64.6461 353.231 65.549C353.794 66.4474 354.076 67.5895 354.076 68.9751C354.076 70.3966 353.794 71.552 353.231 72.4415C352.672 73.331 351.946 73.7758 351.052 73.7758C350.145 73.7758 349.416 73.3399 348.866 72.4683C348.317 71.5967 348.042 70.4413 348.042 69.002C348.042 67.5806 348.326 66.4251 348.893 65.5356C349.461 64.6416 350.198 64.1947 351.106 64.1947ZM351.119 65.4686H351.052C350.538 65.4686 350.129 65.7859 349.825 66.4206C349.526 67.0509 349.376 67.9069 349.376 68.9886C349.376 70.0971 349.523 70.9665 349.818 71.5967C350.113 72.227 350.52 72.5421 351.039 72.5421C351.557 72.5421 351.966 72.227 352.266 71.5967C352.565 70.9665 352.715 70.1105 352.715 69.0288C352.715 67.9426 352.57 67.0777 352.279 66.434C351.993 65.7904 351.606 65.4686 351.119 65.4686ZM355.155 75.3044V75.0564C355.357 74.8642 355.497 74.6697 355.578 74.473C355.658 74.2808 355.705 74.0171 355.719 73.6819C355.245 73.5433 355.008 73.2505 355.008 72.8036C355.008 72.5622 355.088 72.3543 355.249 72.18C355.415 72.0012 355.609 71.9118 355.833 71.9118C356.105 71.9118 356.329 72.0325 356.503 72.2739C356.677 72.5153 356.765 72.8237 356.765 73.1991C356.765 73.6953 356.622 74.1311 356.335 74.5066C356.049 74.882 355.656 75.148 355.155 75.3044ZM360.332 72.3879H363.898V73.6819H357.971V73.588L358.535 72.9242C359.415 71.8336 360.115 70.9083 360.633 70.1485C361.156 69.3886 361.496 68.8142 361.652 68.4254C361.813 68.0365 361.894 67.6521 361.894 67.2721C361.894 66.7447 361.744 66.3223 361.445 66.0049C361.145 65.6831 360.747 65.5222 360.251 65.5222C359.876 65.5222 359.505 65.6339 359.138 65.8574C358.776 66.0765 358.45 66.3871 358.159 66.7894V65.0864C358.888 64.4919 359.639 64.1947 360.412 64.1947C361.23 64.1947 361.903 64.4673 362.43 65.0126C362.962 65.558 363.228 66.2508 363.228 67.0911C363.228 67.4666 363.161 67.8689 363.027 68.298C362.897 68.7226 362.665 69.2143 362.33 69.773C361.994 70.3273 361.424 71.0849 360.62 72.0459L360.332 72.3879ZM367.854 64.1947C368.712 64.1947 369.421 64.6461 369.98 65.549C370.543 66.4474 370.824 67.5895 370.824 68.9751C370.824 70.3966 370.543 71.552 369.98 72.4415C369.421 73.331 368.695 73.7758 367.801 73.7758C366.893 73.7758 366.165 73.3399 365.615 72.4683C365.065 71.5967 364.79 70.4413 364.79 69.002C364.79 67.5806 365.074 66.4251 365.642 65.5356C366.209 64.6416 366.947 64.1947 367.854 64.1947ZM367.868 65.4686H367.801C367.287 65.4686 366.878 65.7859 366.574 66.4206C366.274 67.0509 366.124 67.9069 366.124 68.9886C366.124 70.0971 366.272 70.9665 366.567 71.5967C366.862 72.227 367.269 72.5421 367.787 72.5421C368.306 72.5421 368.715 72.227 369.014 71.5967C369.314 70.9665 369.463 70.1105 369.463 69.0288C369.463 67.9426 369.318 67.0777 369.028 66.434C368.742 65.7904 368.355 65.4686 367.868 65.4686ZM378.414 64.1812H379.44L373.278 73.7892H372.246L378.414 64.1812ZM378.079 69.6054C378.651 69.6054 379.143 69.811 379.554 70.2222C379.965 70.629 380.171 71.1184 380.171 71.6906C380.171 72.2627 379.965 72.7499 379.554 73.1522C379.147 73.55 378.656 73.7489 378.079 73.7489C377.498 73.7489 377.002 73.55 376.591 73.1522C376.184 72.7499 375.98 72.2627 375.98 71.6906C375.98 71.114 376.186 70.6223 376.597 70.2155C377.009 69.8088 377.502 69.6054 378.079 69.6054ZM378.066 70.6178C377.771 70.6178 377.518 70.7229 377.308 70.9329C377.102 71.143 377 71.3956 377 71.6906C377 71.9901 377.102 72.2471 377.308 72.4616C377.518 72.6717 377.771 72.7767 378.066 72.7767C378.37 72.7767 378.627 72.6717 378.837 72.4616C379.047 72.2515 379.152 71.9945 379.152 71.6906C379.152 71.3911 379.047 71.1385 378.837 70.9329C378.627 70.7229 378.37 70.6178 378.066 70.6178ZM373.661 64.2081C374.237 64.2081 374.729 64.4137 375.136 64.8249C375.542 65.2361 375.746 65.73 375.746 66.3067C375.746 66.8788 375.54 67.3705 375.129 67.7817C374.722 68.1929 374.233 68.3985 373.661 68.3985C373.088 68.3985 372.597 68.1929 372.186 67.7817C371.779 67.3705 371.575 66.8788 371.575 66.3067C371.575 65.73 371.779 65.2361 372.186 64.8249C372.592 64.4137 373.084 64.2081 373.661 64.2081ZM373.647 65.2205C373.348 65.2205 373.091 65.3278 372.876 65.5423C372.666 65.7524 372.561 66.0072 372.561 66.3067C372.561 66.6017 372.668 66.8542 372.883 67.0643C373.097 67.2744 373.352 67.3794 373.647 67.3794C373.947 67.3794 374.201 67.2744 374.412 67.0643C374.626 66.8542 374.733 66.6017 374.733 66.3067C374.733 66.0027 374.628 65.7457 374.418 65.5356C374.208 65.3255 373.951 65.2205 373.647 65.2205Z" fill="#979797"/>
<rect x="0.611816" y="148.791" width="160.199" height="11.4428" rx="5.7214" fill="#EFF3F9"/>
<rect x="0.611816" y="148.791" width="4.57712" height="11.4428" rx="2.28856" fill="#7F7FD5"/>
<path d="M9.10053 127.251H10.3476V136.617H8.99996V129.329L6.11691 132.95H5.86884L2.95897 129.329V136.617H1.61802V127.251H2.87851L5.99623 131.099L9.10053 127.251ZM15.1549 130.436C16.0936 130.436 16.8736 130.739 17.4949 131.347C18.1162 131.951 18.4268 132.711 18.4268 133.627C18.4268 134.516 18.1117 135.256 17.4815 135.846C16.8512 136.432 16.0578 136.725 15.1013 136.725C14.176 136.725 13.4027 136.427 12.7814 135.833C12.1601 135.234 11.8495 134.487 11.8495 133.593C11.8495 132.691 12.1624 131.94 12.7881 131.341C13.4184 130.737 14.2073 130.436 15.1549 130.436ZM15.0879 131.535C14.5023 131.535 14.0218 131.727 13.6464 132.112C13.2709 132.496 13.0832 132.986 13.0832 133.58C13.0832 134.17 13.2754 134.653 13.6598 135.028C14.0442 135.399 14.5381 135.585 15.1415 135.585C15.7405 135.585 16.2299 135.397 16.6099 135.022C16.9943 134.642 17.1865 134.157 17.1865 133.567C17.1865 132.981 16.9876 132.496 16.5897 132.112C16.1919 131.727 15.6913 131.535 15.0879 131.535ZM21.0015 130.449V131.233C21.5468 130.63 22.1659 130.328 22.8587 130.328C23.2431 130.328 23.6007 130.429 23.9315 130.63C24.2622 130.827 24.5125 131.099 24.6824 131.448C24.8567 131.792 24.9439 132.34 24.9439 133.091V136.617H23.7236V133.104C23.7236 132.474 23.6275 132.025 23.4353 131.756C23.2431 131.484 22.9213 131.347 22.4698 131.347C21.8932 131.347 21.4038 131.636 21.0015 132.212V136.617H19.7544V130.449H21.0015ZM26.3318 132.581C26.3318 131.924 26.5709 131.405 27.0492 131.026C27.5319 130.641 28.189 130.449 29.0204 130.449H31.5615V131.401H30.3144C30.5558 131.647 30.7234 131.87 30.8172 132.071C30.9111 132.273 30.958 132.503 30.958 132.762C30.958 133.084 30.8664 133.401 30.6831 133.714C30.4999 134.023 30.263 134.259 29.9724 134.425C29.6864 134.59 29.2148 134.722 28.5577 134.82C28.0973 134.887 27.8671 135.046 27.8671 135.296C27.8671 135.44 27.9521 135.558 28.1219 135.652C28.2963 135.741 28.6091 135.835 29.0606 135.933C29.816 136.099 30.301 136.228 30.5155 136.322C30.7346 136.416 30.9312 136.55 31.1055 136.725C31.4006 137.02 31.5481 137.391 31.5481 137.838C31.5481 138.423 31.2866 138.89 30.7636 139.239C30.2451 139.588 29.55 139.762 28.6784 139.762C27.7979 139.762 27.0939 139.585 26.5664 139.232C26.0435 138.884 25.782 138.414 25.782 137.824C25.782 136.988 26.2982 136.45 27.3308 136.208C26.9195 135.945 26.7139 135.683 26.7139 135.424C26.7139 135.227 26.8011 135.048 26.9754 134.887C27.1542 134.727 27.3933 134.608 27.6928 134.532C26.7854 134.13 26.3318 133.479 26.3318 132.581ZM28.6248 131.508C28.294 131.508 28.0124 131.62 27.78 131.844C27.5476 132.067 27.4313 132.335 27.4313 132.648C27.4313 132.965 27.5453 133.229 27.7733 133.439C28.0012 133.645 28.2895 133.748 28.6382 133.748C28.9824 133.748 29.2684 133.643 29.4964 133.433C29.7288 133.218 29.8451 132.952 29.8451 132.635C29.8451 132.313 29.7288 132.045 29.4964 131.83C29.264 131.616 28.9734 131.508 28.6248 131.508ZM28.3365 136.906C27.9253 136.906 27.5878 136.993 27.3241 137.167C27.0648 137.341 26.9352 137.565 26.9352 137.838C26.9352 138.472 27.5073 138.79 28.6516 138.79C29.1925 138.79 29.6104 138.709 29.9054 138.548C30.2049 138.392 30.3546 138.168 30.3546 137.878C30.3546 137.592 30.1669 137.357 29.7914 137.174C29.4159 136.995 28.931 136.906 28.3365 136.906ZM35.4569 130.436C36.3956 130.436 37.1756 130.739 37.7969 131.347C38.4182 131.951 38.7289 132.711 38.7289 133.627C38.7289 134.516 38.4137 135.256 37.7835 135.846C37.1532 136.432 36.3598 136.725 35.4033 136.725C34.478 136.725 33.7048 136.427 33.0835 135.833C32.4621 135.234 32.1515 134.487 32.1515 133.593C32.1515 132.691 32.4644 131.94 33.0902 131.341C33.7204 130.737 34.5093 130.436 35.4569 130.436ZM35.3899 131.535C34.8043 131.535 34.3238 131.727 33.9484 132.112C33.5729 132.496 33.3852 132.986 33.3852 133.58C33.3852 134.17 33.5774 134.653 33.9618 135.028C34.3462 135.399 34.8401 135.585 35.4435 135.585C36.0425 135.585 36.5319 135.397 36.9119 135.022C37.2963 134.642 37.4885 134.157 37.4885 133.567C37.4885 132.981 37.2896 132.496 36.8918 132.112C36.4939 131.727 35.9933 131.535 35.3899 131.535ZM40.11 127.251H41.3303V136.617H40.11V127.251ZM43.7306 127.854C43.9318 127.854 44.1038 127.923 44.2469 128.062C44.3899 128.201 44.4614 128.37 44.4614 128.572C44.4614 128.768 44.3899 128.938 44.2469 129.081C44.1038 129.224 43.9318 129.296 43.7306 129.296C43.5429 129.296 43.3775 129.224 43.2345 129.081C43.0914 128.934 43.0199 128.764 43.0199 128.572C43.0199 128.384 43.0914 128.218 43.2345 128.075C43.3775 127.928 43.5429 127.854 43.7306 127.854ZM43.1272 130.449H44.3474V136.617H43.1272V130.449ZM49.9929 132.91V135.531C49.9929 135.741 50.0644 135.846 50.2074 135.846C50.3549 135.846 50.5851 135.737 50.898 135.518V136.262C50.6209 136.441 50.3974 136.561 50.2275 136.624C50.0621 136.691 49.8878 136.725 49.7046 136.725C49.1816 136.725 48.8732 136.519 48.7793 136.108C48.2608 136.51 47.7088 136.711 47.1232 136.711C46.6941 136.711 46.3365 136.57 46.0505 136.289C45.7644 136.003 45.6214 135.645 45.6214 135.216C45.6214 134.827 45.7599 134.481 46.037 134.177C46.3186 133.868 46.7165 133.625 47.2305 133.446L48.7927 132.91V132.581C48.7927 131.839 48.4217 131.468 47.6797 131.468C47.0137 131.468 46.3656 131.812 45.7353 132.501V131.166C46.2091 130.608 46.8908 130.328 47.7803 130.328C48.4463 130.328 48.9804 130.503 49.3827 130.851C49.5168 130.963 49.6375 131.113 49.7448 131.3C49.8521 131.484 49.9191 131.669 49.9459 131.857C49.9772 132.04 49.9929 132.391 49.9929 132.91ZM48.7927 135.397V133.567L47.9747 133.882C47.559 134.047 47.264 134.215 47.0897 134.385C46.9198 134.55 46.8349 134.758 46.8349 135.008C46.8349 135.263 46.9154 135.471 47.0763 135.632C47.2417 135.793 47.454 135.873 47.7132 135.873C48.1021 135.873 48.4619 135.714 48.7927 135.397Z" fill="#4F4F4F"/>
<path d="M131.404 127.13C132.262 127.13 132.971 127.581 133.53 128.484C134.093 129.383 134.374 130.525 134.374 131.91C134.374 133.332 134.093 134.487 133.53 135.377C132.971 136.266 132.244 136.711 131.35 136.711C130.443 136.711 129.715 136.275 129.165 135.404C128.615 134.532 128.34 133.377 128.34 131.937C128.34 130.516 128.624 129.36 129.192 128.471C129.759 127.577 130.497 127.13 131.404 127.13ZM131.418 128.404H131.35C130.836 128.404 130.427 128.721 130.124 129.356C129.824 129.986 129.674 130.842 129.674 131.924C129.674 133.032 129.822 133.902 130.117 134.532C130.412 135.162 130.819 135.477 131.337 135.477C131.856 135.477 132.265 135.162 132.564 134.532C132.864 133.902 133.013 133.046 133.013 131.964C133.013 130.878 132.868 130.013 132.577 129.369C132.291 128.726 131.905 128.404 131.418 128.404ZM135.454 138.24V137.992C135.655 137.799 135.796 137.605 135.876 137.408C135.957 137.216 136.004 136.952 136.017 136.617C135.543 136.479 135.306 136.186 135.306 135.739C135.306 135.497 135.387 135.29 135.548 135.115C135.713 134.937 135.907 134.847 136.131 134.847C136.404 134.847 136.627 134.968 136.801 135.209C136.976 135.451 137.063 135.759 137.063 136.134C137.063 136.631 136.92 137.066 136.634 137.442C136.348 137.817 135.954 138.083 135.454 138.24ZM140.576 127.251H141.917V136.617H140.576V127.251ZM147.14 131.166H147.221C147.806 131.166 148.251 131.046 148.555 130.804C148.863 130.563 149.018 130.212 149.018 129.752C149.018 129.336 148.868 128.998 148.568 128.739C148.273 128.48 147.884 128.35 147.402 128.35C146.914 128.35 146.374 128.502 145.779 128.806V127.526C146.324 127.253 146.919 127.117 147.563 127.117C148.425 127.117 149.105 127.342 149.601 127.794C150.101 128.245 150.352 128.862 150.352 129.644C150.352 130.118 150.256 130.518 150.063 130.844C149.871 131.166 149.565 131.443 149.145 131.676C149.511 131.819 149.78 131.995 149.949 132.205C150.119 132.411 150.251 132.661 150.345 132.956C150.439 133.251 150.486 133.564 150.486 133.895C150.486 134.713 150.213 135.39 149.668 135.927C149.123 136.459 148.434 136.724 147.603 136.724C146.892 136.724 146.206 136.552 145.544 136.208V134.747C146.251 135.189 146.937 135.41 147.603 135.41C148.054 135.41 148.416 135.276 148.689 135.008C148.966 134.74 149.105 134.385 149.105 133.942C149.105 133.571 148.991 133.247 148.763 132.97C148.629 132.813 148.479 132.699 148.314 132.628C148.153 132.552 147.802 132.48 147.261 132.413L147.14 132.4V131.166ZM158.713 127.117H159.738L153.577 136.724H152.544L158.713 127.117ZM158.377 132.541C158.95 132.541 159.441 132.746 159.852 133.158C160.264 133.564 160.469 134.054 160.469 134.626C160.469 135.198 160.264 135.685 159.852 136.088C159.446 136.485 158.954 136.684 158.377 136.684C157.796 136.684 157.3 136.485 156.889 136.088C156.482 135.685 156.279 135.198 156.279 134.626C156.279 134.049 156.484 133.558 156.896 133.151C157.307 132.744 157.801 132.541 158.377 132.541ZM158.364 133.553C158.069 133.553 157.816 133.658 157.606 133.868C157.401 134.078 157.298 134.331 157.298 134.626C157.298 134.925 157.401 135.182 157.606 135.397C157.816 135.607 158.069 135.712 158.364 135.712C158.668 135.712 158.925 135.607 159.135 135.397C159.345 135.187 159.45 134.93 159.45 134.626C159.45 134.326 159.345 134.074 159.135 133.868C158.925 133.658 158.668 133.553 158.364 133.553ZM153.959 127.143C154.536 127.143 155.027 127.349 155.434 127.76C155.841 128.171 156.044 128.665 156.044 129.242C156.044 129.814 155.839 130.306 155.427 130.717C155.021 131.128 154.531 131.334 153.959 131.334C153.387 131.334 152.895 131.128 152.484 130.717C152.077 130.306 151.874 129.814 151.874 129.242C151.874 128.665 152.077 128.171 152.484 127.76C152.891 127.349 153.382 127.143 153.959 127.143ZM153.946 128.156C153.646 128.156 153.389 128.263 153.174 128.478C152.964 128.688 152.859 128.942 152.859 129.242C152.859 129.537 152.967 129.79 153.181 130C153.396 130.21 153.651 130.315 153.946 130.315C154.245 130.315 154.5 130.21 154.71 130C154.924 129.79 155.032 129.537 155.032 129.242C155.032 128.938 154.927 128.681 154.717 128.471C154.506 128.261 154.249 128.156 153.946 128.156Z" fill="#979797"/>
<rect x="220.313" y="147.647" width="160.199" height="11.4428" rx="5.7214" fill="#EFF3F9"/>
<rect x="220.313" y="147.647" width="17.1642" height="11.4428" rx="5.7214" fill="#7F7FD5"/>
<path d="M225.945 125.972C227.394 125.972 228.598 126.431 229.559 127.347C230.525 128.263 231.008 129.412 231.008 130.793C231.008 132.174 230.52 133.319 229.546 134.226C228.576 135.129 227.351 135.58 225.872 135.58C224.459 135.58 223.281 135.129 222.338 134.226C221.4 133.319 220.93 132.183 220.93 130.82C220.93 129.421 221.404 128.263 222.352 127.347C223.299 126.431 224.497 125.972 225.945 125.972ZM225.999 127.246C224.926 127.246 224.044 127.582 223.351 128.252C222.662 128.922 222.318 129.778 222.318 130.82C222.318 131.83 222.665 132.67 223.357 133.341C224.05 134.011 224.917 134.347 225.959 134.347C227.005 134.347 227.876 134.005 228.574 133.321C229.276 132.637 229.626 131.785 229.626 130.766C229.626 129.774 229.276 128.94 228.574 128.265C227.876 127.586 227.018 127.246 225.999 127.246ZM231.618 130.284L233.911 128.031V129.305H235.862V130.404H233.911V133.428C233.911 134.134 234.204 134.487 234.789 134.487C235.227 134.487 235.69 134.34 236.177 134.045V135.185C235.708 135.448 235.196 135.58 234.642 135.58C234.083 135.58 233.618 135.417 233.247 135.091C233.131 134.993 233.035 134.883 232.959 134.762C232.883 134.637 232.818 134.476 232.764 134.28C232.715 134.078 232.69 133.698 232.69 133.14V130.404H231.618V130.284ZM237.028 126.106H238.249V130.116C238.758 129.495 239.391 129.184 240.146 129.184C240.557 129.184 240.926 129.287 241.252 129.492C241.579 129.698 241.82 129.982 241.977 130.344C242.137 130.706 242.218 131.245 242.218 131.96V135.473H240.998V131.658C240.998 131.207 240.886 130.845 240.662 130.572C240.443 130.295 240.153 130.156 239.791 130.156C239.523 130.156 239.27 130.225 239.033 130.364C238.796 130.503 238.535 130.733 238.249 131.055V135.473H237.028V126.106ZM249.177 132.496H244.839C244.871 133.086 245.067 133.555 245.43 133.904C245.796 134.253 246.268 134.427 246.844 134.427C247.649 134.427 248.391 134.177 249.07 133.676V134.87C248.695 135.12 248.321 135.299 247.95 135.406C247.584 135.513 247.153 135.567 246.656 135.567C245.977 135.567 245.427 135.426 245.007 135.144C244.587 134.863 244.249 134.485 243.995 134.011C243.744 133.533 243.619 132.981 243.619 132.355C243.619 131.417 243.885 130.655 244.417 130.069C244.949 129.479 245.64 129.184 246.489 129.184C247.307 129.184 247.959 129.47 248.447 130.042C248.934 130.614 249.177 131.381 249.177 132.342V132.496ZM244.866 131.765H247.971C247.939 131.278 247.794 130.903 247.535 130.639C247.276 130.375 246.927 130.243 246.489 130.243C246.051 130.243 245.691 130.375 245.409 130.639C245.132 130.903 244.951 131.278 244.866 131.765ZM251.812 129.305V130.719L251.879 130.612C252.469 129.66 253.06 129.184 253.65 129.184C254.11 129.184 254.59 129.416 255.091 129.881L254.447 130.954C254.023 130.552 253.629 130.351 253.267 130.351C252.874 130.351 252.532 130.538 252.242 130.914C251.955 131.289 251.812 131.734 251.812 132.248V135.473H250.585V129.305H251.812Z" fill="#4F4F4F"/>
<path d="M350.395 126.106H351.736V135.473H350.395V126.106ZM355.155 137.096V136.847C355.357 136.655 355.497 136.461 355.578 136.264C355.658 136.072 355.705 135.808 355.719 135.473C355.245 135.334 355.008 135.042 355.008 134.595C355.008 134.353 355.088 134.145 355.249 133.971C355.415 133.792 355.609 133.703 355.833 133.703C356.105 133.703 356.329 133.824 356.503 134.065C356.677 134.306 356.765 134.615 356.765 134.99C356.765 135.486 356.622 135.922 356.335 136.298C356.049 136.673 355.656 136.939 355.155 137.096ZM359.976 130.022H360.057C360.642 130.022 361.087 129.901 361.391 129.66C361.699 129.419 361.854 129.068 361.854 128.607C361.854 128.192 361.704 127.854 361.404 127.595C361.109 127.336 360.72 127.206 360.238 127.206C359.75 127.206 359.21 127.358 358.615 127.662V126.381C359.16 126.109 359.755 125.972 360.399 125.972C361.261 125.972 361.941 126.198 362.437 126.65C362.937 127.101 363.188 127.718 363.188 128.5C363.188 128.974 363.092 129.374 362.899 129.7C362.707 130.022 362.401 130.299 361.981 130.532C362.347 130.675 362.616 130.851 362.785 131.061C362.955 131.267 363.087 131.517 363.181 131.812C363.275 132.107 363.322 132.42 363.322 132.751C363.322 133.569 363.049 134.246 362.504 134.782C361.959 135.314 361.27 135.58 360.439 135.58C359.728 135.58 359.042 135.408 358.38 135.064V133.602C359.087 134.045 359.773 134.266 360.439 134.266C360.89 134.266 361.252 134.132 361.525 133.864C361.802 133.596 361.941 133.24 361.941 132.798C361.941 132.427 361.827 132.103 361.599 131.826C361.465 131.669 361.315 131.555 361.15 131.484C360.989 131.408 360.638 131.336 360.097 131.269L359.976 131.256V130.022ZM365.038 126.106H371.099L366.855 135.58L365.662 135.077L369.095 127.387H365.038V126.106ZM378.414 125.972H379.44L373.278 135.58H372.246L378.414 125.972ZM378.079 131.397C378.651 131.397 379.143 131.602 379.554 132.013C379.965 132.42 380.171 132.91 380.171 133.482C380.171 134.054 379.965 134.541 379.554 134.943C379.147 135.341 378.656 135.54 378.079 135.54C377.498 135.54 377.002 135.341 376.591 134.943C376.184 134.541 375.98 134.054 375.98 133.482C375.98 132.905 376.186 132.413 376.597 132.007C377.009 131.6 377.502 131.397 378.079 131.397ZM378.066 132.409C377.771 132.409 377.518 132.514 377.308 132.724C377.102 132.934 377 133.187 377 133.482C377 133.781 377.102 134.038 377.308 134.253C377.518 134.463 377.771 134.568 378.066 134.568C378.37 134.568 378.627 134.463 378.837 134.253C379.047 134.043 379.152 133.786 379.152 133.482C379.152 133.182 379.047 132.93 378.837 132.724C378.627 132.514 378.37 132.409 378.066 132.409ZM373.661 125.999C374.237 125.999 374.729 126.205 375.136 126.616C375.542 127.027 375.746 127.521 375.746 128.098C375.746 128.67 375.54 129.162 375.129 129.573C374.722 129.984 374.233 130.19 373.661 130.19C373.088 130.19 372.597 129.984 372.186 129.573C371.779 129.162 371.575 128.67 371.575 128.098C371.575 127.521 371.779 127.027 372.186 126.616C372.592 126.205 373.084 125.999 373.661 125.999ZM373.647 127.012C373.348 127.012 373.091 127.119 372.876 127.333C372.666 127.544 372.561 127.798 372.561 128.098C372.561 128.393 372.668 128.645 372.883 128.855C373.097 129.066 373.352 129.171 373.647 129.171C373.947 129.171 374.201 129.066 374.412 128.855C374.626 128.645 374.733 128.393 374.733 128.098C374.733 127.794 374.628 127.537 374.418 127.327C374.208 127.117 373.951 127.012 373.647 127.012Z" fill="#979797"/>
</svg>
